<svg width="144" height="18" viewBox="0 0 144 18" fill="none" xmlns="http://www.w3.org/2000/svg">
<path d="M5.94 14C9.684 14 12.294 11.624 12.294 7.988C12.294 4.388 9.684 1.994 5.922 1.994H1.188V14H5.94ZM5.922 11.75H3.744V4.244H5.94C8.388 4.244 9.684 5.882 9.684 7.988C9.684 10.04 8.298 11.75 5.922 11.75ZM19.8139 14.216C23.4319 14.216 26.0779 11.624 26.0779 8.006C26.0779 4.388 23.4319 1.796 19.8139 1.796C16.1779 1.796 13.5319 4.388 13.5319 8.006C13.5319 11.624 16.1779 14.216 19.8139 14.216ZM19.8139 11.948C17.5819 11.948 16.1599 10.238 16.1599 8.006C16.1599 5.756 17.5819 4.064 19.8139 4.064C22.0279 4.064 23.4499 5.756 23.4499 8.006C23.4499 10.238 22.0279 11.948 19.8139 11.948ZM40.8856 14V1.994H37.2856L34.3696 9.5L31.4536 1.994H27.8716V14H30.4276V5.342L33.8116 14H34.9276L38.3116 5.342V14H40.8856ZM45.826 14V1.994H43.27V14H45.826ZM58.9555 14V1.994H56.3995V9.536L50.8375 1.994H48.2095V14H50.7655V6.17L56.4895 14H58.9555ZM67.0288 14.216C70.6468 14.216 73.2928 11.624 73.2928 8.006C73.2928 4.388 70.6468 1.796 67.0288 1.796C63.3928 1.796 60.7468 4.388 60.7468 8.006C60.7468 11.624 63.3928 14.216 67.0288 14.216ZM67.0288 11.948C64.7968 11.948 63.3748 10.238 63.3748 8.006C63.3748 5.756 64.7968 4.064 67.0288 4.064C69.2428 4.064 70.6648 5.756 70.6648 8.006C70.6648 10.238 69.2428 11.948 67.0288 11.948ZM77.5927 3.65C77.5927 2.48 76.8367 1.814 75.9907 1.814C75.2167 1.814 74.5687 2.462 74.5687 3.236C74.5687 4.01 75.1087 4.532 75.7927 4.532C75.9367 4.532 76.0807 4.514 76.1347 4.478C75.9907 5.126 75.3247 5.882 74.7487 6.188L75.7387 6.998C76.8547 6.206 77.5927 5 77.5927 3.65ZM83.7825 14.216C87.0045 14.216 88.5885 12.56 88.5885 10.364C88.5885 5.882 81.6945 7.16 81.6945 5.27C81.6945 4.55 82.3065 4.082 83.3865 4.082C84.6105 4.082 85.9065 4.496 86.8785 5.396L88.3005 3.488C87.1125 2.39 85.5285 1.814 83.6205 1.814C80.7945 1.814 79.0665 3.47 79.0665 5.468C79.0665 9.986 85.9785 8.528 85.9785 10.616C85.9785 11.318 85.3125 11.948 83.8905 11.948C82.2345 11.948 80.9205 11.192 80.0745 10.31L78.6705 12.308C79.8045 13.442 81.4605 14.216 83.7825 14.216ZM97.4706 14V9.716H100.531C103.123 9.716 104.563 7.952 104.563 5.864C104.563 3.758 103.141 1.994 100.531 1.994H94.9146V14H97.4706ZM100.171 7.466H97.4706V4.244H100.171C101.179 4.244 101.953 4.856 101.953 5.864C101.953 6.854 101.179 7.466 100.171 7.466ZM108.721 14V1.994H106.165V14H108.721ZM119.816 14V11.75H114.02L119.69 4.046V1.994H110.672V4.244H116.342L110.672 11.93V14H119.816ZM130.468 14V11.75H124.672L130.342 4.046V1.994H121.324V4.244H126.994L121.324 11.93V14H130.468ZM143.605 14L138.979 1.994H135.775L131.149 14H134.047L134.803 11.966H139.951L140.707 14H143.605ZM139.249 9.716H135.505L137.377 4.55L139.249 9.716Z" fill="white"/>
</svg>
