<svg width="231" height="162" viewBox="0 0 231 162" fill="none" xmlns="http://www.w3.org/2000/svg" xmlns:xlink="http://www.w3.org/1999/xlink">
<rect width="231" height="162" fill="#E5E5E5"/>

<g filter="url(#filter0_d)">
<path d="M-100 12C-100 5.37259 -94.6274 0 -88 0H219C225.627 0 231 5.37258 231 12V150C231 156.627 225.627 162 219 162H-88C-94.6274 162 -100 156.627 -100 150V12Z" fill="white"/>
</g>

<path d="M0 0H219C225.627 0 231 5.37258 231 12V150C231 156.627 225.627 162 219 162H0V0Z" fill="#6D6D6D"/>

<g mask="url(#mask0)">
<rect x="-45" y="-25" width="320" height="213" fill="url(#pattern0)"/>
<path d="M0 0H219C225.627 0 231 5.37258 231 12V150C231 156.627 225.627 162 219 162H0V0Z" fill="#000000" fill-opacity="0.4"/>
</g>

<path d="M218.5 0H179L230.974 51.2994L231 10.4621C229.5 2 222.5 0 218.5 0Z" fill="#137AA7"/>

<path d="M43.8906 117.625H41.0293C41.4717 117.037 41.7344 116.306 41.7344 115.516C41.7344 113.577 40.1573 112 38.2188 112C37.051 112 36.19 112.418 35.509 113.317C34.9392 114.068 34.5226 115.117 34 116.443C33.4774 115.117 33.0608 114.068 32.491 113.317C31.81 112.418 30.949 112 29.7812 112C27.8427 112 26.2656 113.577 26.2656 115.516C26.2656 116.306 26.5283 117.037 26.9707 117.625H24.1094C22.9463 117.625 22 118.571 22 119.734V121.141C22 122.057 22.5879 122.839 23.4062 123.129V133.891C23.4062 135.054 24.3525 136 25.5156 136H42.4844C43.6475 136 44.5938 135.054 44.5938 133.891V123.129C45.4121 122.839 46 122.057 46 121.141V119.734C46 118.571 45.0537 117.625 43.8906 117.625ZM35.2907 117.003C36.3678 114.271 36.7773 113.406 38.2188 113.406C39.3819 113.406 40.3281 114.353 40.3281 115.516C40.3281 116.679 39.3819 117.625 38.2188 117.625H35.0447C35.1309 117.409 35.213 117.2 35.2907 117.003ZM29.7812 113.406C31.2227 113.406 31.6322 114.271 32.7093 117.003C32.787 117.2 32.8691 117.409 32.9553 117.625H29.7812C28.6181 117.625 27.6719 116.679 27.6719 115.516C27.6719 114.353 28.6181 113.406 29.7812 113.406ZM31.1875 134.594H25.5156C25.1279 134.594 24.8125 134.278 24.8125 133.891V123.25H31.1875V134.594ZM31.1875 121.844H24.1094C23.7217 121.844 23.4062 121.528 23.4062 121.141V119.734C23.4062 119.347 23.7217 119.031 24.1094 119.031H31.1875V121.844ZM35.4062 134.594H32.5938V119.031C32.7411 119.031 34.5981 119.031 35.4062 119.031V134.594ZM43.1875 133.891C43.1875 134.278 42.8721 134.594 42.4844 134.594H36.8125V123.25H43.1875V133.891ZM44.5938 121.141C44.5938 121.528 44.2783 121.844 43.8906 121.844H36.8125V119.031H43.8906C44.2783 119.031 44.5938 119.347 44.5938 119.734V121.141Z" fill="white"/>


</svg>
