<svg width="331" height="50" viewBox="0 0 331 50" fill="none" xmlns="http://www.w3.org/2000/svg">
<g filter="url(#filter0_d)">
<rect width="331" height="50" rx="25" fill="url(#paint0_linear)"/>
<path d="M141.229 30.192C144.109 30.192 145.357 28.672 145.357 26.896C145.357 22.912 139.149 24.144 139.149 22.16C139.149 21.36 139.853 20.832 140.957 20.832C142.077 20.832 143.213 21.216 144.045 22.048L145.117 20.656C144.125 19.696 142.781 19.168 141.117 19.168C138.781 19.168 137.229 20.528 137.229 22.288C137.229 26.224 143.453 24.832 143.453 27.072C143.453 27.776 142.845 28.528 141.309 28.528C139.821 28.528 138.669 27.84 137.933 27.056L136.893 28.496C137.837 29.504 139.261 30.192 141.229 30.192ZM151.705 30.192C154.793 30.192 156.313 28.432 156.313 25.776V19.328H154.425V25.728C154.425 27.424 153.481 28.528 151.705 28.528C149.913 28.528 148.969 27.424 148.969 25.728V19.328H147.081V25.792C147.081 28.416 148.601 30.192 151.705 30.192ZM163.973 30C165.973 30 167.077 28.768 167.077 27.12C167.077 25.808 166.149 24.672 165.013 24.496C166.005 24.288 166.869 23.392 166.869 22.048C166.869 20.544 165.781 19.328 163.829 19.328H158.581V30H163.973ZM163.445 23.744H160.453V20.976H163.445C164.405 20.976 164.949 21.568 164.949 22.368C164.949 23.168 164.405 23.744 163.445 23.744ZM163.525 28.352H160.453V25.392H163.525C164.597 25.392 165.157 26.064 165.157 26.864C165.157 27.792 164.549 28.352 163.525 28.352ZM180.044 30V19.328H177.404L174.492 26.352L171.596 19.328H168.956V30H170.828V22.08L174.092 30H174.892L178.172 22.08V30H180.044ZM184.188 30V19.328H182.316V30H184.188ZM190.872 30V20.976H194.104V19.328H185.768V20.976H189V30H190.872Z" fill="white"/>
</g>
<defs>
<linearGradient id="paint0_linear" x1="165.5" y1="0" x2="165.5" y2="39" gradientUnits="userSpaceOnUse">
<stop stop-color="#7DAAED"/>
<stop offset="1" stop-color="#6299EC"/>
</linearGradient>
</defs>
</svg>
