<svg width="101" height="11" viewBox="0 0 101 11" fill="none" xmlns="http://www.w3.org/2000/svg">
<path d="M9.394 10L5.726 0.661999H3.682L0.014 10H1.876L2.562 8.208H6.846L7.532 10H9.394ZM6.384 6.766H3.024L4.704 2.314L6.384 6.766ZM13.4519 10.168C14.7679 10.168 15.5659 9.608 16.0419 8.964L15.0759 8.068C14.6979 8.586 14.1799 8.866 13.5219 8.866C12.2899 8.866 11.4779 7.928 11.4779 6.612C11.4779 5.296 12.2899 4.372 13.5219 4.372C14.1799 4.372 14.6979 4.638 15.0759 5.17L16.0419 4.274C15.5659 3.63 14.7679 3.07 13.4519 3.07C11.3939 3.07 9.95192 4.568 9.95192 6.612C9.95192 8.67 11.3939 10.168 13.4519 10.168ZM19.3609 10.168C20.0469 10.168 20.4809 9.986 20.7469 9.734L20.3969 8.628C20.2849 8.754 20.0189 8.866 19.7389 8.866C19.3189 8.866 19.0949 8.53 19.0949 8.068V4.526H20.4669V3.238H19.0949V1.39H17.6249V3.238H16.5049V4.526H17.6249V8.432C17.6249 9.552 18.2269 10.168 19.3609 10.168ZM22.5296 2.412C23.0336 2.412 23.4396 2.006 23.4396 1.502C23.4396 0.998 23.0336 0.591999 22.5296 0.591999C22.0396 0.591999 21.6196 0.998 21.6196 1.502C21.6196 2.006 22.0396 2.412 22.5296 2.412ZM23.2716 10V3.238H21.8016V10H23.2716ZM28.5386 10L31.2966 3.238H29.7146L27.7406 8.306L25.7666 3.238H24.1986L26.9566 10H28.5386ZM35.3416 10.168C36.4196 10.168 37.4136 9.832 38.0856 9.188L37.4136 8.222C36.9376 8.698 36.1536 8.964 35.4956 8.964C34.2216 8.964 33.4516 8.124 33.3396 7.102H38.5616V6.752C38.5616 4.624 37.2596 3.07 35.2296 3.07C33.2276 3.07 31.7996 4.652 31.7996 6.612C31.7996 8.754 33.3116 10.168 35.3416 10.168ZM37.1336 6.066H33.3256C33.3956 5.24 33.9696 4.274 35.2296 4.274C36.5596 4.274 37.1056 5.268 37.1336 6.066ZM48.3823 10L52.0503 0.661999H50.1883L47.3603 8.222L44.5323 0.661999H42.6703L46.3383 10H48.3823ZM55.2462 10.168C57.4162 10.168 58.7322 8.558 58.7322 6.612C58.7322 4.68 57.4162 3.07 55.2462 3.07C53.1042 3.07 51.7742 4.68 51.7742 6.612C51.7742 8.558 53.1042 10.168 55.2462 10.168ZM55.2462 8.866C54.0002 8.866 53.3002 7.816 53.3002 6.612C53.3002 5.422 54.0002 4.372 55.2462 4.372C56.5062 4.372 57.2062 5.422 57.2062 6.612C57.2062 7.816 56.5062 8.866 55.2462 8.866ZM66.2536 10V3.238H64.7836V7.984C64.4336 8.446 63.7896 8.866 63.0476 8.866C62.2216 8.866 61.6896 8.544 61.6896 7.494V3.238H60.2196V8.026C60.2196 9.412 60.9336 10.168 62.3896 10.168C63.4536 10.168 64.2936 9.65 64.7836 9.104V10H66.2536ZM71.2429 10.168C72.5589 10.168 73.3569 9.608 73.8329 8.964L72.8669 8.068C72.4889 8.586 71.9709 8.866 71.3129 8.866C70.0809 8.866 69.2689 7.928 69.2689 6.612C69.2689 5.296 70.0809 4.372 71.3129 4.372C71.9709 4.372 72.4889 4.638 72.8669 5.17L73.8329 4.274C73.3569 3.63 72.5589 3.07 71.2429 3.07C69.1849 3.07 67.7429 4.568 67.7429 6.612C67.7429 8.67 69.1849 10.168 71.2429 10.168ZM81.1699 10V5.212C81.1699 3.826 80.4419 3.07 78.9859 3.07C77.9219 3.07 77.0399 3.63 76.5919 4.162V0.661999H75.1219V10H76.5919V5.282C76.9419 4.82 77.5859 4.372 78.3279 4.372C79.1539 4.372 79.6999 4.694 79.6999 5.744V10H81.1699ZM86.201 10.168C87.279 10.168 88.273 9.832 88.945 9.188L88.273 8.222C87.797 8.698 87.013 8.964 86.355 8.964C85.081 8.964 84.311 8.124 84.199 7.102H89.421V6.752C89.421 4.624 88.119 3.07 86.089 3.07C84.087 3.07 82.659 4.652 82.659 6.612C82.659 8.754 84.171 10.168 86.201 10.168ZM87.993 6.066H84.185C84.255 5.24 84.829 4.274 86.089 4.274C87.419 4.274 87.965 5.268 87.993 6.066ZM92.3419 10V5.394C92.6359 4.918 93.4619 4.498 94.0779 4.498C94.2599 4.498 94.4139 4.512 94.5399 4.54V3.084C93.6579 3.084 92.8459 3.588 92.3419 4.232V3.238H90.8719V10H92.3419ZM98.0354 10.168C99.8554 10.168 100.849 9.258 100.849 8.068C100.849 5.38 96.7614 6.276 96.7614 5.072C96.7614 4.596 97.2514 4.246 98.0214 4.246C98.8614 4.246 99.6174 4.596 100.023 5.058L100.639 4.022C100.023 3.476 99.1554 3.07 98.0074 3.07C96.2994 3.07 95.3474 4.022 95.3474 5.128C95.3474 7.718 99.4354 6.766 99.4354 8.096C99.4354 8.628 98.9874 9.006 98.1054 9.006C97.2234 9.006 96.2854 8.544 95.8094 8.054L95.1374 9.118C95.8374 9.804 96.8874 10.168 98.0354 10.168Z" fill="white"/>
</svg>
