<svg width="71" height="78" viewBox="0 0 71 78" fill="none" xmlns="http://www.w3.org/2000/svg">
<circle cx="36" cy="22" r="22" fill="url(#paint0_linear)"/>
<path d="M50.7324 24.0327C50.7324 22.0459 49.3981 20.2771 47.4878 19.7313L44.5615 18.8952L42.2574 14.287C41.5521 12.8763 40.1341 12 38.5569 12H29.9153C28.2004 12 26.6436 13.0788 26.0415 14.6845L24.4238 18.9981L23.5196 19.4502C22.5823 19.919 22 20.8612 22 21.9092V28.9014H26.0358C26.4238 30.6711 28.0028 32 29.8873 32C31.7718 32 33.3509 30.6711 33.7389 28.9014H38.9936C39.3816 30.6711 40.9606 32 42.8451 32C44.7296 32 46.3087 30.6711 46.6967 28.9014H50.7324V24.0327ZM40.7456 15.0429L42.6045 18.7606H34.9577V13.6901H38.5569C39.4897 13.6901 40.3284 14.2085 40.7456 15.0429ZM27.624 15.278C27.9801 14.3283 28.901 13.6901 29.9153 13.6901H33.2676V18.7606H26.318L27.624 15.278ZM29.8873 30.3099C28.6447 30.3099 27.6338 29.2989 27.6338 28.0563C27.6338 26.8137 28.6447 25.8028 29.8873 25.8028C31.1299 25.8028 32.1408 26.8137 32.1408 28.0563C32.1408 29.2989 31.1299 30.3099 29.8873 30.3099ZM42.8451 30.3099C41.6025 30.3099 40.5915 29.2989 40.5915 28.0563C40.5915 26.8137 41.6025 25.8028 42.8451 25.8028C44.0877 25.8028 45.0986 26.8137 45.0986 28.0563C45.0986 29.2989 44.0877 30.3099 42.8451 30.3099ZM46.6966 27.2113C46.3086 25.4416 44.7296 24.1127 42.8451 24.1127C40.9606 24.1127 39.3815 25.4416 38.9935 27.2113H33.7388C33.3508 25.4416 31.7718 24.1127 29.8873 24.1127C28.0028 24.1127 26.4237 25.4416 26.0357 27.2113H23.6901V21.9092C23.6901 21.5055 23.9144 21.1425 24.2755 20.962L25.2981 20.4508H43.6901V20.4041L47.0235 21.3565C47.8598 21.5954 48.5182 22.2114 48.8353 22.986H47.3521V24.6761H49.0423V27.2113H46.6966V27.2113Z" fill="white"/>
<path d="M5.70838 68.168C7.36038 68.168 8.48038 67.384 9.26438 66.32L8.27038 65.774C7.73838 66.572 6.77238 67.132 5.70838 67.132C3.66438 67.132 2.11038 65.55 2.11038 63.338C2.11038 61.112 3.66438 59.544 5.70838 59.544C6.77238 59.544 7.73838 60.118 8.27038 60.902L9.25038 60.356C8.50838 59.306 7.36038 58.508 5.70838 58.508C3.02038 58.508 0.906383 60.468 0.906383 63.338C0.906383 66.208 3.02038 68.168 5.70838 68.168ZM15.9813 68V63.352C15.9813 61.714 14.7913 61.07 13.3633 61.07C12.2573 61.07 11.3893 61.434 10.6613 62.19L11.1513 62.918C11.7533 62.274 12.4113 61.98 13.2233 61.98C14.2033 61.98 14.9313 62.498 14.9313 63.408V64.626C14.3853 63.996 13.6153 63.702 12.6913 63.702C11.5433 63.702 10.3253 64.416 10.3253 65.928C10.3253 67.398 11.5433 68.168 12.6913 68.168C13.6013 68.168 14.3713 67.846 14.9313 67.23V68H15.9813ZM13.0693 67.412C12.0893 67.412 11.4033 66.796 11.4033 65.942C11.4033 65.074 12.0893 64.458 13.0693 64.458C13.8113 64.458 14.5253 64.738 14.9313 65.298V66.572C14.5253 67.132 13.8113 67.412 13.0693 67.412ZM19.1361 68V63.212C19.4441 62.666 20.3261 62.134 20.9701 62.134C21.1381 62.134 21.2641 62.148 21.3901 62.176V61.098C20.4661 61.098 19.6821 61.616 19.1361 62.33V61.238H18.0861V68H19.1361ZM29.3826 68.168C31.9026 68.168 32.8266 66.782 32.8266 65.424C32.8266 61.938 27.2966 63.142 27.2966 61.042C27.2966 60.16 28.0946 59.558 29.2146 59.558C30.2366 59.558 31.2166 59.908 31.9166 60.678L32.6166 59.824C31.8326 58.998 30.7266 58.522 29.2986 58.522C27.4646 58.522 26.0926 59.572 26.0926 61.112C26.0926 64.444 31.6226 63.114 31.6226 65.522C31.6226 66.236 31.0906 67.132 29.4246 67.132C28.1086 67.132 27.1006 66.488 26.4846 65.802L25.7986 66.684C26.5686 67.552 27.7586 68.168 29.3826 68.168ZM37.5717 68.168C38.6777 68.168 39.5877 67.804 40.2597 67.132L39.7557 66.446C39.2237 66.992 38.4397 67.3 37.6697 67.3C36.2137 67.3 35.3177 66.236 35.2337 64.962H40.7077V64.696C40.7077 62.666 39.5037 61.07 37.4597 61.07C35.5277 61.07 34.1277 62.652 34.1277 64.612C34.1277 66.726 35.5697 68.168 37.5717 68.168ZM39.6717 64.192H35.2337C35.2897 63.156 36.0037 61.938 37.4457 61.938C38.9857 61.938 39.6577 63.184 39.6717 64.192ZM43.4584 68V63.212C43.7664 62.666 44.6484 62.134 45.2924 62.134C45.4604 62.134 45.5864 62.148 45.7124 62.176V61.098C44.7884 61.098 44.0044 61.616 43.4584 62.33V61.238H42.4084V68H43.4584ZM49.9835 68L52.7975 61.238H51.6495L49.4095 66.782L47.1555 61.238H46.0215L48.8355 68H49.9835ZM54.4108 60.272C54.8028 60.272 55.1248 59.964 55.1248 59.572C55.1248 59.18 54.8028 58.858 54.4108 58.858C54.0328 58.858 53.7108 59.18 53.7108 59.572C53.7108 59.964 54.0328 60.272 54.4108 60.272ZM54.9428 68V61.238H53.8928V68H54.9428ZM60.0193 68.168C61.2513 68.168 61.9793 67.664 62.4973 66.992L61.7973 66.348C61.3493 66.95 60.7753 67.23 60.0753 67.23C58.6333 67.23 57.7373 66.11 57.7373 64.612C57.7373 63.114 58.6333 62.008 60.0753 62.008C60.7753 62.008 61.3493 62.274 61.7973 62.89L62.4973 62.246C61.9793 61.574 61.2513 61.07 60.0193 61.07C58.0033 61.07 56.6453 62.61 56.6453 64.612C56.6453 66.628 58.0033 68.168 60.0193 68.168ZM67.0209 68.168C68.1269 68.168 69.0369 67.804 69.7089 67.132L69.2049 66.446C68.6729 66.992 67.8889 67.3 67.1189 67.3C65.6629 67.3 64.7669 66.236 64.6829 64.962H70.1569V64.696C70.1569 62.666 68.9529 61.07 66.9089 61.07C64.9769 61.07 63.5769 62.652 63.5769 64.612C63.5769 66.726 65.0189 68.168 67.0209 68.168ZM69.1209 64.192H64.6829C64.7389 63.156 65.4529 61.938 66.8949 61.938C68.4349 61.938 69.1069 63.184 69.1209 64.192Z" fill="#656564"/>
<defs>
<linearGradient id="paint0_linear" x1="36" y1="0" x2="36" y2="44" gradientUnits="userSpaceOnUse">
<stop stop-color="#7CA9ED"/>
<stop offset="1" stop-color="#659BEC"/>
</linearGradient>
</defs>
</svg>
