<svg width="59" height="78" viewBox="0 0 59 78" fill="none" xmlns="http://www.w3.org/2000/svg">
<circle cx="30" cy="22" r="22" fill="url(#paint0_linear)"/>
<path d="M44.1872 25.1776L42.5953 16.5321C42.2185 14.4854 40.438 13 38.3618 13H35.438C35.239 13 35.0466 13.0717 34.8962 13.2018L33.2141 14.6568H27.0557L25.3737 13.2018C25.2232 13.0716 25.0308 13 24.8318 13H21.9081C19.8318 13 18.0513 14.4854 17.6745 16.5321L16.0826 25.1776C15.5966 27.8168 17.304 30.358 19.9278 30.8976C21.7678 31.2758 23.6295 30.5894 24.7864 29.1061L26.6048 26.7747H33.6651L35.4835 29.1061C36.6334 30.5804 38.4907 31.2781 40.3421 30.8976C42.9598 30.3593 44.6742 27.8224 44.1872 25.1776ZM40.0085 29.2752C38.79 29.5258 37.5564 29.0707 36.7896 28.0875L34.7225 25.4373C34.5656 25.2361 34.3246 25.1184 34.0694 25.1184H26.2004C25.9452 25.1184 25.7042 25.2361 25.5473 25.4373L23.4802 28.0875C22.7134 29.0707 21.4799 29.5258 20.2613 29.2752C18.5229 28.9178 17.3886 27.2315 17.7116 25.4776L19.3035 16.832C19.5356 15.5712 20.631 14.6562 21.908 14.6562H24.5233L26.2053 16.1112C26.3558 16.2414 26.5481 16.313 26.7471 16.313H33.5225C33.7215 16.313 33.9139 16.2413 34.0643 16.1112L35.7464 14.6562H38.3616C39.6387 14.6562 40.734 15.5712 40.9662 16.832L42.5582 25.4775C42.8809 27.2299 41.7485 28.9175 40.0085 29.2752Z" fill="white"/>
<path d="M25.2098 19.8915H24.0098V18.6916C24.0098 18.2342 23.639 17.8635 23.1816 17.8635C22.7242 17.8635 22.3533 18.2342 22.3533 18.6916V19.8915H21.1534C20.696 19.8915 20.3252 20.2623 20.3252 20.7196C20.3252 21.177 20.696 21.5477 21.1534 21.5477H22.3534V22.7476C22.3534 23.2049 22.7242 23.5757 23.1816 23.5757C23.639 23.5757 24.0098 23.2049 24.0098 22.7476V21.5478H25.2098C25.6672 21.5478 26.038 21.177 26.038 20.7197C26.038 20.2623 25.6672 19.8915 25.2098 19.8915Z" fill="white"/>
<path d="M37.3883 17.5738C35.6535 17.5738 34.2422 18.985 34.2422 20.7197C34.2422 22.4543 35.6535 23.8656 37.3883 23.8656C39.1231 23.8656 40.5344 22.4543 40.5344 20.7197C40.5344 18.985 39.1231 17.5738 37.3883 17.5738ZM37.3883 22.2092C36.5669 22.2092 35.8986 21.541 35.8986 20.7196C35.8986 19.8983 36.5669 19.23 37.3883 19.23C38.2097 19.23 38.878 19.8983 38.878 20.7196C38.878 21.541 38.2097 22.2092 37.3883 22.2092Z" fill="white"/>
<path d="M5.88807 68.168C7.54007 68.168 8.66007 67.384 9.44407 66.32L8.45007 65.774C7.91807 66.572 6.95207 67.132 5.88807 67.132C3.84407 67.132 2.29007 65.55 2.29007 63.338C2.29007 61.112 3.84407 59.544 5.88807 59.544C6.95207 59.544 7.91807 60.118 8.45007 60.902L9.43007 60.356C8.68807 59.306 7.54007 58.508 5.88807 58.508C3.20007 58.508 1.08607 60.468 1.08607 63.338C1.08607 66.208 3.20007 68.168 5.88807 68.168ZM16.511 68V63.226C16.511 61.756 15.769 61.07 14.355 61.07C13.333 61.07 12.409 61.658 11.933 62.218V58.662H10.883V68H11.933V63.058C12.339 62.512 13.123 62.008 13.935 62.008C14.845 62.008 15.461 62.358 15.461 63.548V68H16.511ZM19.1256 60.272C19.5176 60.272 19.8396 59.964 19.8396 59.572C19.8396 59.18 19.5176 58.858 19.1256 58.858C18.7476 58.858 18.4256 59.18 18.4256 59.572C18.4256 59.964 18.7476 60.272 19.1256 60.272ZM19.6576 68V61.238H18.6076V68H19.6576ZM22.8021 68V58.662H21.7521V68H22.8021ZM30.8467 68V58.662H29.7967V62.26C29.2507 61.518 28.4247 61.07 27.5147 61.07C25.7367 61.07 24.5047 62.47 24.5047 64.626C24.5047 66.824 25.7507 68.168 27.5147 68.168C28.4667 68.168 29.2927 67.678 29.7967 66.992V68H30.8467ZM27.7667 67.23C26.4087 67.23 25.5967 66.124 25.5967 64.626C25.5967 63.128 26.4087 62.008 27.7667 62.008C28.6067 62.008 29.4187 62.512 29.7967 63.1V66.166C29.4187 66.754 28.6067 67.23 27.7667 67.23ZM37.7628 68V63.744H42.6208V62.708H37.7628V59.698H42.7188V58.662H36.6008V68H37.7628ZM49.8701 68V61.238H48.8201V66.208C48.4281 66.754 47.6441 67.23 46.8181 67.23C45.9081 67.23 45.3061 66.88 45.3061 65.69V61.238H44.2561V66.012C44.2561 67.482 44.9981 68.168 46.4121 68.168C47.4201 68.168 48.3021 67.636 48.8201 67.048V68H49.8701ZM57.581 68V63.254C57.581 61.784 56.839 61.07 55.425 61.07C54.417 61.07 53.493 61.658 53.017 62.218V61.238H51.967V68H53.017V63.058C53.409 62.512 54.193 62.008 55.019 62.008C55.929 62.008 56.531 62.386 56.531 63.576V68H57.581Z" fill="#656564"/>
<defs>
<linearGradient id="paint0_linear" x1="30" y1="0" x2="30" y2="44" gradientUnits="userSpaceOnUse">
<stop stop-color="#7CA9ED"/>
<stop offset="1" stop-color="#659BEC"/>
</linearGradient>
</defs>
</svg>
