<svg width="44" height="78" viewBox="0 0 44 78" fill="none" xmlns="http://www.w3.org/2000/svg">
<circle cx="22" cy="22" r="22" fill="url(#paint0_linear)"/>
<path d="M35.2518 25.9128C35.3008 21.592 33.1255 17.5757 29.4015 15.3007C28.1345 14.5272 26.7625 14.0285 25.3608 13.752C25.5252 13.409 25.625 13.0292 25.625 12.625C25.625 11.1777 24.4473 10 23 10C21.5527 10 20.375 11.1777 20.375 12.625C20.375 13.0292 20.4748 13.409 20.6392 13.752C19.2375 14.0285 17.8655 14.5255 16.5985 15.299C12.8745 17.574 10.6992 21.5903 10.7483 25.911C9.73325 26.275 9 27.2358 9 28.375C9 29.8223 10.1777 31 11.625 31H34.375C35.8223 31 37 29.8223 37 28.375C37 27.2358 36.2668 26.275 35.2518 25.9128ZM23 11.75C23.4812 11.75 23.875 12.1437 23.875 12.625C23.875 13.0975 23.497 13.479 23.028 13.4948C23.0087 13.4948 22.9895 13.4948 22.972 13.4948C22.503 13.479 22.125 13.0975 22.125 12.625C22.125 12.1437 22.5188 11.75 23 11.75ZM17.5103 16.7935C19.1902 15.768 21.0715 15.2535 22.9545 15.2465C22.9703 15.2448 22.9843 15.25 23 15.25C23.0157 15.25 23.0297 15.2465 23.0455 15.2448C24.9285 15.2535 26.8097 15.7663 28.488 16.7917C31.6415 18.7185 33.5 22.0995 33.5053 25.75H12.4948C12.5 22.0995 14.3585 18.7185 17.5103 16.7935ZM34.375 29.25H11.625C11.1437 29.25 10.75 28.8563 10.75 28.375C10.75 27.8937 11.1437 27.5 11.625 27.5H34.375C34.8563 27.5 35.25 27.8937 35.25 28.375C35.25 28.8563 34.8563 29.25 34.375 29.25Z" fill="white"/>
<path d="M29.5152 19.9103C27.8562 18.0605 25.4833 17 23 17C22.517 17 22.125 17.392 22.125 17.875C22.125 18.358 22.517 18.75 23 18.75C24.9862 18.75 26.8868 19.5988 28.2133 21.0793C28.3865 21.2718 28.6245 21.3697 28.8642 21.3697C29.0725 21.3697 29.2808 21.2963 29.4488 21.1458C29.8075 20.822 29.839 20.2708 29.5152 19.9103Z" fill="white"/>
<path d="M9.36728 68V63.744H14.2253V62.708H9.36728V59.698H14.3233V58.662H8.20528V68H9.36728ZM18.8145 68.168C20.8725 68.168 22.1605 66.572 22.1605 64.612C22.1605 62.652 20.8725 61.07 18.8145 61.07C16.7565 61.07 15.4685 62.652 15.4685 64.612C15.4685 66.572 16.7565 68.168 18.8145 68.168ZM18.8145 67.23C17.3725 67.23 16.5605 65.998 16.5605 64.612C16.5605 63.24 17.3725 62.008 18.8145 62.008C20.2565 62.008 21.0545 63.24 21.0545 64.612C21.0545 65.998 20.2565 67.23 18.8145 67.23ZM26.8263 68.168C28.8843 68.168 30.1723 66.572 30.1723 64.612C30.1723 62.652 28.8843 61.07 26.8263 61.07C24.7683 61.07 23.4803 62.652 23.4803 64.612C23.4803 66.572 24.7683 68.168 26.8263 68.168ZM26.8263 67.23C25.3843 67.23 24.5723 65.998 24.5723 64.612C24.5723 63.24 25.3843 62.008 26.8263 62.008C28.2683 62.008 29.0663 63.24 29.0663 64.612C29.0663 65.998 28.2683 67.23 26.8263 67.23ZM37.834 68V58.662H36.784V62.26C36.238 61.518 35.412 61.07 34.502 61.07C32.724 61.07 31.492 62.47 31.492 64.626C31.492 66.824 32.738 68.168 34.502 68.168C35.454 68.168 36.28 67.678 36.784 66.992V68H37.834ZM34.754 67.23C33.396 67.23 32.584 66.124 32.584 64.626C32.584 63.128 33.396 62.008 34.754 62.008C35.594 62.008 36.406 62.512 36.784 63.1V66.166C36.406 66.754 35.594 67.23 34.754 67.23Z" fill="#656564"/>
<defs>
<linearGradient id="paint0_linear" x1="22" y1="0" x2="22" y2="44" gradientUnits="userSpaceOnUse">
<stop stop-color="#7CA9ED"/>
<stop offset="1" stop-color="#659BEC"/>
</linearGradient>
</defs>
</svg>
