<svg width="138" height="145" viewBox="0 0 138 145" fill="none" xmlns="http://www.w3.org/2000/svg">
<rect width="138" height="145" rx="6" fill="white"/>
<path d="M0 103H138V139C138 142.314 135.314 145 132 145H6C2.68629 145 0 142.314 0 139V103Z" fill="#3277DE"/>
<path d="M27.394 129L23.726 119.662H21.682L18.014 129H19.876L20.562 127.208H24.846L25.532 129H27.394ZM24.384 125.766H21.024L22.704 121.314L24.384 125.766ZM31.4519 129.168C32.7679 129.168 33.5659 128.608 34.0419 127.964L33.0759 127.068C32.6979 127.586 32.1799 127.866 31.5219 127.866C30.2899 127.866 29.4779 126.928 29.4779 125.612C29.4779 124.296 30.2899 123.372 31.5219 123.372C32.1799 123.372 32.6979 123.638 33.0759 124.17L34.0419 123.274C33.5659 122.63 32.7679 122.07 31.4519 122.07C29.3939 122.07 27.9519 123.568 27.9519 125.612C27.9519 127.67 29.3939 129.168 31.4519 129.168ZM37.3609 129.168C38.0469 129.168 38.4809 128.986 38.7469 128.734L38.3969 127.628C38.2849 127.754 38.0189 127.866 37.7389 127.866C37.3189 127.866 37.0949 127.53 37.0949 127.068V123.526H38.4669V122.238H37.0949V120.39H35.6249V122.238H34.5049V123.526H35.6249V127.432C35.6249 128.552 36.2269 129.168 37.3609 129.168ZM40.5296 121.412C41.0336 121.412 41.4396 121.006 41.4396 120.502C41.4396 119.998 41.0336 119.592 40.5296 119.592C40.0396 119.592 39.6196 119.998 39.6196 120.502C39.6196 121.006 40.0396 121.412 40.5296 121.412ZM41.2716 129V122.238H39.8016V129H41.2716ZM46.5386 129L49.2966 122.238H47.7146L45.7406 127.306L43.7666 122.238H42.1986L44.9566 129H46.5386ZM53.3416 129.168C54.4196 129.168 55.4136 128.832 56.0856 128.188L55.4136 127.222C54.9376 127.698 54.1536 127.964 53.4956 127.964C52.2216 127.964 51.4516 127.124 51.3396 126.102H56.5616V125.752C56.5616 123.624 55.2596 122.07 53.2296 122.07C51.2276 122.07 49.7996 123.652 49.7996 125.612C49.7996 127.754 51.3116 129.168 53.3416 129.168ZM55.1336 125.066H51.3256C51.3956 124.24 51.9696 123.274 53.2296 123.274C54.5596 123.274 55.1056 124.268 55.1336 125.066ZM66.3823 129L70.0503 119.662H68.1883L65.3603 127.222L62.5323 119.662H60.6703L64.3383 129H66.3823ZM73.2462 129.168C75.4162 129.168 76.7322 127.558 76.7322 125.612C76.7322 123.68 75.4162 122.07 73.2462 122.07C71.1042 122.07 69.7742 123.68 69.7742 125.612C69.7742 127.558 71.1042 129.168 73.2462 129.168ZM73.2462 127.866C72.0002 127.866 71.3002 126.816 71.3002 125.612C71.3002 124.422 72.0002 123.372 73.2462 123.372C74.5062 123.372 75.2062 124.422 75.2062 125.612C75.2062 126.816 74.5062 127.866 73.2462 127.866ZM84.2536 129V122.238H82.7836V126.984C82.4336 127.446 81.7896 127.866 81.0476 127.866C80.2216 127.866 79.6896 127.544 79.6896 126.494V122.238H78.2196V127.026C78.2196 128.412 78.9336 129.168 80.3896 129.168C81.4536 129.168 82.2936 128.65 82.7836 128.104V129H84.2536ZM89.2429 129.168C90.5589 129.168 91.3569 128.608 91.8329 127.964L90.8669 127.068C90.4889 127.586 89.9709 127.866 89.3129 127.866C88.0809 127.866 87.2689 126.928 87.2689 125.612C87.2689 124.296 88.0809 123.372 89.3129 123.372C89.9709 123.372 90.4889 123.638 90.8669 124.17L91.8329 123.274C91.3569 122.63 90.5589 122.07 89.2429 122.07C87.1849 122.07 85.7429 123.568 85.7429 125.612C85.7429 127.67 87.1849 129.168 89.2429 129.168ZM99.1699 129V124.212C99.1699 122.826 98.4419 122.07 96.9859 122.07C95.9219 122.07 95.0399 122.63 94.5919 123.162V119.662H93.1219V129H94.5919V124.282C94.9419 123.82 95.5859 123.372 96.3279 123.372C97.1539 123.372 97.6999 123.694 97.6999 124.744V129H99.1699ZM104.201 129.168C105.279 129.168 106.273 128.832 106.945 128.188L106.273 127.222C105.797 127.698 105.013 127.964 104.355 127.964C103.081 127.964 102.311 127.124 102.199 126.102H107.421V125.752C107.421 123.624 106.119 122.07 104.089 122.07C102.087 122.07 100.659 123.652 100.659 125.612C100.659 127.754 102.171 129.168 104.201 129.168ZM105.993 125.066H102.185C102.255 124.24 102.829 123.274 104.089 123.274C105.419 123.274 105.965 124.268 105.993 125.066ZM110.342 129V124.394C110.636 123.918 111.462 123.498 112.078 123.498C112.26 123.498 112.414 123.512 112.54 123.54V122.084C111.658 122.084 110.846 122.588 110.342 123.232V122.238H108.872V129H110.342ZM116.035 129.168C117.855 129.168 118.849 128.258 118.849 127.068C118.849 124.38 114.761 125.276 114.761 124.072C114.761 123.596 115.251 123.246 116.021 123.246C116.861 123.246 117.617 123.596 118.023 124.058L118.639 123.022C118.023 122.476 117.155 122.07 116.007 122.07C114.299 122.07 113.347 123.022 113.347 124.128C113.347 126.718 117.435 125.766 117.435 127.096C117.435 127.628 116.987 128.006 116.105 128.006C115.223 128.006 114.285 127.544 113.809 127.054L113.137 128.118C113.837 128.804 114.887 129.168 116.035 129.168Z" fill="white"/>
</svg>
