<svg width="138" height="145" viewBox="0 0 138 145" fill="none" xmlns="http://www.w3.org/2000/svg">
<rect width="138" height="145" rx="6" fill="white"/>
<path d="M0 103H138V139C138 142.314 135.314 145 132 145H6C2.68629 145 0 142.314 0 139V103Z" fill="#3277DE"/>
<path d="M27.218 129L24.936 125.332C26.056 125.15 27.148 124.254 27.148 122.588C27.148 120.866 25.944 119.662 24.096 119.662H19.994V129H21.632V125.514H23.256L25.328 129H27.218ZM23.872 124.072H21.632V121.104H23.872C24.796 121.104 25.468 121.692 25.468 122.588C25.468 123.484 24.796 124.072 23.872 124.072ZM31.4412 129.168C32.5192 129.168 33.5132 128.832 34.1852 128.188L33.5132 127.222C33.0372 127.698 32.2532 127.964 31.5952 127.964C30.3212 127.964 29.5512 127.124 29.4392 126.102H34.6612V125.752C34.6612 123.624 33.3592 122.07 31.3292 122.07C29.3272 122.07 27.8992 123.652 27.8992 125.612C27.8992 127.754 29.4112 129.168 31.4412 129.168ZM33.2332 125.066H29.4252C29.4952 124.24 30.0692 123.274 31.3292 123.274C32.6592 123.274 33.2052 124.268 33.2332 125.066ZM43.5462 129L45.6462 122.238H44.1202L42.6922 127.152L41.0822 122.238H39.7942L38.1842 127.152L36.7562 122.238H35.2302L37.3302 129H38.8702L40.4382 124.044L42.0062 129H43.5462ZM52.2668 129V124.52C52.2668 122.7 50.9508 122.07 49.4528 122.07C48.3748 122.07 47.3948 122.42 46.6108 123.162L47.2128 124.184C47.8008 123.61 48.4588 123.33 49.2148 123.33C50.1528 123.33 50.7968 123.806 50.7968 124.59V125.598C50.3068 125.024 49.5228 124.73 48.6128 124.73C47.5068 124.73 46.2608 125.374 46.2608 126.928C46.2608 128.426 47.5068 129.168 48.6128 129.168C49.5088 129.168 50.2928 128.846 50.7968 128.272V129H52.2668ZM49.1868 128.16C48.3608 128.16 47.7448 127.684 47.7448 126.956C47.7448 126.214 48.3608 125.738 49.1868 125.738C49.8308 125.738 50.4608 125.976 50.7968 126.438V127.46C50.4608 127.922 49.8308 128.16 49.1868 128.16ZM55.6427 129V124.394C55.9367 123.918 56.7627 123.498 57.3787 123.498C57.5607 123.498 57.7147 123.512 57.8407 123.54V122.084C56.9587 122.084 56.1467 122.588 55.6427 123.232V122.238H54.1727V129H55.6427ZM65.2562 129V119.662H63.7862V123.176C63.2402 122.462 62.4562 122.07 61.6162 122.07C59.8662 122.07 58.6062 123.442 58.6062 125.626C58.6062 127.852 59.8802 129.168 61.6162 129.168C62.4842 129.168 63.2682 128.748 63.7862 128.076V129H65.2562ZM62.0362 127.866C60.8742 127.866 60.1322 126.928 60.1322 125.626C60.1322 124.31 60.8742 123.372 62.0362 123.372C62.7362 123.372 63.4502 123.778 63.7862 124.282V126.97C63.4502 127.474 62.7362 127.866 62.0362 127.866ZM75.5167 129C77.2667 129 78.2327 127.922 78.2327 126.48C78.2327 125.332 77.4207 124.338 76.4267 124.184C77.2947 124.002 78.0507 123.218 78.0507 122.042C78.0507 120.726 77.0987 119.662 75.3907 119.662H70.7987V129H75.5167ZM75.0547 123.526H72.4367V121.104H75.0547C75.8947 121.104 76.3707 121.622 76.3707 122.322C76.3707 123.022 75.8947 123.526 75.0547 123.526ZM75.1247 127.558H72.4367V124.968H75.1247C76.0627 124.968 76.5527 125.556 76.5527 126.256C76.5527 127.068 76.0207 127.558 75.1247 127.558ZM85.4348 129V124.52C85.4348 122.7 84.1188 122.07 82.6208 122.07C81.5428 122.07 80.5628 122.42 79.7788 123.162L80.3808 124.184C80.9688 123.61 81.6268 123.33 82.3828 123.33C83.3208 123.33 83.9648 123.806 83.9648 124.59V125.598C83.4748 125.024 82.6908 124.73 81.7808 124.73C80.6748 124.73 79.4288 125.374 79.4288 126.928C79.4288 128.426 80.6748 129.168 81.7808 129.168C82.6768 129.168 83.4608 128.846 83.9648 128.272V129H85.4348ZM82.3548 128.16C81.5288 128.16 80.9128 127.684 80.9128 126.956C80.9128 126.214 81.5288 125.738 82.3548 125.738C82.9988 125.738 83.6288 125.976 83.9648 126.438V127.46C83.6288 127.922 82.9988 128.16 82.3548 128.16ZM88.8107 129V119.662H87.3407V129H88.8107ZM96.3176 129V124.52C96.3176 122.7 95.0016 122.07 93.5036 122.07C92.4256 122.07 91.4456 122.42 90.6616 123.162L91.2636 124.184C91.8516 123.61 92.5096 123.33 93.2656 123.33C94.2036 123.33 94.8476 123.806 94.8476 124.59V125.598C94.3576 125.024 93.5736 124.73 92.6636 124.73C91.5576 124.73 90.3116 125.374 90.3116 126.928C90.3116 128.426 91.5576 129.168 92.6636 129.168C93.5596 129.168 94.3436 128.846 94.8476 128.272V129H96.3176ZM93.2376 128.16C92.4116 128.16 91.7956 127.684 91.7956 126.956C91.7956 126.214 92.4116 125.738 93.2376 125.738C93.8816 125.738 94.5116 125.976 94.8476 126.438V127.46C94.5116 127.922 93.8816 128.16 93.2376 128.16ZM104.257 129V124.24C104.257 122.854 103.529 122.07 102.073 122.07C101.009 122.07 100.141 122.63 99.6935 123.162V122.238H98.2235V129H99.6935V124.282C100.029 123.82 100.673 123.372 101.429 123.372C102.255 123.372 102.787 123.722 102.787 124.772V129H104.257ZM109.247 129.168C110.563 129.168 111.361 128.608 111.837 127.964L110.871 127.068C110.493 127.586 109.975 127.866 109.317 127.866C108.085 127.866 107.273 126.928 107.273 125.612C107.273 124.296 108.085 123.372 109.317 123.372C109.975 123.372 110.493 123.638 110.871 124.17L111.837 123.274C111.361 122.63 110.563 122.07 109.247 122.07C107.189 122.07 105.747 123.568 105.747 125.612C105.747 127.67 107.189 129.168 109.247 129.168ZM116.248 129.168C117.326 129.168 118.32 128.832 118.992 128.188L118.32 127.222C117.844 127.698 117.06 127.964 116.402 127.964C115.128 127.964 114.358 127.124 114.246 126.102H119.468V125.752C119.468 123.624 118.166 122.07 116.136 122.07C114.134 122.07 112.706 123.652 112.706 125.612C112.706 127.754 114.218 129.168 116.248 129.168ZM118.04 125.066H114.232C114.302 124.24 114.876 123.274 116.136 123.274C117.466 123.274 118.012 124.268 118.04 125.066Z" fill="white"/>
</svg>
