<svg width="355" height="240" viewBox="0 0 355 240" fill="none" xmlns="http://www.w3.org/2000/svg" xmlns:xlink="http://www.w3.org/1999/xlink">
<path d="M12 16C12 9.37259 17.3726 4 24 4H331C337.627 4 343 9.37258 343 16V208C343 214.627 337.627 220 331 220H24C17.3726 220 12 214.627 12 208V16Z" fill="white"/>

<g mask="url(#mask0)">
<rect x="-10" y="-2" width="376" height="252" fill="url(#pattern0)"/>
<rect x="-12" y="-3" width="380" height="230" fill="url(#paint0_linear)" fill-opacity="0.7"/>
</g>
<path d="M65.805 195L63.36 191.07C64.56 190.875 65.73 189.915 65.73 188.13C65.73 186.285 64.44 184.995 62.46 184.995H58.065V195H59.82V191.265H61.56L63.78 195H65.805ZM62.22 189.72H59.82V186.54H62.22C63.21 186.54 63.93 187.17 63.93 188.13C63.93 189.09 63.21 189.72 62.22 189.72ZM69.7675 195.18C71.7175 195.18 72.7825 194.205 72.7825 192.93C72.7825 190.05 68.4025 191.01 68.4025 189.72C68.4025 189.21 68.9275 188.835 69.7525 188.835C70.6525 188.835 71.4625 189.21 71.8975 189.705L72.5575 188.595C71.8975 188.01 70.9675 187.575 69.7375 187.575C67.9075 187.575 66.8875 188.595 66.8875 189.78C66.8875 192.555 71.2675 191.535 71.2675 192.96C71.2675 193.53 70.7875 193.935 69.8425 193.935C68.8975 193.935 67.8925 193.44 67.3825 192.915L66.6625 194.055C67.4125 194.79 68.5375 195.18 69.7675 195.18ZM75.1777 195.165C75.7477 195.165 76.2277 194.685 76.2277 194.115C76.2277 193.545 75.7477 193.065 75.1777 193.065C74.6077 193.065 74.1277 193.545 74.1277 194.115C74.1277 194.685 74.6077 195.165 75.1777 195.165ZM85.437 195.18C87.672 195.18 89.247 193.875 89.247 191.79C89.247 189.75 87.732 188.565 86.052 188.565C85.092 188.565 84.267 188.955 83.787 189.435V186.54H88.587V184.995H82.032V190.59L83.277 190.95C83.907 190.35 84.612 190.08 85.467 190.08C86.697 190.08 87.477 190.785 87.477 191.865C87.477 192.84 86.682 193.62 85.422 193.62C84.297 193.62 83.397 193.2 82.722 192.435L81.717 193.635C82.527 194.595 83.712 195.18 85.437 195.18ZM94.4911 195.18C97.2961 195.18 98.4961 192.525 98.4961 190.005C98.4961 187.485 97.2961 184.845 94.4911 184.845C91.6861 184.845 90.4861 187.485 90.4861 190.005C90.4861 192.525 91.6861 195.18 94.4911 195.18ZM94.4911 193.62C92.8561 193.62 92.2711 191.91 92.2711 190.005C92.2711 188.1 92.8561 186.405 94.4911 186.405C96.1261 186.405 96.7111 188.1 96.7111 190.005C96.7111 191.91 96.1261 193.62 94.4911 193.62ZM100.284 195.3L103.839 184.695H102.669L99.1143 195.3H100.284ZM107.896 192.045V190.695H104.296V192.045H107.896ZM116.485 195.18C118.81 195.18 120.22 193.455 120.22 191.37C120.22 189.3 118.81 187.575 116.485 187.575C114.19 187.575 112.765 189.3 112.765 191.37C112.765 193.455 114.19 195.18 116.485 195.18ZM116.485 193.785C115.15 193.785 114.4 192.66 114.4 191.37C114.4 190.095 115.15 188.97 116.485 188.97C117.835 188.97 118.585 190.095 118.585 191.37C118.585 192.66 117.835 193.785 116.485 193.785ZM123.764 195V189.135H125.234V187.755H123.764V187.35C123.764 186.54 124.154 186.135 124.769 186.135C125.129 186.135 125.399 186.255 125.609 186.45L126.224 185.475C125.774 185.01 125.129 184.845 124.484 184.845C123.104 184.845 122.189 185.775 122.189 187.35V187.755H120.989V189.135H122.189V195H123.764ZM128.384 195V189.135H129.854V187.755H128.384V187.35C128.384 186.54 128.774 186.135 129.389 186.135C129.749 186.135 130.019 186.255 130.229 186.45L130.844 185.475C130.394 185.01 129.749 184.845 129.104 184.845C127.724 184.845 126.809 185.775 126.809 187.35V187.755H125.609V189.135H126.809V195H128.384ZM138.194 195.18C140.519 195.18 141.929 193.455 141.929 191.37C141.929 189.3 140.519 187.575 138.194 187.575C135.899 187.575 134.474 189.3 134.474 191.37C134.474 193.455 135.899 195.18 138.194 195.18ZM138.194 193.785C136.859 193.785 136.109 192.66 136.109 191.37C136.109 190.095 136.859 188.97 138.194 188.97C139.544 188.97 140.294 190.095 140.294 191.37C140.294 192.66 139.544 193.785 138.194 193.785ZM149.988 195V189.9C149.988 188.415 149.208 187.575 147.648 187.575C146.508 187.575 145.578 188.175 145.098 188.745V187.755H143.523V195H145.098V189.945C145.458 189.45 146.148 188.97 146.958 188.97C147.843 188.97 148.413 189.345 148.413 190.47V195H149.988ZM159.786 195.18C161.661 195.18 162.996 193.755 162.996 191.37C162.996 188.985 161.661 187.575 159.786 187.575C158.841 187.575 158.001 188.025 157.461 188.745V187.755H155.886V197.76H157.461V193.995C158.046 194.775 158.871 195.18 159.786 195.18ZM159.321 193.785C158.586 193.785 157.806 193.335 157.461 192.81V189.945C157.806 189.405 158.586 188.97 159.321 188.97C160.566 188.97 161.361 189.975 161.361 191.37C161.361 192.78 160.566 193.785 159.321 193.785ZM171.023 195V187.755H169.448V192.84C169.073 193.335 168.383 193.785 167.588 193.785C166.703 193.785 166.133 193.44 166.133 192.315V187.755H164.558V192.885C164.558 194.37 165.323 195.18 166.883 195.18C168.023 195.18 168.923 194.625 169.448 194.04V195H171.023ZM174.644 195V190.065C174.959 189.555 175.844 189.105 176.504 189.105C176.699 189.105 176.864 189.12 176.999 189.15V187.59C176.054 187.59 175.184 188.13 174.644 188.82V187.755H173.069V195H174.644ZM181.569 195.18C182.979 195.18 183.834 194.58 184.344 193.89L183.309 192.93C182.904 193.485 182.349 193.785 181.644 193.785C180.324 193.785 179.454 192.78 179.454 191.37C179.454 189.96 180.324 188.97 181.644 188.97C182.349 188.97 182.904 189.255 183.309 189.825L184.344 188.865C183.834 188.175 182.979 187.575 181.569 187.575C179.364 187.575 177.819 189.18 177.819 191.37C177.819 193.575 179.364 195.18 181.569 195.18ZM192.205 195V189.87C192.205 188.385 191.425 187.575 189.865 187.575C188.725 187.575 187.78 188.175 187.3 188.745V184.995H185.725V195H187.3V189.945C187.675 189.45 188.365 188.97 189.16 188.97C190.045 188.97 190.63 189.315 190.63 190.44V195H192.205ZM200.25 195V190.2C200.25 188.25 198.84 187.575 197.235 187.575C196.08 187.575 195.03 187.95 194.19 188.745L194.835 189.84C195.465 189.225 196.17 188.925 196.98 188.925C197.985 188.925 198.675 189.435 198.675 190.275V191.355C198.15 190.74 197.31 190.425 196.335 190.425C195.15 190.425 193.815 191.115 193.815 192.78C193.815 194.385 195.15 195.18 196.335 195.18C197.295 195.18 198.135 194.835 198.675 194.22V195H200.25ZM196.95 194.1C196.065 194.1 195.405 193.59 195.405 192.81C195.405 192.015 196.065 191.505 196.95 191.505C197.64 191.505 198.315 191.76 198.675 192.255V193.35C198.315 193.845 197.64 194.1 196.95 194.1ZM204.767 195.18C206.717 195.18 207.782 194.205 207.782 192.93C207.782 190.05 203.402 191.01 203.402 189.72C203.402 189.21 203.927 188.835 204.752 188.835C205.652 188.835 206.462 189.21 206.897 189.705L207.557 188.595C206.897 188.01 205.967 187.575 204.737 187.575C202.907 187.575 201.887 188.595 201.887 189.78C201.887 192.555 206.267 191.535 206.267 192.96C206.267 193.53 205.787 193.935 204.842 193.935C203.897 193.935 202.892 193.44 202.382 192.915L201.662 194.055C202.412 194.79 203.537 195.18 204.767 195.18ZM212.713 195.18C213.868 195.18 214.933 194.82 215.653 194.13L214.933 193.095C214.423 193.605 213.583 193.89 212.878 193.89C211.513 193.89 210.688 192.99 210.568 191.895H216.163V191.52C216.163 189.24 214.768 187.575 212.593 187.575C210.448 187.575 208.918 189.27 208.918 191.37C208.918 193.665 210.538 195.18 212.713 195.18ZM214.633 190.785H210.553C210.628 189.9 211.243 188.865 212.593 188.865C214.018 188.865 214.603 189.93 214.633 190.785ZM224.84 195.18C227.165 195.18 228.575 193.455 228.575 191.37C228.575 189.3 227.165 187.575 224.84 187.575C222.545 187.575 221.12 189.3 221.12 191.37C221.12 193.455 222.545 195.18 224.84 195.18ZM224.84 193.785C223.505 193.785 222.755 192.66 222.755 191.37C222.755 190.095 223.505 188.97 224.84 188.97C226.19 188.97 226.94 190.095 226.94 191.37C226.94 192.66 226.19 193.785 224.84 193.785ZM232.118 195V189.135H233.588V187.755H232.118V187.35C232.118 186.54 232.508 186.135 233.123 186.135C233.483 186.135 233.753 186.255 233.963 186.45L234.578 185.475C234.128 185.01 233.483 184.845 232.838 184.845C231.458 184.845 230.543 185.775 230.543 187.35V187.755H229.343V189.135H230.543V195H232.118ZM246.42 195L243.975 191.07C245.175 190.875 246.345 189.915 246.345 188.13C246.345 186.285 245.055 184.995 243.075 184.995H238.68V195H240.435V191.265H242.175L244.395 195H246.42ZM242.835 189.72H240.435V186.54H242.835C243.825 186.54 244.545 187.17 244.545 188.13C244.545 189.09 243.825 189.72 242.835 189.72ZM250.383 195.18C252.333 195.18 253.398 194.205 253.398 192.93C253.398 190.05 249.018 191.01 249.018 189.72C249.018 189.21 249.543 188.835 250.368 188.835C251.268 188.835 252.078 189.21 252.513 189.705L253.173 188.595C252.513 188.01 251.583 187.575 250.353 187.575C248.523 187.575 247.503 188.595 247.503 189.78C247.503 192.555 251.883 191.535 251.883 192.96C251.883 193.53 251.403 193.935 250.458 193.935C249.513 193.935 248.508 193.44 247.998 192.915L247.278 194.055C248.028 194.79 249.153 195.18 250.383 195.18ZM255.793 195.165C256.363 195.165 256.843 194.685 256.843 194.115C256.843 193.545 256.363 193.065 255.793 193.065C255.223 193.065 254.743 193.545 254.743 194.115C254.743 194.685 255.223 195.165 255.793 195.165ZM266.052 195.18C268.287 195.18 269.862 193.875 269.862 191.79C269.862 189.75 268.347 188.565 266.667 188.565C265.707 188.565 264.882 188.955 264.402 189.435V186.54H269.202V184.995H262.647V190.59L263.892 190.95C264.522 190.35 265.227 190.08 266.082 190.08C267.312 190.08 268.092 190.785 268.092 191.865C268.092 192.84 267.297 193.62 266.037 193.62C264.912 193.62 264.012 193.2 263.337 192.435L262.332 193.635C263.142 194.595 264.327 195.18 266.052 195.18ZM275.106 195.18C277.911 195.18 279.111 192.525 279.111 190.005C279.111 187.485 277.911 184.845 275.106 184.845C272.301 184.845 271.101 187.485 271.101 190.005C271.101 192.525 272.301 195.18 275.106 195.18ZM275.106 193.62C273.471 193.62 272.886 191.91 272.886 190.005C272.886 188.1 273.471 186.405 275.106 186.405C276.741 186.405 277.326 188.1 277.326 190.005C277.326 191.91 276.741 193.62 275.106 193.62ZM284.349 195.18C287.154 195.18 288.354 192.525 288.354 190.005C288.354 187.485 287.154 184.845 284.349 184.845C281.544 184.845 280.344 187.485 280.344 190.005C280.344 192.525 281.544 195.18 284.349 195.18ZM284.349 193.62C282.714 193.62 282.129 191.91 282.129 190.005C282.129 188.1 282.714 186.405 284.349 186.405C285.984 186.405 286.569 188.1 286.569 190.005C286.569 191.91 285.984 193.62 284.349 193.62ZM290.143 195.3L293.698 184.695H292.528L288.973 195.3H290.143ZM297.754 192.045V190.695H294.154V192.045H297.754Z" fill="white"/>
<path d="M330.5 4H271L342.974 75.2994L343 14.4621C341.5 6 334.5 4 330.5 4Z" fill="#137AA7"/>
<path d="M111.94 176C115.684 176 118.294 173.624 118.294 169.988C118.294 166.388 115.684 163.994 111.922 163.994H107.188V176H111.94ZM111.922 173.75H109.744V166.244H111.94C114.388 166.244 115.684 167.882 115.684 169.988C115.684 172.04 114.298 173.75 111.922 173.75ZM125.814 176.216C129.432 176.216 132.078 173.624 132.078 170.006C132.078 166.388 129.432 163.796 125.814 163.796C122.178 163.796 119.532 166.388 119.532 170.006C119.532 173.624 122.178 176.216 125.814 176.216ZM125.814 173.948C123.582 173.948 122.16 172.238 122.16 170.006C122.16 167.756 123.582 166.064 125.814 166.064C128.028 166.064 129.45 167.756 129.45 170.006C129.45 172.238 128.028 173.948 125.814 173.948ZM146.886 176V163.994H143.286L140.37 171.5L137.454 163.994H133.872V176H136.428V167.342L139.812 176H140.928L144.312 167.342V176H146.886ZM151.826 176V163.994H149.27V176H151.826ZM164.955 176V163.994H162.399V171.536L156.837 163.994H154.209V176H156.765V168.17L162.489 176H164.955ZM173.029 176.216C176.647 176.216 179.293 173.624 179.293 170.006C179.293 166.388 176.647 163.796 173.029 163.796C169.393 163.796 166.747 166.388 166.747 170.006C166.747 173.624 169.393 176.216 173.029 176.216ZM173.029 173.948C170.797 173.948 169.375 172.238 169.375 170.006C169.375 167.756 170.797 166.064 173.029 166.064C175.243 166.064 176.665 167.756 176.665 170.006C176.665 172.238 175.243 173.948 173.029 173.948ZM183.593 165.65C183.593 164.48 182.837 163.814 181.991 163.814C181.217 163.814 180.569 164.462 180.569 165.236C180.569 166.01 181.109 166.532 181.793 166.532C181.937 166.532 182.081 166.514 182.135 166.478C181.991 167.126 181.325 167.882 180.749 168.188L181.739 168.998C182.855 168.206 183.593 167 183.593 165.65ZM189.783 176.216C193.005 176.216 194.589 174.56 194.589 172.364C194.589 167.882 187.695 169.16 187.695 167.27C187.695 166.55 188.307 166.082 189.387 166.082C190.611 166.082 191.907 166.496 192.879 167.396L194.301 165.488C193.113 164.39 191.529 163.814 189.621 163.814C186.795 163.814 185.067 165.47 185.067 167.468C185.067 171.986 191.979 170.528 191.979 172.616C191.979 173.318 191.313 173.948 189.891 173.948C188.235 173.948 186.921 173.192 186.075 172.31L184.671 174.308C185.805 175.442 187.461 176.216 189.783 176.216ZM203.471 176V171.716H206.531C209.123 171.716 210.563 169.952 210.563 167.864C210.563 165.758 209.141 163.994 206.531 163.994H200.915V176H203.471ZM206.171 169.466H203.471V166.244H206.171C207.179 166.244 207.953 166.856 207.953 167.864C207.953 168.854 207.179 169.466 206.171 169.466ZM214.721 176V163.994H212.165V176H214.721ZM225.816 176V173.75H220.02L225.69 166.046V163.994H216.672V166.244H222.342L216.672 173.93V176H225.816ZM236.468 176V173.75H230.672L236.342 166.046V163.994H227.324V166.244H232.994L227.324 173.93V176H236.468ZM249.605 176L244.979 163.994H241.775L237.149 176H240.047L240.803 173.966H245.951L246.707 176H249.605ZM245.249 171.716H241.505L243.377 166.55L245.249 171.716Z" fill="white"/>
<path d="M187.891 131.625H185.029C185.472 131.037 185.734 130.306 185.734 129.516C185.734 127.577 184.157 126 182.219 126C181.051 126 180.19 126.418 179.509 127.317C178.939 128.068 178.523 129.117 178 130.443C177.477 129.117 177.061 128.068 176.491 127.317C175.81 126.418 174.949 126 173.781 126C171.843 126 170.266 127.577 170.266 129.516C170.266 130.306 170.528 131.037 170.971 131.625H168.109C166.946 131.625 166 132.571 166 133.734V135.141C166 136.057 166.588 136.839 167.406 137.129V147.891C167.406 149.054 168.353 150 169.516 150H186.484C187.647 150 188.594 149.054 188.594 147.891V137.129C189.412 136.839 190 136.057 190 135.141V133.734C190 132.571 189.054 131.625 187.891 131.625ZM179.291 131.003C180.368 128.271 180.777 127.406 182.219 127.406C183.382 127.406 184.328 128.353 184.328 129.516C184.328 130.679 183.382 131.625 182.219 131.625H179.045C179.131 131.409 179.213 131.2 179.291 131.003ZM173.781 127.406C175.223 127.406 175.632 128.271 176.709 131.003C176.787 131.2 176.869 131.409 176.955 131.625H173.781C172.618 131.625 171.672 130.679 171.672 129.516C171.672 128.353 172.618 127.406 173.781 127.406ZM175.188 148.594H169.516C169.128 148.594 168.812 148.278 168.812 147.891V137.25H175.188V148.594ZM175.188 135.844H168.109C167.722 135.844 167.406 135.528 167.406 135.141V133.734C167.406 133.347 167.722 133.031 168.109 133.031H175.188V135.844ZM179.406 148.594H176.594V133.031C176.741 133.031 178.598 133.031 179.406 133.031V148.594ZM187.188 147.891C187.188 148.278 186.872 148.594 186.484 148.594H180.812V137.25H187.188V147.891ZM188.594 135.141C188.594 135.528 188.278 135.844 187.891 135.844H180.812V133.031H187.891C188.278 133.031 188.594 133.347 188.594 133.734V135.141Z" fill="white"/>
<defs>

<linearGradient id="paint0_linear" x1="178" y1="-3" x2="178" y2="227" gradientUnits="userSpaceOnUse">
<stop stop-opacity="0"/>
<stop offset="1"/>
</linearGradient>

</defs>
</svg>