<svg width="56" height="78" viewBox="0 0 56 78" fill="none" xmlns="http://www.w3.org/2000/svg">
<circle cx="28" cy="22" r="22" fill="url(#paint0_linear)"/>
<path d="M41.0411 18.7483L37.2381 13.8674C36.3133 12.6806 34.9201 12 33.4156 12H30.9071C30.5594 12 30.2487 12.2172 30.1294 12.5438C29.7441 13.5978 28.7308 14.3059 27.608 14.3059C26.4852 14.3059 25.4721 13.5978 25.0867 12.5438C24.9673 12.2172 24.6566 12 24.309 12H21.8004C20.2959 12 18.9026 12.6806 17.9778 13.8675L14.1749 18.7483C14.0097 18.9604 13.9576 19.2394 14.0354 19.4969C14.1133 19.7543 14.3112 19.9579 14.5664 20.0428L19.8376 21.799V32.1719C19.8376 32.6292 20.2084 33 20.6658 33H34.5503C35.0076 33 35.3784 32.6292 35.3784 32.1719V21.799L40.6497 20.0428C40.9048 19.9579 41.1028 19.7543 41.1806 19.4969C41.2584 19.2394 41.2064 18.9604 41.0411 18.7483ZM35.3784 20.0534V18.836C35.3784 18.3787 35.0076 18.0079 34.5503 18.0079C34.0929 18.0079 33.7222 18.3787 33.7222 18.836V31.3438H21.4937V18.836C21.4937 18.3787 21.123 18.0079 20.6656 18.0079C20.2083 18.0079 19.8375 18.3787 19.8375 18.836V20.0534L16.2014 18.8419L19.2842 14.8855C19.893 14.1042 20.81 13.6562 21.8004 13.6562H23.7738C24.5185 15.056 25.9932 15.962 27.6079 15.962C29.2226 15.962 30.6973 15.0558 31.4422 13.6562H33.4156C34.4058 13.6562 35.3229 14.1042 35.9317 14.8854L39.0146 18.8419L35.3784 20.0534Z" fill="white"/>
<path d="M6.73072 68V66.964H2.39072V58.662H1.22872V68H6.73072ZM8.84144 60.272C9.23344 60.272 9.55544 59.964 9.55544 59.572C9.55544 59.18 9.23344 58.858 8.84144 58.858C8.46344 58.858 8.14144 59.18 8.14144 59.572C8.14144 59.964 8.46344 60.272 8.84144 60.272ZM9.37344 68V61.238H8.32344V68H9.37344ZM12.812 68V62.162H14.184V61.238H12.812V60.72C12.812 59.866 13.19 59.39 13.876 59.39C14.226 59.39 14.492 59.53 14.716 59.726L15.15 59.04C14.73 58.648 14.254 58.522 13.722 58.522C12.518 58.522 11.762 59.334 11.762 60.72V61.238H10.642V62.162H11.762V68H12.812ZM18.4848 68.168C19.5908 68.168 20.5008 67.804 21.1728 67.132L20.6688 66.446C20.1368 66.992 19.3528 67.3 18.5828 67.3C17.1268 67.3 16.2308 66.236 16.1468 64.962H21.6208V64.696C21.6208 62.666 20.4168 61.07 18.3728 61.07C16.4408 61.07 15.0408 62.652 15.0408 64.612C15.0408 66.726 16.4828 68.168 18.4848 68.168ZM20.5848 64.192H16.1468C16.2028 63.156 16.9168 61.938 18.3588 61.938C19.8988 61.938 20.5708 63.184 20.5848 64.192ZM29.9969 68.168C32.5169 68.168 33.4409 66.782 33.4409 65.424C33.4409 61.938 27.9109 63.142 27.9109 61.042C27.9109 60.16 28.7089 59.558 29.8289 59.558C30.8509 59.558 31.8309 59.908 32.5309 60.678L33.2309 59.824C32.4469 58.998 31.3409 58.522 29.9129 58.522C28.0789 58.522 26.7069 59.572 26.7069 61.112C26.7069 64.444 32.2369 63.114 32.2369 65.522C32.2369 66.236 31.7049 67.132 30.0389 67.132C28.7229 67.132 27.7149 66.488 27.0989 65.802L26.4129 66.684C27.1829 67.552 28.3729 68.168 29.9969 68.168ZM36.6096 68.168C37.2256 68.168 37.6036 67.986 37.8696 67.734L37.5616 66.95C37.4216 67.104 37.1416 67.23 36.8476 67.23C36.3856 67.23 36.1616 66.866 36.1616 66.362V62.162H37.5336V61.238H36.1616V59.39H35.1116V61.238H33.9916V62.162H35.1116V66.586C35.1116 67.594 35.6156 68.168 36.6096 68.168ZM38.6388 70.646C38.8348 70.702 39.1848 70.744 39.4088 70.744C40.3048 70.73 40.9908 70.352 41.3968 69.372L44.7848 61.238H43.6368L41.3968 66.782L39.1428 61.238H38.0088L40.8368 68.07L40.3888 69.092C40.1508 69.652 39.8428 69.806 39.3808 69.806C39.2128 69.806 38.9608 69.764 38.8068 69.694L38.6388 70.646ZM46.9301 68V58.662H45.8801V68H46.9301ZM52.0766 68.168C53.1826 68.168 54.0926 67.804 54.7646 67.132L54.2606 66.446C53.7286 66.992 52.9446 67.3 52.1746 67.3C50.7186 67.3 49.8226 66.236 49.7386 64.962H55.2126V64.696C55.2126 62.666 54.0086 61.07 51.9646 61.07C50.0326 61.07 48.6326 62.652 48.6326 64.612C48.6326 66.726 50.0746 68.168 52.0766 68.168ZM54.1766 64.192H49.7386C49.7946 63.156 50.5086 61.938 51.9506 61.938C53.4906 61.938 54.1626 63.184 54.1766 64.192Z" fill="#656564"/>
<defs>
<linearGradient id="paint0_linear" x1="28" y1="0" x2="28" y2="44" gradientUnits="userSpaceOnUse">
<stop stop-color="#7CA9ED"/>
<stop offset="1" stop-color="#659BEC"/>
</linearGradient>
</defs>
</svg>
