<svg width="331" height="150" viewBox="0 0 331 150" fill="none" xmlns="http://www.w3.org/2000/svg">
<g filter="url(#filter0_d)">
<path d="M0 6C0 2.68629 2.68629 0 6 0H325C328.314 0 331 2.68629 331 6V144C331 147.314 328.314 150 325 150H6.00001C2.6863 150 0 147.314 0 144V6Z" fill="white"/>
</g>
<circle cx="41" cy="43" r="23" fill="#649AEC"/>
<path d="M31.8301 45.3479H40.2934V54.04H33.4312C32.5529 54.04 31.8301 53.3172 31.8301 52.4388V45.3479Z" fill="white"/>
<path d="M50.1293 45.3479V52.4388C50.1293 53.3172 49.4065 54.04 48.5281 54.04H41.666V45.3479H50.1293Z" fill="white"/>
<path d="M30 40.087V42.3744C30 43.2527 30.7228 43.9755 31.6012 43.9755H31.8299H40.2932V42.6031V38.4858H31.6012C30.7228 38.4858 30 39.2086 30 40.087Z" fill="white"/>
<path d="M50.358 38.4858H41.666V42.6031V43.9755H50.1293H50.358C51.2364 43.9755 51.9592 43.2527 51.9592 42.3744V40.087C51.9592 39.2086 51.2364 38.4858 50.358 38.4858Z" fill="white"/>
<path d="M40.9789 39.441C40.7795 39.441 40.5892 39.3541 40.4602 39.2031C40.3293 39.0522 40.2717 38.8518 40.3 38.6542C40.6386 36.3668 42.4255 32.04 46.7697 32.04C49.2492 32.0409 50.1284 33.3804 50.1284 34.5277C50.1284 36.5672 47.2894 39.441 40.9789 39.441ZM46.7697 33.4133C43.4923 33.4133 42.248 36.5287 41.8353 38.0485C44.421 37.9277 46.0514 37.2735 46.9902 36.7163C48.2921 35.9432 48.756 35.0785 48.756 34.5268C48.756 33.7052 47.7304 33.4133 46.7697 33.4133Z" fill="white"/>
<path d="M40.9806 39.441C34.6701 39.441 31.8311 36.5672 31.8311 34.5277C31.8311 33.3804 32.7112 32.0409 35.1908 32.0409C39.534 32.0409 41.3209 36.3677 41.6595 38.6551C41.6878 38.8527 41.6302 39.0531 41.4993 39.204C41.3703 39.3541 41.18 39.441 40.9806 39.441ZM35.1908 33.4133C34.2301 33.4133 33.2035 33.7061 33.2035 34.5277C33.2035 35.6961 35.2466 37.8252 40.1233 38.0494C39.7115 36.5287 38.4672 33.4133 35.1908 33.4133Z" fill="white"/>

<path d="M90.696 120V110.662H88.386L85.838 116.808L83.304 110.662H80.994V120H82.632V113.07L85.488 120H86.188L89.058 113.07V120H90.696ZM95.6935 120.168C97.8635 120.168 99.1795 118.558 99.1795 116.612C99.1795 114.68 97.8635 113.07 95.6935 113.07C93.5515 113.07 92.2215 114.68 92.2215 116.612C92.2215 118.558 93.5515 120.168 95.6935 120.168ZM95.6935 118.866C94.4475 118.866 93.7475 117.816 93.7475 116.612C93.7475 115.422 94.4475 114.372 95.6935 114.372C96.9535 114.372 97.6535 115.422 97.6535 116.612C97.6535 117.816 96.9535 118.866 95.6935 118.866ZM102.137 120V115.394C102.431 114.918 103.257 114.498 103.873 114.498C104.055 114.498 104.209 114.512 104.335 114.54V113.084C103.453 113.084 102.641 113.588 102.137 114.232V113.238H100.667V120H102.137ZM108.642 120.168C109.72 120.168 110.714 119.832 111.386 119.188L110.714 118.222C110.238 118.698 109.454 118.964 108.796 118.964C107.522 118.964 106.752 118.124 106.64 117.102H111.862V116.752C111.862 114.624 110.56 113.07 108.53 113.07C106.528 113.07 105.1 114.652 105.1 116.612C105.1 118.754 106.612 120.168 108.642 120.168ZM110.434 116.066H106.626C106.696 115.24 107.27 114.274 108.53 114.274C109.86 114.274 110.406 115.268 110.434 116.066ZM120.423 120C123.335 120 125.309 118.082 125.309 115.338C125.309 112.594 123.335 110.662 120.423 110.662H116.951V120H120.423ZM120.423 118.558H118.589V112.104H120.423C122.509 112.104 123.629 113.532 123.629 115.338C123.629 117.102 122.453 118.558 120.423 118.558ZM129.97 120.168C131.048 120.168 132.042 119.832 132.714 119.188L132.042 118.222C131.566 118.698 130.782 118.964 130.124 118.964C128.85 118.964 128.08 118.124 127.968 117.102H133.19V116.752C133.19 114.624 131.888 113.07 129.858 113.07C127.856 113.07 126.428 114.652 126.428 116.612C126.428 118.754 127.94 120.168 129.97 120.168ZM131.762 116.066H127.954C128.024 115.24 128.598 114.274 129.858 114.274C131.188 114.274 131.734 115.268 131.762 116.066ZM136.671 120.168C137.357 120.168 137.791 119.986 138.057 119.734L137.707 118.628C137.595 118.754 137.329 118.866 137.049 118.866C136.629 118.866 136.405 118.53 136.405 118.068V114.526H137.777V113.238H136.405V111.39H134.935V113.238H133.815V114.526H134.935V118.432C134.935 119.552 135.537 120.168 136.671 120.168ZM144.712 120V115.52C144.712 113.7 143.396 113.07 141.898 113.07C140.82 113.07 139.84 113.42 139.056 114.162L139.658 115.184C140.246 114.61 140.904 114.33 141.66 114.33C142.598 114.33 143.242 114.806 143.242 115.59V116.598C142.752 116.024 141.968 115.73 141.058 115.73C139.952 115.73 138.706 116.374 138.706 117.928C138.706 119.426 139.952 120.168 141.058 120.168C141.954 120.168 142.738 119.846 143.242 119.272V120H144.712ZM141.632 119.16C140.806 119.16 140.19 118.684 140.19 117.956C140.19 117.214 140.806 116.738 141.632 116.738C142.276 116.738 142.906 116.976 143.242 117.438V118.46C142.906 118.922 142.276 119.16 141.632 119.16ZM147.346 112.412C147.85 112.412 148.256 112.006 148.256 111.502C148.256 110.998 147.85 110.592 147.346 110.592C146.856 110.592 146.436 110.998 146.436 111.502C146.436 112.006 146.856 112.412 147.346 112.412ZM148.088 120V113.238H146.618V120H148.088ZM151.465 120V110.662H149.995V120H151.465ZM155.682 120.168C157.502 120.168 158.496 119.258 158.496 118.068C158.496 115.38 154.408 116.276 154.408 115.072C154.408 114.596 154.898 114.246 155.668 114.246C156.508 114.246 157.264 114.596 157.67 115.058L158.286 114.022C157.67 113.476 156.802 113.07 155.654 113.07C153.946 113.07 152.994 114.022 152.994 115.128C152.994 117.718 157.082 116.766 157.082 118.096C157.082 118.628 156.634 119.006 155.752 119.006C154.87 119.006 153.932 118.544 153.456 118.054L152.784 119.118C153.484 119.804 154.534 120.168 155.682 120.168Z" fill="#649AEC"/>

<path d="M82.632 30V26.514H85.096C87.042 26.514 88.148 25.17 88.148 23.588C88.148 22.006 87.056 20.662 85.096 20.662H80.994V30H82.632ZM84.872 25.072H82.632V22.104H84.872C85.796 22.104 86.468 22.692 86.468 23.588C86.468 24.484 85.796 25.072 84.872 25.072ZM90.9396 30V20.662H89.4696V30H90.9396ZM95.9685 30.168C97.0465 30.168 98.0405 29.832 98.7125 29.188L98.0405 28.222C97.5645 28.698 96.7805 28.964 96.1225 28.964C94.8485 28.964 94.0785 28.124 93.9665 27.102H99.1885V26.752C99.1885 24.624 97.8865 23.07 95.8565 23.07C93.8545 23.07 92.4265 24.652 92.4265 26.612C92.4265 28.754 93.9385 30.168 95.9685 30.168ZM97.7605 26.066H93.9525C94.0225 25.24 94.5965 24.274 95.8565 24.274C97.1865 24.274 97.7325 25.268 97.7605 26.066ZM106.87 30V20.662H105.4V24.176C104.854 23.462 104.07 23.07 103.23 23.07C101.48 23.07 100.22 24.442 100.22 26.626C100.22 28.852 101.494 30.168 103.23 30.168C104.098 30.168 104.882 29.748 105.4 29.076V30H106.87ZM103.65 28.866C102.488 28.866 101.745 27.928 101.745 26.626C101.745 25.31 102.488 24.372 103.65 24.372C104.35 24.372 105.064 24.778 105.4 25.282V27.97C105.064 28.474 104.35 28.866 103.65 28.866ZM111.518 32.744C113.184 32.744 114.99 32.086 114.99 29.65V23.238H113.52V24.176C112.974 23.462 112.204 23.07 111.35 23.07C109.614 23.07 108.354 24.358 108.354 26.542C108.354 28.768 109.628 30.014 111.35 30.014C112.232 30.014 113.002 29.566 113.52 28.894V29.706C113.52 31.092 112.484 31.54 111.518 31.54C110.622 31.54 109.922 31.302 109.376 30.672L108.69 31.736C109.516 32.492 110.37 32.744 111.518 32.744ZM111.784 28.712C110.622 28.712 109.88 27.844 109.88 26.542C109.88 25.24 110.622 24.372 111.784 24.372C112.47 24.372 113.198 24.778 113.52 25.282V27.802C113.198 28.306 112.47 28.712 111.784 28.712ZM120.017 30.168C121.095 30.168 122.089 29.832 122.761 29.188L122.089 28.222C121.613 28.698 120.829 28.964 120.171 28.964C118.897 28.964 118.127 28.124 118.015 27.102H123.237V26.752C123.237 24.624 121.935 23.07 119.905 23.07C117.903 23.07 116.475 24.652 116.475 26.612C116.475 28.754 117.987 30.168 120.017 30.168ZM121.809 26.066H118.001C118.071 25.24 118.645 24.274 119.905 24.274C121.235 24.274 121.781 25.268 121.809 26.066Z" fill="#649AEC"/>
</svg>
