<svg width="264" height="84" viewBox="0 0 264 84" fill="none" xmlns="http://www.w3.org/2000/svg">
<g filter="url(#filter0_d)">
<rect x="17" y="14" width="230" height="50" rx="25" fill="url(#paint0_linear)"/>
<path d="M78.8489 44V34.976H82.0809V33.328H73.7449V34.976H76.9769V44H78.8489ZM92.2204 44L88.0284 33.328H85.6924L81.5004 44H83.6284L84.4124 41.952H89.3084L90.0924 44H92.2204ZM88.7804 40.304H84.9404L86.8604 35.216L88.7804 40.304ZM102.074 44L97.418 38.368L101.754 33.328H99.434L95.258 38.416V33.328H93.386V44H95.258V40.592L96.186 39.504L99.77 44H102.074ZM110.635 44V42.352H105.196V39.392H110.524V37.744H105.196V34.976H110.635V33.328H103.324V44H110.635ZM126.267 44L122.075 33.328H119.739L115.547 44H117.675L118.459 41.952H123.355L124.139 44H126.267ZM122.827 40.304H118.987L120.907 35.216L122.827 40.304ZM133.414 44V40.016H136.23C138.454 40.016 139.718 38.48 139.718 36.672C139.718 34.864 138.47 33.328 136.23 33.328H131.542V44H133.414ZM135.974 38.368H133.414V34.976H135.974C137.03 34.976 137.798 35.648 137.798 36.672C137.798 37.696 137.03 38.368 135.974 38.368ZM147.853 44V42.352H143.149V33.328H141.277V44H147.853ZM156.854 44V42.352H151.414V39.392H156.742V37.744H151.414V34.976H156.854V33.328H149.542V44H156.854ZM162.745 44C166.073 44 168.329 41.808 168.329 38.672C168.329 35.536 166.073 33.328 162.745 33.328H158.777V44H162.745ZM162.745 42.352H160.649V34.976H162.745C165.129 34.976 166.409 36.608 166.409 38.672C166.409 40.688 165.065 42.352 162.745 42.352ZM175.256 44.208C177.112 44.208 178.6 43.44 179.656 42.272V38.272H174.6V39.92H177.784V41.584C177.304 42.032 176.344 42.544 175.256 42.544C173.144 42.544 171.576 40.912 171.576 38.672C171.576 36.432 173.144 34.816 175.256 34.816C176.456 34.816 177.464 35.44 178.024 36.24L179.56 35.376C178.696 34.144 177.336 33.152 175.256 33.152C172.168 33.152 169.656 35.328 169.656 38.672C169.656 42.016 172.168 44.208 175.256 44.208ZM188.917 44V42.352H183.477V39.392H188.805V37.744H183.477V34.976H188.917V33.328H181.605V44H188.917Z" fill="white"/>
</g>
<defs>
<linearGradient id="paint0_linear" x1="132" y1="14" x2="132" y2="53" gradientUnits="userSpaceOnUse">
<stop stop-color="#7DAAED"/>
<stop offset="1" stop-color="#6299EC"/>
</linearGradient>
</defs>
</svg>
