<svg width="331" height="502" viewBox="0 0 331 502" fill="none" xmlns="http://www.w3.org/2000/svg">
<g filter="url(#filter0_d)">
<path fill-rule="evenodd" clip-rule="evenodd" d="M0 5.99999C0 2.68628 2.68629 0 6 0H325C328.314 0 331 2.68629 331 6V167.2C330.354 167.069 329.685 167 329 167C323.477 167 319 171.477 319 177C319 182.523 323.477 187 329 187C329.685 187 330.354 186.931 331 186.8V496C331 499.314 328.314 502 325 502H6.00001C2.6863 502 0 499.314 0 496V186.8C0.64622 186.931 1.31507 187 2 187C7.52285 187 12 182.523 12 177C12 171.477 7.52285 167 2 167C1.31507 167 0.64622 167.069 0 167.2V5.99999Z" fill="white"/>
</g>
<path d="M17.32 181.656V180.6H13.48V181.656H17.32ZM26.1169 181.656V180.6H22.2769V181.656H26.1169ZM34.9138 181.656V180.6H31.0738V181.656H34.9138ZM43.7106 181.656V180.6H39.8706V181.656H43.7106ZM52.5075 181.656V180.6H48.6675V181.656H52.5075ZM61.3044 181.656V180.6H57.4644V181.656H61.3044ZM70.1013 181.656V180.6H66.2613V181.656H70.1013ZM78.8981 181.656V180.6H75.0581V181.656H78.8981ZM87.695 181.656V180.6H83.855V181.656H87.695ZM96.4919 181.656V180.6H92.6519V181.656H96.4919ZM105.289 181.656V180.6H101.449V181.656H105.289ZM114.086 181.656V180.6H110.246V181.656H114.086ZM122.883 181.656V180.6H119.043V181.656H122.883ZM131.679 181.656V180.6H127.839V181.656H131.679ZM140.476 181.656V180.6H136.636V181.656H140.476ZM149.273 181.656V180.6H145.433V181.656H149.273ZM158.07 181.656V180.6H154.23V181.656H158.07ZM166.867 181.656V180.6H163.027V181.656H166.867ZM175.664 181.656V180.6H171.824V181.656H175.664ZM184.461 181.656V180.6H180.621V181.656H184.461ZM193.258 181.656V180.6H189.418V181.656H193.258ZM202.054 181.656V180.6H198.214V181.656H202.054ZM210.851 181.656V180.6H207.011V181.656H210.851ZM219.648 181.656V180.6H215.808V181.656H219.648ZM228.445 181.656V180.6H224.605V181.656H228.445ZM237.242 181.656V180.6H233.402V181.656H237.242ZM246.039 181.656V180.6H242.199V181.656H246.039ZM254.836 181.656V180.6H250.996V181.656H254.836ZM263.633 181.656V180.6H259.793V181.656H263.633ZM272.429 181.656V180.6H268.589V181.656H272.429ZM281.226 181.656V180.6H277.386V181.656H281.226ZM290.023 181.656V180.6H286.183V181.656H290.023ZM298.82 181.656V180.6H294.98V181.656H298.82ZM307.617 181.656V180.6H303.777V181.656H307.617ZM316.414 181.656V180.6H312.574V181.656H316.414Z" fill="#E0E0E0"/>
<circle cx="166" cy="61" r="28" fill="#649AEC"/>
<path d="M154.837 63.8585H165.14V74.4401H156.786C155.717 74.4401 154.837 73.5601 154.837 72.4908V63.8585Z" fill="white"/>
<path d="M177.115 63.8585V72.4908C177.115 73.5601 176.235 74.4401 175.165 74.4401H166.812V63.8585H177.115Z" fill="white"/>
<path d="M152.609 57.4537V60.2383C152.609 61.3076 153.489 62.1876 154.559 62.1876H154.837H165.14V60.5168V55.5045H154.559C153.489 55.5045 152.609 56.3844 152.609 57.4537Z" fill="white"/>
<path d="M177.393 55.5045H166.812V60.5168V62.1876H177.115H177.393C178.462 62.1876 179.342 61.3076 179.342 60.2383V57.4537C179.342 56.3844 178.462 55.5045 177.393 55.5045Z" fill="white"/>
<path d="M165.975 56.6674C165.732 56.6674 165.5 56.5616 165.343 56.3778C165.184 56.194 165.114 55.95 165.148 55.7095C165.56 52.9248 167.736 47.6574 173.024 47.6574C176.043 47.6585 177.113 49.2892 177.113 50.686C177.113 53.1688 173.657 56.6674 165.975 56.6674ZM173.024 49.3293C169.034 49.3293 167.52 53.122 167.017 54.9721C170.165 54.8251 172.15 54.0287 173.293 53.3503C174.878 52.4091 175.442 51.3565 175.442 50.6849C175.442 49.6846 174.194 49.3293 173.024 49.3293Z" fill="white"/>
<path d="M165.977 56.6674C158.295 56.6674 154.839 53.1687 154.839 50.686C154.839 49.2892 155.91 47.6585 158.929 47.6585C164.216 47.6585 166.392 52.9259 166.804 55.7106C166.838 55.9511 166.768 56.1951 166.609 56.3789C166.452 56.5615 166.22 56.6674 165.977 56.6674ZM158.929 49.3293C157.759 49.3293 156.51 49.6857 156.51 50.686C156.51 52.1084 158.997 54.7003 164.934 54.9732C164.432 53.122 162.918 49.3293 158.929 49.3293Z" fill="white"/>
<path d="M29.086 212L25.32 202.662H23.878L20.126 212H21.456L22.282 209.928H26.93L27.756 212H29.086ZM26.58 208.892H22.618L24.606 203.866L26.58 208.892ZM39.4768 212V207.114C39.4768 205.756 38.8188 205.07 37.5868 205.07C36.6068 205.07 35.6968 205.714 35.3188 206.33C35.1228 205.63 34.5348 205.07 33.4988 205.07C32.5048 205.07 31.5948 205.784 31.3148 206.218V205.238H30.2648V212H31.3148V207.058C31.6788 206.512 32.4068 206.008 33.0928 206.008C33.9748 206.008 34.3388 206.554 34.3388 207.408V212H35.3888V207.044C35.7388 206.512 36.4808 206.008 37.1808 206.008C38.0488 206.008 38.4268 206.554 38.4268 207.408V212H39.4768ZM44.5255 212.168C46.5835 212.168 47.8715 210.572 47.8715 208.612C47.8715 206.652 46.5835 205.07 44.5255 205.07C42.4675 205.07 41.1795 206.652 41.1795 208.612C41.1795 210.572 42.4675 212.168 44.5255 212.168ZM44.5255 211.23C43.0835 211.23 42.2715 209.998 42.2715 208.612C42.2715 207.24 43.0835 206.008 44.5255 206.008C45.9675 206.008 46.7655 207.24 46.7655 208.612C46.7655 209.998 45.9675 211.23 44.5255 211.23ZM55.1972 212V205.238H54.1472V210.208C53.7552 210.754 52.9712 211.23 52.1452 211.23C51.2352 211.23 50.6332 210.88 50.6332 209.69V205.238H49.5832V210.012C49.5832 211.482 50.3252 212.168 51.7392 212.168C52.7472 212.168 53.6292 211.636 54.1472 211.048V212H55.1972ZM62.9081 212V207.254C62.9081 205.784 62.1661 205.07 60.7521 205.07C59.7441 205.07 58.8201 205.658 58.3441 206.218V205.238H57.2941V212H58.3441V207.058C58.7361 206.512 59.5201 206.008 60.3461 206.008C61.2561 206.008 61.8581 206.386 61.8581 207.576V212H62.9081ZM66.7131 212.168C67.3291 212.168 67.7071 211.986 67.9731 211.734L67.6651 210.95C67.5251 211.104 67.2451 211.23 66.9511 211.23C66.4891 211.23 66.2651 210.866 66.2651 210.362V206.162H67.6371V205.238H66.2651V203.39H65.2151V205.238H64.0951V206.162H65.2151V210.586C65.2151 211.594 65.7191 212.168 66.7131 212.168Z" fill="#838383"/>
<path d="M100.868 212L98.348 208.192C99.622 208.08 100.77 207.156 100.77 205.476C100.77 203.754 99.552 202.662 97.844 202.662H94.092V212H95.254V208.29H97.116L99.496 212H100.868ZM97.704 207.268H95.254V203.698H97.704C98.81 203.698 99.566 204.426 99.566 205.476C99.566 206.526 98.81 207.268 97.704 207.268ZM105.196 212.168C106.302 212.168 107.212 211.804 107.884 211.132L107.38 210.446C106.848 210.992 106.064 211.3 105.294 211.3C103.838 211.3 102.942 210.236 102.858 208.962H108.332V208.696C108.332 206.666 107.128 205.07 105.084 205.07C103.152 205.07 101.752 206.652 101.752 208.612C101.752 210.726 103.194 212.168 105.196 212.168ZM107.296 208.192H102.858C102.914 207.156 103.628 205.938 105.07 205.938C106.61 205.938 107.282 207.184 107.296 208.192ZM116.934 212L119.09 205.238H117.998L116.346 210.628L114.568 205.238H113.672L111.894 210.628L110.242 205.238H109.15L111.306 212H112.356L114.12 206.568L115.884 212H116.934ZM125.592 212V207.352C125.592 205.714 124.402 205.07 122.974 205.07C121.868 205.07 121 205.434 120.272 206.19L120.762 206.918C121.364 206.274 122.022 205.98 122.834 205.98C123.814 205.98 124.542 206.498 124.542 207.408V208.626C123.996 207.996 123.226 207.702 122.302 207.702C121.154 207.702 119.936 208.416 119.936 209.928C119.936 211.398 121.154 212.168 122.302 212.168C123.212 212.168 123.982 211.846 124.542 211.23V212H125.592ZM122.68 211.412C121.7 211.412 121.014 210.796 121.014 209.942C121.014 209.074 121.7 208.458 122.68 208.458C123.422 208.458 124.136 208.738 124.542 209.298V210.572C124.136 211.132 123.422 211.412 122.68 211.412ZM128.746 212V207.212C129.054 206.666 129.936 206.134 130.58 206.134C130.748 206.134 130.874 206.148 131 206.176V205.098C130.076 205.098 129.292 205.616 128.746 206.33V205.238H127.696V212H128.746ZM138.268 212V202.662H137.218V206.26C136.672 205.518 135.846 205.07 134.936 205.07C133.158 205.07 131.926 206.47 131.926 208.626C131.926 210.824 133.172 212.168 134.936 212.168C135.888 212.168 136.714 211.678 137.218 210.992V212H138.268ZM135.188 211.23C133.83 211.23 133.018 210.124 133.018 208.626C133.018 207.128 133.83 206.008 135.188 206.008C136.028 206.008 136.84 206.512 137.218 207.1V210.166C136.84 210.754 136.028 211.23 135.188 211.23ZM142.512 212.168C144.262 212.168 145.172 211.258 145.172 210.124C145.172 207.492 140.986 208.472 140.986 206.988C140.986 206.386 141.56 205.924 142.484 205.924C143.352 205.924 144.094 206.288 144.5 206.778L144.99 206.05C144.444 205.504 143.632 205.07 142.484 205.07C140.874 205.07 139.964 205.966 139.964 207.016C139.964 209.522 144.15 208.514 144.15 210.152C144.15 210.824 143.59 211.314 142.554 211.314C141.63 211.314 140.776 210.866 140.328 210.348L139.782 211.104C140.468 211.832 141.406 212.168 142.512 212.168ZM154.758 212L158.524 202.662H157.194L154.044 210.726L150.894 202.662H149.564L153.316 212H154.758ZM164.092 212V207.352C164.092 205.714 162.902 205.07 161.474 205.07C160.368 205.07 159.5 205.434 158.772 206.19L159.262 206.918C159.864 206.274 160.522 205.98 161.334 205.98C162.314 205.98 163.042 206.498 163.042 207.408V208.626C162.496 207.996 161.726 207.702 160.802 207.702C159.654 207.702 158.436 208.416 158.436 209.928C158.436 211.398 159.654 212.168 160.802 212.168C161.712 212.168 162.482 211.846 163.042 211.23V212H164.092ZM161.18 211.412C160.2 211.412 159.514 210.796 159.514 209.942C159.514 209.074 160.2 208.458 161.18 208.458C161.922 208.458 162.636 208.738 163.042 209.298V210.572C162.636 211.132 161.922 211.412 161.18 211.412ZM167.246 212V202.662H166.196V212H167.246ZM174.955 212V205.238H173.905V210.208C173.513 210.754 172.729 211.23 171.903 211.23C170.993 211.23 170.391 210.88 170.391 209.69V205.238H169.341V210.012C169.341 211.482 170.083 212.168 171.497 212.168C172.505 212.168 173.387 211.636 173.905 211.048V212H174.955ZM180.104 212.168C181.21 212.168 182.12 211.804 182.792 211.132L182.288 210.446C181.756 210.992 180.972 211.3 180.202 211.3C178.746 211.3 177.85 210.236 177.766 208.962H183.24V208.696C183.24 206.666 182.036 205.07 179.992 205.07C178.06 205.07 176.66 206.652 176.66 208.612C176.66 210.726 178.102 212.168 180.104 212.168ZM182.204 208.192H177.766C177.822 207.156 178.536 205.938 179.978 205.938C181.518 205.938 182.19 207.184 182.204 208.192Z" fill="#838383"/>
<path d="M24.116 265.168C26.636 265.168 27.56 263.782 27.56 262.424C27.56 258.938 22.03 260.142 22.03 258.042C22.03 257.16 22.828 256.558 23.948 256.558C24.97 256.558 25.95 256.908 26.65 257.678L27.35 256.824C26.566 255.998 25.46 255.522 24.032 255.522C22.198 255.522 20.826 256.572 20.826 258.112C20.826 261.444 26.356 260.114 26.356 262.522C26.356 263.236 25.824 264.132 24.158 264.132C22.842 264.132 21.834 263.488 21.218 262.802L20.532 263.684C21.302 264.552 22.492 265.168 24.116 265.168ZM32.2351 265.168C33.4671 265.168 34.1951 264.664 34.7131 263.992L34.0131 263.348C33.5651 263.95 32.9911 264.23 32.2911 264.23C30.8491 264.23 29.9531 263.11 29.9531 261.612C29.9531 260.114 30.8491 259.008 32.2911 259.008C32.9911 259.008 33.5651 259.274 34.0131 259.89L34.7131 259.246C34.1951 258.574 33.4671 258.07 32.2351 258.07C30.2191 258.07 28.8611 259.61 28.8611 261.612C28.8611 263.628 30.2191 265.168 32.2351 265.168ZM37.2348 265V260.212C37.5428 259.666 38.4248 259.134 39.0688 259.134C39.2368 259.134 39.3628 259.148 39.4888 259.176V258.098C38.5648 258.098 37.7808 258.616 37.2348 259.33V258.238H36.1848V265H37.2348ZM46.0839 265V260.352C46.0839 258.714 44.8939 258.07 43.4659 258.07C42.3599 258.07 41.4919 258.434 40.7639 259.19L41.2539 259.918C41.8559 259.274 42.5139 258.98 43.3259 258.98C44.3059 258.98 45.0339 259.498 45.0339 260.408V261.626C44.4879 260.996 43.7179 260.702 42.7939 260.702C41.6459 260.702 40.4279 261.416 40.4279 262.928C40.4279 264.398 41.6459 265.168 42.7939 265.168C43.7039 265.168 44.4739 264.846 45.0339 264.23V265H46.0839ZM43.1719 264.412C42.1919 264.412 41.5059 263.796 41.5059 262.942C41.5059 262.074 42.1919 261.458 43.1719 261.458C43.9139 261.458 44.6279 261.738 45.0339 262.298V263.572C44.6279 264.132 43.9139 264.412 43.1719 264.412ZM49.8967 265.168C50.5127 265.168 50.8907 264.986 51.1567 264.734L50.8487 263.95C50.7087 264.104 50.4287 264.23 50.1347 264.23C49.6727 264.23 49.4487 263.866 49.4487 263.362V259.162H50.8207V258.238H49.4487V256.39H48.3987V258.238H47.2787V259.162H48.3987V263.586C48.3987 264.594 48.9027 265.168 49.8967 265.168ZM55.2859 265.168C56.5179 265.168 57.2459 264.664 57.7639 263.992L57.0639 263.348C56.6159 263.95 56.0419 264.23 55.3419 264.23C53.8999 264.23 53.0039 263.11 53.0039 261.612C53.0039 260.114 53.8999 259.008 55.3419 259.008C56.0419 259.008 56.6159 259.274 57.0639 259.89L57.7639 259.246C57.2459 258.574 56.5179 258.07 55.2859 258.07C53.2699 258.07 51.9119 259.61 51.9119 261.612C51.9119 263.628 53.2699 265.168 55.2859 265.168ZM64.8635 265V260.226C64.8635 258.756 64.1215 258.07 62.7075 258.07C61.6855 258.07 60.7615 258.658 60.2855 259.218V255.662H59.2355V265H60.2855V260.058C60.6915 259.512 61.4755 259.008 62.2875 259.008C63.1975 259.008 63.8135 259.358 63.8135 260.548V265H64.8635ZM75.0355 265.168C76.6875 265.168 77.8075 264.384 78.5915 263.32L77.5975 262.774C77.0655 263.572 76.0995 264.132 75.0355 264.132C72.9915 264.132 71.4375 262.55 71.4375 260.338C71.4375 258.112 72.9915 256.544 75.0355 256.544C76.0995 256.544 77.0655 257.118 77.5975 257.902L78.5775 257.356C77.8355 256.306 76.6875 255.508 75.0355 255.508C72.3475 255.508 70.2335 257.468 70.2335 260.338C70.2335 263.208 72.3475 265.168 75.0355 265.168ZM85.3085 265V260.352C85.3085 258.714 84.1185 258.07 82.6905 258.07C81.5845 258.07 80.7165 258.434 79.9885 259.19L80.4785 259.918C81.0805 259.274 81.7385 258.98 82.5505 258.98C83.5305 258.98 84.2585 259.498 84.2585 260.408V261.626C83.7125 260.996 82.9425 260.702 82.0185 260.702C80.8705 260.702 79.6525 261.416 79.6525 262.928C79.6525 264.398 80.8705 265.168 82.0185 265.168C82.9285 265.168 83.6985 264.846 84.2585 264.23V265H85.3085ZM82.3965 264.412C81.4165 264.412 80.7305 263.796 80.7305 262.942C80.7305 262.074 81.4165 261.458 82.3965 261.458C83.1385 261.458 83.8525 261.738 84.2585 262.298V263.572C83.8525 264.132 83.1385 264.412 82.3965 264.412ZM88.4633 265V260.212C88.7713 259.666 89.6533 259.134 90.2973 259.134C90.4653 259.134 90.5913 259.148 90.7173 259.176V258.098C89.7933 258.098 89.0093 258.616 88.4633 259.33V258.238H87.4133V265H88.4633ZM97.9844 265V255.662H96.9344V259.26C96.3884 258.518 95.5624 258.07 94.6524 258.07C92.8744 258.07 91.6424 259.47 91.6424 261.626C91.6424 263.824 92.8884 265.168 94.6524 265.168C95.6044 265.168 96.4304 264.678 96.9344 263.992V265H97.9844ZM94.9044 264.23C93.5464 264.23 92.7344 263.124 92.7344 261.626C92.7344 260.128 93.5464 259.008 94.9044 259.008C95.7444 259.008 96.5564 259.512 96.9344 260.1V263.166C96.5564 263.754 95.7444 264.23 94.9044 264.23Z" fill="#838383"/>
<path d="M22.415 287V282.44H27.62V281.33H22.415V278.105H27.725V276.995H21.17V287H22.415ZM30.4971 287V281.87C30.8271 281.285 31.7721 280.715 32.4621 280.715C32.6421 280.715 32.7771 280.73 32.9121 280.76V279.605C31.9221 279.605 31.0821 280.16 30.4971 280.925V279.755H29.3721V287H30.4971ZM37.5932 287.18C38.7782 287.18 39.7532 286.79 40.4732 286.07L39.9332 285.335C39.3632 285.92 38.5232 286.25 37.6982 286.25C36.1382 286.25 35.1782 285.11 35.0882 283.745H40.9532V283.46C40.9532 281.285 39.6632 279.575 37.4732 279.575C35.4032 279.575 33.9032 281.27 33.9032 283.37C33.9032 285.635 35.4482 287.18 37.5932 287.18ZM39.8432 282.92H35.0882C35.1482 281.81 35.9132 280.505 37.4582 280.505C39.1082 280.505 39.8282 281.84 39.8432 282.92ZM46.0454 287.18C47.2304 287.18 48.2054 286.79 48.9254 286.07L48.3854 285.335C47.8154 285.92 46.9754 286.25 46.1504 286.25C44.5904 286.25 43.6304 285.11 43.5404 283.745H49.4054V283.46C49.4054 281.285 48.1154 279.575 45.9254 279.575C43.8554 279.575 42.3554 281.27 42.3554 283.37C42.3554 285.635 43.9004 287.18 46.0454 287.18ZM48.2954 282.92H43.5404C43.6004 281.81 44.3654 280.505 45.9104 280.505C47.5604 280.505 48.2804 281.84 48.2954 282.92ZM56.3847 287V283.025H59.1597C61.1397 283.025 62.2947 281.645 62.2947 280.01C62.2947 278.375 61.1697 276.995 59.1597 276.995H55.1397V287H56.3847ZM59.0097 281.915H56.3847V278.105H59.0097C60.1947 278.105 61.0047 278.885 61.0047 280.01C61.0047 281.135 60.1947 281.915 59.0097 281.915ZM68.0234 287.18C70.7384 287.18 72.1034 285.59 72.1034 283.1V276.995H70.8584V283.085C70.8584 284.915 69.8684 286.07 68.0234 286.07C66.1784 286.07 65.1884 284.915 65.1884 283.085V276.995H63.9434V283.115C63.9434 285.575 65.3084 287.18 68.0234 287.18ZM79.1864 287.18C80.9564 287.18 82.1564 286.34 82.9964 285.2L81.9314 284.615C81.3614 285.47 80.3264 286.07 79.1864 286.07C76.9964 286.07 75.3314 284.375 75.3314 282.005C75.3314 279.62 76.9964 277.94 79.1864 277.94C80.3264 277.94 81.3614 278.555 81.9314 279.395L82.9814 278.81C82.1864 277.685 80.9564 276.83 79.1864 276.83C76.3064 276.83 74.0414 278.93 74.0414 282.005C74.0414 285.08 76.3064 287.18 79.1864 287.18ZM93.1903 287.18C94.9603 287.18 96.1603 286.34 97.0003 285.2L95.9353 284.615C95.3653 285.47 94.3303 286.07 93.1903 286.07C91.0003 286.07 89.3353 284.375 89.3353 282.005C89.3353 279.62 91.0003 277.94 93.1903 277.94C94.3303 277.94 95.3653 278.555 95.9353 279.395L96.9853 278.81C96.1903 277.685 94.9603 276.83 93.1903 276.83C90.3103 276.83 88.0453 278.93 88.0453 282.005C88.0453 285.08 90.3103 287.18 93.1903 287.18ZM104.572 287V281.885C104.572 280.31 103.777 279.575 102.262 279.575C101.167 279.575 100.177 280.205 99.667 280.805V276.995H98.542V287H99.667V281.705C100.102 281.12 100.942 280.58 101.812 280.58C102.787 280.58 103.447 280.955 103.447 282.23V287H104.572ZM110.088 287.18C111.273 287.18 112.248 286.79 112.968 286.07L112.428 285.335C111.858 285.92 111.018 286.25 110.193 286.25C108.633 286.25 107.673 285.11 107.583 283.745H113.448V283.46C113.448 281.285 112.158 279.575 109.968 279.575C107.898 279.575 106.398 281.27 106.398 283.37C106.398 285.635 107.943 287.18 110.088 287.18ZM112.338 282.92H107.583C107.643 281.81 108.408 280.505 109.953 280.505C111.603 280.505 112.323 281.84 112.338 282.92ZM118.466 287.18C119.786 287.18 120.566 286.64 121.121 285.92L120.371 285.23C119.891 285.875 119.276 286.175 118.526 286.175C116.981 286.175 116.021 284.975 116.021 283.37C116.021 281.765 116.981 280.58 118.526 280.58C119.276 280.58 119.891 280.865 120.371 281.525L121.121 280.835C120.566 280.115 119.786 279.575 118.466 279.575C116.306 279.575 114.851 281.225 114.851 283.37C114.851 285.53 116.306 287.18 118.466 287.18ZM129.072 287L125.847 283.04L129.057 279.755H127.632L123.822 283.61V276.995H122.697V287H123.822V284.93L125.022 283.745L127.632 287H129.072ZM143.315 287L146.165 276.995H144.785L142.58 285.335L140.285 276.995H139.25L136.955 285.335L134.735 276.995H133.355L136.205 287H137.555L139.76 278.93L141.965 287H143.315ZM150.076 287.18C152.281 287.18 153.661 285.47 153.661 283.37C153.661 281.27 152.281 279.575 150.076 279.575C147.871 279.575 146.491 281.27 146.491 283.37C146.491 285.47 147.871 287.18 150.076 287.18ZM150.076 286.175C148.531 286.175 147.661 284.855 147.661 283.37C147.661 281.9 148.531 280.58 150.076 280.58C151.621 280.58 152.476 281.9 152.476 283.37C152.476 284.855 151.621 286.175 150.076 286.175ZM156.62 287V281.87C156.95 281.285 157.895 280.715 158.585 280.715C158.765 280.715 158.9 280.73 159.035 280.76V279.605C158.045 279.605 157.205 280.16 156.62 280.925V279.755H155.495V287H156.62ZM162.276 287.18C162.936 287.18 163.341 286.985 163.626 286.715L163.296 285.875C163.146 286.04 162.846 286.175 162.531 286.175C162.036 286.175 161.796 285.785 161.796 285.245V280.745H163.266V279.755H161.796V277.775H160.671V279.755H159.471V280.745H160.671V285.485C160.671 286.565 161.211 287.18 162.276 287.18ZM170.885 287V281.885C170.885 280.31 170.09 279.575 168.575 279.575C167.48 279.575 166.49 280.205 165.98 280.805V276.995H164.855V287H165.98V281.705C166.415 281.12 167.255 280.58 168.125 280.58C169.1 280.58 169.76 280.955 169.76 282.23V287H170.885ZM181.483 280.562C181.41 281.24 181.147 281.786 180.694 282.203C180.241 282.62 179.562 282.896 178.655 283.031L182.038 287H180.397L177.022 283.055L177.179 281.914H177.897C178.153 281.914 178.377 281.904 178.569 281.883C178.762 281.862 178.929 281.833 179.069 281.797C179.215 281.755 179.34 281.706 179.444 281.648C179.549 281.586 179.645 281.516 179.733 281.438C179.963 281.219 180.111 280.927 180.179 280.562H177.022V279.422H180.163C180.121 279.219 180.054 279.047 179.96 278.906C179.871 278.76 179.754 278.63 179.608 278.516C179.463 278.401 179.27 278.318 179.03 278.266C178.796 278.214 178.481 278.188 178.085 278.188H177.022V277.047H183.772V278.188H180.772C180.955 278.318 181.106 278.49 181.226 278.703C181.345 278.917 181.429 279.156 181.476 279.422H183.772V280.562H181.483ZM189.202 287.18C191.212 287.18 192.757 285.92 192.757 283.88C192.757 281.825 191.242 280.685 189.577 280.685C188.572 280.685 187.717 281.105 187.237 281.585V278.105H192.112V276.995H185.992V282.395L186.907 282.71C187.582 282.05 188.332 281.765 189.217 281.765C190.567 281.765 191.512 282.605 191.512 283.925C191.512 285.14 190.567 286.07 189.202 286.07C187.972 286.07 187.102 285.59 186.442 284.75L185.677 285.575C186.427 286.565 187.507 287.18 189.202 287.18ZM198.124 287.18C200.854 287.18 201.949 284.435 201.949 282.005C201.949 279.56 200.854 276.845 198.124 276.845C195.379 276.845 194.299 279.56 194.299 282.005C194.299 284.435 195.379 287.18 198.124 287.18ZM198.124 286.07C196.219 286.07 195.574 284 195.574 282.005C195.574 280.01 196.219 277.955 198.124 277.955C200.029 277.955 200.674 280.01 200.674 282.005C200.674 284 200.029 286.07 198.124 286.07ZM203.604 287.3L207.159 276.695H206.274L202.719 287.3H203.604ZM211.207 283.865V282.875H207.607V283.865H211.207Z" fill="#575757"/>
<path d="M30.234 318V308.662H28.568L25.656 315.69L22.758 308.662H21.092V318H22.254V310.314L25.418 318H25.894L29.072 310.314V318H30.234ZM37.6483 318V313.352C37.6483 311.714 36.4583 311.07 35.0303 311.07C33.9243 311.07 33.0563 311.434 32.3283 312.19L32.8183 312.918C33.4203 312.274 34.0783 311.98 34.8903 311.98C35.8703 311.98 36.5983 312.498 36.5983 313.408V314.626C36.0523 313.996 35.2823 313.702 34.3583 313.702C33.2103 313.702 31.9923 314.416 31.9923 315.928C31.9923 317.398 33.2103 318.168 34.3583 318.168C35.2683 318.168 36.0383 317.846 36.5983 317.23V318H37.6483ZM34.7363 317.412C33.7563 317.412 33.0703 316.796 33.0703 315.942C33.0703 315.074 33.7563 314.458 34.7363 314.458C35.4783 314.458 36.1923 314.738 36.5983 315.298V316.572C36.1923 317.132 35.4783 317.412 34.7363 317.412ZM45.3671 318V313.254C45.3671 311.784 44.6251 311.07 43.2111 311.07C42.2031 311.07 41.2791 311.658 40.8031 312.218V311.238H39.7531V318H40.8031V313.058C41.1951 312.512 41.9791 312.008 42.8051 312.008C43.7151 312.008 44.3171 312.386 44.3171 313.576V318H45.3671ZM53.4141 318V308.662H52.3641V312.26C51.8181 311.518 50.9921 311.07 50.0821 311.07C48.3041 311.07 47.0721 312.47 47.0721 314.626C47.0721 316.824 48.3181 318.168 50.0821 318.168C51.0341 318.168 51.8601 317.678 52.3641 316.992V318H53.4141ZM50.3341 317.23C48.9761 317.23 48.1641 316.124 48.1641 314.626C48.1641 313.128 48.9761 312.008 50.3341 312.008C51.1741 312.008 51.9861 312.512 52.3641 313.1V316.166C51.9861 316.754 51.1741 317.23 50.3341 317.23ZM60.7948 318V313.352C60.7948 311.714 59.6048 311.07 58.1768 311.07C57.0708 311.07 56.2028 311.434 55.4748 312.19L55.9648 312.918C56.5668 312.274 57.2248 311.98 58.0368 311.98C59.0168 311.98 59.7448 312.498 59.7448 313.408V314.626C59.1988 313.996 58.4288 313.702 57.5048 313.702C56.3568 313.702 55.1388 314.416 55.1388 315.928C55.1388 317.398 56.3568 318.168 57.5048 318.168C58.4148 318.168 59.1848 317.846 59.7448 317.23V318H60.7948ZM57.8828 317.412C56.9028 317.412 56.2168 316.796 56.2168 315.942C56.2168 315.074 56.9028 314.458 57.8828 314.458C58.6248 314.458 59.3388 314.738 59.7448 315.298V316.572C59.3388 317.132 58.6248 317.412 57.8828 317.412ZM64.6076 318.168C65.2236 318.168 65.6016 317.986 65.8676 317.734L65.5596 316.95C65.4196 317.104 65.1396 317.23 64.8456 317.23C64.3836 317.23 64.1596 316.866 64.1596 316.362V312.162H65.5316V311.238H64.1596V309.39H63.1096V311.238H61.9896V312.162H63.1096V316.586C63.1096 317.594 63.6136 318.168 64.6076 318.168ZM69.9688 318.168C72.0268 318.168 73.3148 316.572 73.3148 314.612C73.3148 312.652 72.0268 311.07 69.9688 311.07C67.9108 311.07 66.6228 312.652 66.6228 314.612C66.6228 316.572 67.9108 318.168 69.9688 318.168ZM69.9688 317.23C68.5268 317.23 67.7148 315.998 67.7148 314.612C67.7148 313.24 68.5268 312.008 69.9688 312.008C71.4108 312.008 72.2088 313.24 72.2088 314.612C72.2088 315.998 71.4108 317.23 69.9688 317.23ZM76.0766 318V313.212C76.3846 312.666 77.2666 312.134 77.9106 312.134C78.0786 312.134 78.2046 312.148 78.3306 312.176V311.098C77.4066 311.098 76.6226 311.616 76.0766 312.33V311.238H75.0266V318H76.0766ZM79.2697 320.646C79.4657 320.702 79.8157 320.744 80.0397 320.744C80.9357 320.73 81.6217 320.352 82.0277 319.372L85.4157 311.238H84.2677L82.0277 316.782L79.7737 311.238H78.6397L81.4677 318.07L81.0197 319.092C80.7817 319.652 80.4737 319.806 80.0117 319.806C79.8437 319.806 79.5917 319.764 79.4377 319.694L79.2697 320.646ZM94.3903 318L98.1563 308.662H96.8263L93.6763 316.726L90.5263 308.662H89.1963L92.9483 318H94.3903ZM101.455 318.168C103.513 318.168 104.801 316.572 104.801 314.612C104.801 312.652 103.513 311.07 101.455 311.07C99.3972 311.07 98.1092 312.652 98.1092 314.612C98.1092 316.572 99.3972 318.168 101.455 318.168ZM101.455 317.23C100.013 317.23 99.2012 315.998 99.2012 314.612C99.2012 313.24 100.013 312.008 101.455 312.008C102.897 312.008 103.695 313.24 103.695 314.612C103.695 315.998 102.897 317.23 101.455 317.23ZM112.127 318V311.238H111.077V316.208C110.685 316.754 109.901 317.23 109.075 317.23C108.165 317.23 107.563 316.88 107.563 315.69V311.238H106.513V316.012C106.513 317.482 107.255 318.168 108.669 318.168C109.677 318.168 110.559 317.636 111.077 317.048V318H112.127ZM117.206 318.168C118.438 318.168 119.166 317.664 119.684 316.992L118.984 316.348C118.536 316.95 117.962 317.23 117.262 317.23C115.82 317.23 114.924 316.11 114.924 314.612C114.924 313.114 115.82 312.008 117.262 312.008C117.962 312.008 118.536 312.274 118.984 312.89L119.684 312.246C119.166 311.574 118.438 311.07 117.206 311.07C115.19 311.07 113.832 312.61 113.832 314.612C113.832 316.628 115.19 318.168 117.206 318.168ZM126.783 318V313.226C126.783 311.756 126.041 311.07 124.627 311.07C123.605 311.07 122.681 311.658 122.205 312.218V308.662H121.155V318H122.205V313.058C122.611 312.512 123.395 312.008 124.207 312.008C125.117 312.008 125.733 312.358 125.733 313.548V318H126.783ZM131.932 318.168C133.038 318.168 133.948 317.804 134.62 317.132L134.116 316.446C133.584 316.992 132.8 317.3 132.03 317.3C130.574 317.3 129.678 316.236 129.594 314.962H135.068V314.696C135.068 312.666 133.864 311.07 131.82 311.07C129.888 311.07 128.488 312.652 128.488 314.612C128.488 316.726 129.93 318.168 131.932 318.168ZM134.032 314.192H129.594C129.65 313.156 130.364 311.938 131.806 311.938C133.346 311.938 134.018 313.184 134.032 314.192ZM137.819 318V313.212C138.127 312.666 139.009 312.134 139.653 312.134C139.821 312.134 139.947 312.148 140.073 312.176V311.098C139.149 311.098 138.365 311.616 137.819 312.33V311.238H136.769V318H137.819Z" fill="#838383"/>
<path d="M22.415 340V335.44H27.62V334.33H22.415V331.105H27.725V329.995H21.17V340H22.415ZM30.4971 340V334.87C30.8271 334.285 31.7721 333.715 32.4621 333.715C32.6421 333.715 32.7771 333.73 32.9121 333.76V332.605C31.9221 332.605 31.0821 333.16 30.4971 333.925V332.755H29.3721V340H30.4971ZM37.5932 340.18C38.7782 340.18 39.7532 339.79 40.4732 339.07L39.9332 338.335C39.3632 338.92 38.5232 339.25 37.6982 339.25C36.1382 339.25 35.1782 338.11 35.0882 336.745H40.9532V336.46C40.9532 334.285 39.6632 332.575 37.4732 332.575C35.4032 332.575 33.9032 334.27 33.9032 336.37C33.9032 338.635 35.4482 340.18 37.5932 340.18ZM39.8432 335.92H35.0882C35.1482 334.81 35.9132 333.505 37.4582 333.505C39.1082 333.505 39.8282 334.84 39.8432 335.92ZM46.0454 340.18C47.2304 340.18 48.2054 339.79 48.9254 339.07L48.3854 338.335C47.8154 338.92 46.9754 339.25 46.1504 339.25C44.5904 339.25 43.6304 338.11 43.5404 336.745H49.4054V336.46C49.4054 334.285 48.1154 332.575 45.9254 332.575C43.8554 332.575 42.3554 334.27 42.3554 336.37C42.3554 338.635 43.9004 340.18 46.0454 340.18ZM48.2954 335.92H43.5404C43.6004 334.81 44.3654 333.505 45.9104 333.505C47.5604 333.505 48.2804 334.84 48.2954 335.92ZM56.3847 340V336.025H59.1597C61.1397 336.025 62.2947 334.645 62.2947 333.01C62.2947 331.375 61.1697 329.995 59.1597 329.995H55.1397V340H56.3847ZM59.0097 334.915H56.3847V331.105H59.0097C60.1947 331.105 61.0047 331.885 61.0047 333.01C61.0047 334.135 60.1947 334.915 59.0097 334.915ZM68.0234 340.18C70.7384 340.18 72.1034 338.59 72.1034 336.1V329.995H70.8584V336.085C70.8584 337.915 69.8684 339.07 68.0234 339.07C66.1784 339.07 65.1884 337.915 65.1884 336.085V329.995H63.9434V336.115C63.9434 338.575 65.3084 340.18 68.0234 340.18ZM79.1864 340.18C80.9564 340.18 82.1564 339.34 82.9964 338.2L81.9314 337.615C81.3614 338.47 80.3264 339.07 79.1864 339.07C76.9964 339.07 75.3314 337.375 75.3314 335.005C75.3314 332.62 76.9964 330.94 79.1864 330.94C80.3264 330.94 81.3614 331.555 81.9314 332.395L82.9814 331.81C82.1864 330.685 80.9564 329.83 79.1864 329.83C76.3064 329.83 74.0414 331.93 74.0414 335.005C74.0414 338.08 76.3064 340.18 79.1864 340.18ZM93.1903 340.18C94.9603 340.18 96.1603 339.34 97.0003 338.2L95.9353 337.615C95.3653 338.47 94.3303 339.07 93.1903 339.07C91.0003 339.07 89.3353 337.375 89.3353 335.005C89.3353 332.62 91.0003 330.94 93.1903 330.94C94.3303 330.94 95.3653 331.555 95.9353 332.395L96.9853 331.81C96.1903 330.685 94.9603 329.83 93.1903 329.83C90.3103 329.83 88.0453 331.93 88.0453 335.005C88.0453 338.08 90.3103 340.18 93.1903 340.18ZM104.572 340V334.885C104.572 333.31 103.777 332.575 102.262 332.575C101.167 332.575 100.177 333.205 99.667 333.805V329.995H98.542V340H99.667V334.705C100.102 334.12 100.942 333.58 101.812 333.58C102.787 333.58 103.447 333.955 103.447 335.23V340H104.572ZM110.088 340.18C111.273 340.18 112.248 339.79 112.968 339.07L112.428 338.335C111.858 338.92 111.018 339.25 110.193 339.25C108.633 339.25 107.673 338.11 107.583 336.745H113.448V336.46C113.448 334.285 112.158 332.575 109.968 332.575C107.898 332.575 106.398 334.27 106.398 336.37C106.398 338.635 107.943 340.18 110.088 340.18ZM112.338 335.92H107.583C107.643 334.81 108.408 333.505 109.953 333.505C111.603 333.505 112.323 334.84 112.338 335.92ZM118.466 340.18C119.786 340.18 120.566 339.64 121.121 338.92L120.371 338.23C119.891 338.875 119.276 339.175 118.526 339.175C116.981 339.175 116.021 337.975 116.021 336.37C116.021 334.765 116.981 333.58 118.526 333.58C119.276 333.58 119.891 333.865 120.371 334.525L121.121 333.835C120.566 333.115 119.786 332.575 118.466 332.575C116.306 332.575 114.851 334.225 114.851 336.37C114.851 338.53 116.306 340.18 118.466 340.18ZM129.072 340L125.847 336.04L129.057 332.755H127.632L123.822 336.61V329.995H122.697V340H123.822V337.93L125.022 336.745L127.632 340H129.072ZM143.315 340L146.165 329.995H144.785L142.58 338.335L140.285 329.995H139.25L136.955 338.335L134.735 329.995H133.355L136.205 340H137.555L139.76 331.93L141.965 340H143.315ZM150.076 340.18C152.281 340.18 153.661 338.47 153.661 336.37C153.661 334.27 152.281 332.575 150.076 332.575C147.871 332.575 146.491 334.27 146.491 336.37C146.491 338.47 147.871 340.18 150.076 340.18ZM150.076 339.175C148.531 339.175 147.661 337.855 147.661 336.37C147.661 334.9 148.531 333.58 150.076 333.58C151.621 333.58 152.476 334.9 152.476 336.37C152.476 337.855 151.621 339.175 150.076 339.175ZM156.62 340V334.87C156.95 334.285 157.895 333.715 158.585 333.715C158.765 333.715 158.9 333.73 159.035 333.76V332.605C158.045 332.605 157.205 333.16 156.62 333.925V332.755H155.495V340H156.62ZM162.276 340.18C162.936 340.18 163.341 339.985 163.626 339.715L163.296 338.875C163.146 339.04 162.846 339.175 162.531 339.175C162.036 339.175 161.796 338.785 161.796 338.245V333.745H163.266V332.755H161.796V330.775H160.671V332.755H159.471V333.745H160.671V338.485C160.671 339.565 161.211 340.18 162.276 340.18ZM170.885 340V334.885C170.885 333.31 170.09 332.575 168.575 332.575C167.48 332.575 166.49 333.205 165.98 333.805V329.995H164.855V340H165.98V334.705C166.415 334.12 167.255 333.58 168.125 333.58C169.1 333.58 169.76 333.955 169.76 335.23V340H170.885ZM181.483 333.562C181.41 334.24 181.147 334.786 180.694 335.203C180.241 335.62 179.562 335.896 178.655 336.031L182.038 340H180.397L177.022 336.055L177.179 334.914H177.897C178.153 334.914 178.377 334.904 178.569 334.883C178.762 334.862 178.929 334.833 179.069 334.797C179.215 334.755 179.34 334.706 179.444 334.648C179.549 334.586 179.645 334.516 179.733 334.438C179.963 334.219 180.111 333.927 180.179 333.562H177.022V332.422H180.163C180.121 332.219 180.054 332.047 179.96 331.906C179.871 331.76 179.754 331.63 179.608 331.516C179.463 331.401 179.27 331.318 179.03 331.266C178.796 331.214 178.481 331.188 178.085 331.188H177.022V330.047H183.772V331.188H180.772C180.955 331.318 181.106 331.49 181.226 331.703C181.345 331.917 181.429 332.156 181.476 332.422H183.772V333.562H181.483ZM189.202 340.18C191.212 340.18 192.757 338.92 192.757 336.88C192.757 334.825 191.242 333.685 189.577 333.685C188.572 333.685 187.717 334.105 187.237 334.585V331.105H192.112V329.995H185.992V335.395L186.907 335.71C187.582 335.05 188.332 334.765 189.217 334.765C190.567 334.765 191.512 335.605 191.512 336.925C191.512 338.14 190.567 339.07 189.202 339.07C187.972 339.07 187.102 338.59 186.442 337.75L185.677 338.575C186.427 339.565 187.507 340.18 189.202 340.18ZM198.124 340.18C200.854 340.18 201.949 337.435 201.949 335.005C201.949 332.56 200.854 329.845 198.124 329.845C195.379 329.845 194.299 332.56 194.299 335.005C194.299 337.435 195.379 340.18 198.124 340.18ZM198.124 339.07C196.219 339.07 195.574 337 195.574 335.005C195.574 333.01 196.219 330.955 198.124 330.955C200.029 330.955 200.674 333.01 200.674 335.005C200.674 337 200.029 339.07 198.124 339.07ZM203.604 340.3L207.159 329.695H206.274L202.719 340.3H203.604ZM211.207 336.865V335.875H207.607V336.865H211.207Z" fill="#575757"/>
<path d="M216.868 212L214.348 208.192C215.622 208.08 216.77 207.156 216.77 205.476C216.77 203.754 215.552 202.662 213.844 202.662H210.092V212H211.254V208.29H213.116L215.496 212H216.868ZM213.704 207.268H211.254V203.698H213.704C214.81 203.698 215.566 204.426 215.566 205.476C215.566 206.526 214.81 207.268 213.704 207.268ZM221.196 212.168C222.302 212.168 223.212 211.804 223.884 211.132L223.38 210.446C222.848 210.992 222.064 211.3 221.294 211.3C219.838 211.3 218.942 210.236 218.858 208.962H224.332V208.696C224.332 206.666 223.128 205.07 221.084 205.07C219.152 205.07 217.752 206.652 217.752 208.612C217.752 210.726 219.194 212.168 221.196 212.168ZM223.296 208.192H218.858C218.914 207.156 219.628 205.938 221.07 205.938C222.61 205.938 223.282 207.184 223.296 208.192ZM232.934 212L235.09 205.238H233.998L232.346 210.628L230.568 205.238H229.672L227.894 210.628L226.242 205.238H225.15L227.306 212H228.356L230.12 206.568L231.884 212H232.934ZM241.592 212V207.352C241.592 205.714 240.402 205.07 238.974 205.07C237.868 205.07 237 205.434 236.272 206.19L236.762 206.918C237.364 206.274 238.022 205.98 238.834 205.98C239.814 205.98 240.542 206.498 240.542 207.408V208.626C239.996 207.996 239.226 207.702 238.302 207.702C237.154 207.702 235.936 208.416 235.936 209.928C235.936 211.398 237.154 212.168 238.302 212.168C239.212 212.168 239.982 211.846 240.542 211.23V212H241.592ZM238.68 211.412C237.7 211.412 237.014 210.796 237.014 209.942C237.014 209.074 237.7 208.458 238.68 208.458C239.422 208.458 240.136 208.738 240.542 209.298V210.572C240.136 211.132 239.422 211.412 238.68 211.412ZM244.746 212V207.212C245.054 206.666 245.936 206.134 246.58 206.134C246.748 206.134 246.874 206.148 247 206.176V205.098C246.076 205.098 245.292 205.616 244.746 206.33V205.238H243.696V212H244.746ZM254.268 212V202.662H253.218V206.26C252.672 205.518 251.846 205.07 250.936 205.07C249.158 205.07 247.926 206.47 247.926 208.626C247.926 210.824 249.172 212.168 250.936 212.168C251.888 212.168 252.714 211.678 253.218 210.992V212H254.268ZM251.188 211.23C249.83 211.23 249.018 210.124 249.018 208.626C249.018 207.128 249.83 206.008 251.188 206.008C252.028 206.008 252.84 206.512 253.218 207.1V210.166C252.84 210.754 252.028 211.23 251.188 211.23ZM258.512 212.168C260.262 212.168 261.172 211.258 261.172 210.124C261.172 207.492 256.986 208.472 256.986 206.988C256.986 206.386 257.56 205.924 258.484 205.924C259.352 205.924 260.094 206.288 260.5 206.778L260.99 206.05C260.444 205.504 259.632 205.07 258.484 205.07C256.874 205.07 255.964 205.966 255.964 207.016C255.964 209.522 260.15 208.514 260.15 210.152C260.15 210.824 259.59 211.314 258.554 211.314C257.63 211.314 256.776 210.866 256.328 210.348L255.782 211.104C256.468 211.832 257.406 212.168 258.512 212.168ZM270.786 212C272.494 212 273.488 210.978 273.488 209.48C273.488 208.36 272.662 207.338 271.668 207.184C272.522 207.002 273.306 206.218 273.306 205.042C273.306 203.642 272.312 202.662 270.688 202.662H266.53V212H270.786ZM270.492 206.708H267.692V203.698H270.492C271.542 203.698 272.102 204.37 272.102 205.21C272.102 206.064 271.542 206.708 270.492 206.708ZM270.548 210.964H267.692V207.744H270.548C271.696 207.744 272.284 208.5 272.284 209.354C272.284 210.348 271.64 210.964 270.548 210.964ZM280.57 212V207.352C280.57 205.714 279.38 205.07 277.952 205.07C276.846 205.07 275.978 205.434 275.25 206.19L275.74 206.918C276.342 206.274 277 205.98 277.812 205.98C278.792 205.98 279.52 206.498 279.52 207.408V208.626C278.974 207.996 278.204 207.702 277.28 207.702C276.132 207.702 274.914 208.416 274.914 209.928C274.914 211.398 276.132 212.168 277.28 212.168C278.19 212.168 278.96 211.846 279.52 211.23V212H280.57ZM277.658 211.412C276.678 211.412 275.992 210.796 275.992 209.942C275.992 209.074 276.678 208.458 277.658 208.458C278.4 208.458 279.114 208.738 279.52 209.298V210.572C279.114 211.132 278.4 211.412 277.658 211.412ZM283.725 212V202.662H282.675V212H283.725ZM291.098 212V207.352C291.098 205.714 289.908 205.07 288.48 205.07C287.374 205.07 286.506 205.434 285.778 206.19L286.268 206.918C286.87 206.274 287.528 205.98 288.34 205.98C289.32 205.98 290.048 206.498 290.048 207.408V208.626C289.502 207.996 288.732 207.702 287.808 207.702C286.66 207.702 285.442 208.416 285.442 209.928C285.442 211.398 286.66 212.168 287.808 212.168C288.718 212.168 289.488 211.846 290.048 211.23V212H291.098ZM288.186 211.412C287.206 211.412 286.52 210.796 286.52 209.942C286.52 209.074 287.206 208.458 288.186 208.458C288.928 208.458 289.642 208.738 290.048 209.298V210.572C289.642 211.132 288.928 211.412 288.186 211.412ZM298.816 212V207.254C298.816 205.784 298.074 205.07 296.66 205.07C295.652 205.07 294.728 205.658 294.252 206.218V205.238H293.202V212H294.252V207.058C294.644 206.512 295.428 206.008 296.254 206.008C297.164 206.008 297.766 206.386 297.766 207.576V212H298.816ZM303.895 212.168C305.127 212.168 305.855 211.664 306.373 210.992L305.673 210.348C305.225 210.95 304.651 211.23 303.951 211.23C302.509 211.23 301.613 210.11 301.613 208.612C301.613 207.114 302.509 206.008 303.951 206.008C304.651 206.008 305.225 206.274 305.673 206.89L306.373 206.246C305.855 205.574 305.127 205.07 303.895 205.07C301.879 205.07 300.521 206.61 300.521 208.612C300.521 210.628 301.879 212.168 303.895 212.168ZM310.897 212.168C312.003 212.168 312.913 211.804 313.585 211.132L313.081 210.446C312.549 210.992 311.765 211.3 310.995 211.3C309.539 211.3 308.643 210.236 308.559 208.962H314.033V208.696C314.033 206.666 312.829 205.07 310.785 205.07C308.853 205.07 307.453 206.652 307.453 208.612C307.453 210.726 308.895 212.168 310.897 212.168ZM312.997 208.192H308.559C308.615 207.156 309.329 205.938 310.771 205.938C312.311 205.938 312.983 207.184 312.997 208.192Z" fill="#838383"/>

<defs>

<linearGradient id="paint0_linear" x1="166" y1="429" x2="166" y2="468" gradientUnits="userSpaceOnUse">
<stop stop-color="#7DAAED"/>
<stop offset="1" stop-color="#6299EC"/>
</linearGradient>
</defs>
</svg>
