<svg width="230" height="50" viewBox="0 0 230 50" fill="none" xmlns="http://www.w3.org/2000/svg">
<g filter="url(#filter0_d)">
<rect width="230" height="50" rx="25" fill="url(#paint0_linear)"/>
<path d="M71.6576 30L69.0496 25.808C70.3296 25.6 71.5776 24.576 71.5776 22.672C71.5776 20.704 70.2016 19.328 68.0896 19.328H63.4016V30H65.2736V26.016H67.1296L69.4976 30H71.6576ZM67.8336 24.368H65.2736V20.976H67.8336C68.8896 20.976 69.6576 21.648 69.6576 22.672C69.6576 23.696 68.8896 24.368 67.8336 24.368ZM80.7605 30V28.352H75.3205V25.392H80.6485V23.744H75.3205V20.976H80.7605V19.328H73.4485V30H80.7605ZM86.6509 30C89.9789 30 92.2349 27.808 92.2349 24.672C92.2349 21.536 89.9789 19.328 86.6509 19.328H82.6829V30H86.6509ZM86.6509 28.352H84.5549V20.976H86.6509C89.0349 20.976 90.3149 22.608 90.3149 24.672C90.3149 26.688 88.9709 28.352 86.6509 28.352ZM101.354 30V28.352H95.9143V25.392H101.242V23.744H95.9143V20.976H101.354V19.328H94.0423V30H101.354ZM110.589 30V28.352H105.149V25.392H110.477V23.744H105.149V20.976H110.589V19.328H103.277V30H110.589ZM123.599 30V19.328H120.959L118.047 26.352L115.151 19.328H112.511V30H114.383V22.08L117.647 30H118.447L121.727 22.08V30H123.599ZM139.228 30V19.328H137.356V26.736L131.9 19.328H129.98V30H131.852V22.384L137.42 30H139.228ZM146.471 30.192C149.671 30.192 151.927 27.856 151.927 24.672C151.927 21.488 149.671 19.152 146.471 19.152C143.271 19.152 141.015 21.488 141.015 24.672C141.015 27.856 143.271 30.192 146.471 30.192ZM146.471 28.528C144.311 28.528 142.935 26.864 142.935 24.672C142.935 22.464 144.311 20.816 146.471 20.816C148.615 20.816 150.007 22.464 150.007 24.672C150.007 26.864 148.615 28.528 146.471 28.528ZM163.577 30L166.617 19.328H164.521L162.457 27.552L160.249 19.328H158.761L156.553 27.552L154.473 19.328H152.377L155.433 30H157.433L159.497 22.128L161.577 30H163.577Z" fill="white"/>
</g>
<defs>
<linearGradient id="paint0_linear" x1="115" y1="0" x2="115" y2="39" gradientUnits="userSpaceOnUse">
<stop stop-color="#7DAAED"/>
<stop offset="1" stop-color="#6299EC"/>
</linearGradient>
</defs>
</svg>
