<svg width="331" height="50" viewBox="0 0 331 50" fill="none" xmlns="http://www.w3.org/2000/svg">
<g filter="url(#filter0_d)">
<rect width="331" height="50" rx="25" fill="url(#paint0_linear)"/>
<path d="M125.057 30.192C127.937 30.192 129.185 28.672 129.185 26.896C129.185 22.912 122.977 24.144 122.977 22.16C122.977 21.36 123.681 20.832 124.785 20.832C125.905 20.832 127.041 21.216 127.873 22.048L128.945 20.656C127.953 19.696 126.609 19.168 124.945 19.168C122.609 19.168 121.057 20.528 121.057 22.288C121.057 26.224 127.281 24.832 127.281 27.072C127.281 27.776 126.673 28.528 125.137 28.528C123.649 28.528 122.497 27.84 121.761 27.056L120.721 28.496C121.665 29.504 123.089 30.192 125.057 30.192ZM136.029 30.192C138.189 30.192 139.501 29.072 140.317 27.792L138.717 26.976C138.205 27.872 137.181 28.528 136.029 28.528C133.917 28.528 132.349 26.912 132.349 24.672C132.349 22.432 133.917 20.816 136.029 20.816C137.181 20.816 138.205 21.488 138.717 22.368L140.317 21.552C139.517 20.272 138.189 19.152 136.029 19.152C132.877 19.152 130.429 21.392 130.429 24.672C130.429 27.952 132.877 30.192 136.029 30.192ZM151.338 30L147.146 19.328H144.81L140.618 30H142.746L143.53 27.952H148.426L149.21 30H151.338ZM147.898 26.304H144.058L145.978 21.216L147.898 26.304ZM161.751 30V19.328H159.879V26.736L154.423 19.328H152.503V30H154.375V22.384L159.943 30H161.751ZM173.248 30.192C175.408 30.192 176.72 29.072 177.536 27.792L175.936 26.976C175.424 27.872 174.4 28.528 173.248 28.528C171.136 28.528 169.568 26.912 169.568 24.672C169.568 22.432 171.136 20.816 173.248 20.816C174.4 20.816 175.424 21.488 175.936 22.368L177.536 21.552C176.736 20.272 175.408 19.152 173.248 19.152C170.096 19.152 167.648 21.392 167.648 24.672C167.648 27.952 170.096 30.192 173.248 30.192ZM184.01 30.192C187.21 30.192 189.466 27.856 189.466 24.672C189.466 21.488 187.21 19.152 184.01 19.152C180.81 19.152 178.554 21.488 178.554 24.672C178.554 27.856 180.81 30.192 184.01 30.192ZM184.01 28.528C181.85 28.528 180.474 26.864 180.474 24.672C180.474 22.464 181.85 20.816 184.01 20.816C186.154 20.816 187.546 22.464 187.546 24.672C187.546 26.864 186.154 28.528 184.01 28.528ZM195.237 30C198.565 30 200.821 27.808 200.821 24.672C200.821 21.536 198.565 19.328 195.237 19.328H191.269V30H195.237ZM195.237 28.352H193.141V20.976H195.237C197.621 20.976 198.901 22.608 198.901 24.672C198.901 26.688 197.557 28.352 195.237 28.352ZM209.94 30V28.352H204.5V25.392H209.828V23.744H204.5V20.976H209.94V19.328H202.628V30H209.94Z" fill="white"/>
</g>
<defs>
<linearGradient id="paint0_linear" x1="165.5" y1="0" x2="165.5" y2="39" gradientUnits="userSpaceOnUse">
<stop stop-color="#7DAAED"/>
<stop offset="1" stop-color="#6299EC"/>
</linearGradient>
</defs>
</svg>
