<svg width="355" height="104" viewBox="0 0 355 104" fill="none" xmlns="http://www.w3.org/2000/svg">
<g filter="url(#filter0_d)">
<path d="M12 15C12 11.6863 14.6863 9 18 9H337C340.314 9 343 11.6863 343 15V83C343 86.3137 340.314 89 337 89H18C14.6863 89 12 86.3137 12 83V15Z" fill="url(#paint0_linear)"/>
</g>
<circle cx="53" cy="49" r="23" fill="white"/>
<path d="M49.0714 52.1428H42.7857C42.3518 52.1428 42 52.4946 42 52.9286V59.2142C42 59.6482 42.3518 60 42.7857 60H49.0714C49.5054 60 49.8571 59.6482 49.8571 59.2142V52.9286C49.8571 52.4946 49.5054 52.1428 49.0714 52.1428ZM46.7143 56.8571C46.7143 57.2911 46.3625 57.6428 45.9286 57.6428C45.4946 57.6428 45.1428 57.2911 45.1428 56.8571V55.2857C45.1428 54.8517 45.4946 54.5 45.9286 54.5C46.3625 54.5 46.7143 54.8517 46.7143 55.2857V56.8571Z" fill="#669BEC"/>
<path d="M45.1429 49.7857H42.7857C42.3518 49.7857 42 50.1375 42 50.5714C42 51.0054 42.3518 51.3572 42.7857 51.3572H45.1429C45.5768 51.3572 45.9286 51.0054 45.9286 50.5714C45.9286 50.1375 45.5768 49.7857 45.1429 49.7857Z" fill="#669BEC"/>
<path d="M43.5714 47.4286H42.7857C42.3518 47.4286 42 47.7804 42 48.2143C42 48.6483 42.3518 49 42.7857 49H43.5715C44.0054 49 44.3572 48.6483 44.3572 48.2143C44.3572 47.7804 44.0054 47.4286 43.5714 47.4286Z" fill="#669BEC"/>
<path d="M60.8578 41.1429H57.715V38.7857C57.715 38.3518 57.3632 38 56.9293 38H51.4293C50.9953 38 50.6436 38.3518 50.6436 38.7857C50.6436 39.2197 50.9953 39.5715 51.4293 39.5715H56.1436V41.9286C56.1436 42.3625 56.4953 42.7143 56.9293 42.7143H60.8578C61.2918 42.7143 61.6436 42.3625 61.6436 41.9286C61.6436 41.4946 61.2918 41.1429 60.8578 41.1429Z" fill="#669BEC"/>
<path d="M57.7144 43.5C57.2805 43.5 56.9287 43.8518 56.9287 44.2857V47.4286C56.9287 47.8625 57.2805 48.2143 57.7144 48.2143C58.1484 48.2143 58.5002 47.8625 58.5002 47.4286V44.2857C58.5002 43.8518 58.1484 43.5 57.7144 43.5Z" fill="#669BEC"/>
<path d="M49.0722 47.4286H45.9293C45.4953 47.4286 45.1436 47.7804 45.1436 48.2143C45.1436 48.6483 45.4953 49 45.9293 49H49.0722C49.5061 49 49.8579 48.6483 49.8579 48.2143C49.8579 47.7804 49.5061 47.4286 49.0722 47.4286Z" fill="#669BEC"/>
<path d="M55.3559 43.5H52.2131V41.1428C52.2131 40.7089 51.8613 40.3571 51.4273 40.3571C50.9934 40.3571 50.6416 40.7089 50.6416 41.1428V44.2857C50.6416 44.7197 50.9934 45.0714 51.4273 45.0714H55.3559C55.7898 45.0714 56.1416 44.7197 56.1416 44.2857C56.1417 43.8518 55.7899 43.5 55.3559 43.5Z" fill="#669BEC"/>
<path d="M53.7857 40.3571C53.3518 40.3571 53 40.7089 53 41.1428V41.9286C53 42.3625 53.3518 42.7143 53.7857 42.7143C54.2197 42.7143 54.5715 42.3625 54.5715 41.9286V41.1428C54.5715 40.7089 54.2197 40.3571 53.7857 40.3571Z" fill="#669BEC"/>
<path d="M49.0714 38H42.7857C42.3518 38 42 38.3518 42 38.7857V45.0714C42 45.5054 42.3518 45.8571 42.7857 45.8571H49.0714C49.5054 45.8571 49.8571 45.5054 49.8571 45.0714V38.7857C49.8571 38.3518 49.5054 38 49.0714 38ZM46.7143 42.7143C46.7143 43.1482 46.3625 43.5 45.9286 43.5C45.4946 43.5 45.1428 43.1482 45.1428 42.7143V41.1429C45.1428 40.7089 45.4946 40.3571 45.9286 40.3571C46.3625 40.3571 46.7143 40.7089 46.7143 41.1429V42.7143Z" fill="#669BEC"/>
<path d="M54.5715 50.5714H53.7857C53.3518 50.5714 53 50.9232 53 51.3571C53 51.7911 53.3518 52.1428 53.7857 52.1428H54.5715C55.0054 52.1428 55.3572 51.791 55.3572 51.3571C55.3572 50.9231 55.0054 50.5714 54.5715 50.5714Z" fill="#669BEC"/>
<path d="M63.2138 44.2857H60.0709C59.6369 44.2857 59.2852 44.6375 59.2852 45.0714C59.2852 45.5054 59.6369 45.8572 60.0709 45.8572H63.2138C63.6477 45.8572 63.9995 45.5054 63.9995 45.0714C63.9995 44.6375 63.6477 44.2857 63.2138 44.2857Z" fill="#669BEC"/>
<path d="M63.2138 46.6428H60.0709C59.6369 46.6428 59.2852 46.9946 59.2852 47.4286C59.2852 47.8625 59.6369 48.2143 60.0709 48.2143H62.428V50.5714C62.428 51.0054 62.7798 51.3571 63.2138 51.3571C63.6477 51.3571 63.9995 51.0054 63.9995 50.5714V47.4286C63.9995 46.9946 63.6477 46.6428 63.2138 46.6428Z" fill="#669BEC"/>
<path d="M63.2143 38H59.2857C58.8518 38 58.5 38.3518 58.5 38.7857C58.5 39.2197 58.8518 39.5715 59.2857 39.5715H62.4286V42.7143C62.4286 43.1482 62.7804 43.5 63.2143 43.5C63.6483 43.5 64.0001 43.1482 64.0001 42.7143V38.7857C64 38.3518 63.6482 38 63.2143 38Z" fill="#669BEC"/>
<path d="M63.215 52.1428H56.9293C56.4953 52.1428 56.1436 52.4946 56.1436 52.9286V59.2142C56.1436 59.6482 56.4953 60 56.9293 60H63.215C63.6489 60 64.0007 59.6482 64.0007 59.2142V52.9286C64.0007 52.4946 63.6489 52.1428 63.215 52.1428ZM60.8578 56.8571C60.8578 57.2911 60.5061 57.6428 60.0721 57.6428C59.6382 57.6428 59.2864 57.2911 59.2864 56.8571V55.2857C59.2864 54.8517 59.6382 54.5 60.0721 54.5C60.5061 54.5 60.8578 54.8517 60.8578 55.2857V56.8571Z" fill="#669BEC"/>
<path d="M54.5722 52.9286H51.4293C50.9953 52.9286 50.6436 53.2804 50.6436 53.7143C50.6436 54.1483 50.9953 54.5 51.4293 54.5H53.7864V59.2143C53.7864 59.6482 54.1382 60 54.5722 60C55.0061 60 55.3579 59.6482 55.3579 59.2143V53.7143C55.3578 53.2804 55.0061 52.9286 54.5722 52.9286Z" fill="#669BEC"/>
<path d="M60.8578 49H56.9293C56.4953 49 56.1436 49.3518 56.1436 49.7857C56.1436 50.2197 56.4953 50.5715 56.9293 50.5715H60.8578C61.2918 50.5715 61.6436 50.2197 61.6436 49.7857C61.6436 49.3518 61.2918 49 60.8578 49Z" fill="#669BEC"/>
<path d="M54.5715 48.2143H53.7857C53.3518 48.2143 53 48.5661 53 49C53 49.434 53.3518 49.7857 53.7857 49.7857H54.5715C55.0054 49.7857 55.3572 49.4339 55.3572 49C55.3572 48.566 55.0054 48.2143 54.5715 48.2143Z" fill="#669BEC"/>
<path d="M51.4293 55.2857C50.9953 55.2857 50.6436 55.6375 50.6436 56.0714V59.2143C50.6436 59.6482 50.9953 60 51.4293 60C51.8632 60 52.215 59.6482 52.215 59.2143V56.0714C52.215 55.6375 51.8632 55.2857 51.4293 55.2857Z" fill="#669BEC"/>
<path d="M55.3571 45.8572H51.4286C50.9946 45.8572 50.6429 46.209 50.6429 46.6429V49.7857H48.2857C47.8518 49.7857 47.5 50.1375 47.5 50.5715C47.5 51.0054 47.8518 51.3572 48.2857 51.3572H51.4286C51.8625 51.3572 52.2143 51.0054 52.2143 50.5715V47.4286H55.3572C55.7911 47.4286 56.1429 47.0768 56.1429 46.6429C56.1429 46.209 55.7911 45.8572 55.3571 45.8572Z" fill="#669BEC"/>
<path d="M95.8 54.192C98.664 54.192 99.928 52.656 99.928 50.88C99.928 46.912 93.72 48.144 93.72 46.144C93.72 45.36 94.424 44.816 95.512 44.816C96.632 44.816 97.768 45.2 98.616 46.048L99.672 44.656C98.696 43.696 97.336 43.152 95.688 43.152C93.336 43.152 91.8 44.512 91.8 46.288C91.8 50.208 98.008 48.816 98.008 51.056C98.008 51.776 97.416 52.528 95.88 52.528C94.392 52.528 93.224 51.824 92.504 51.04L91.448 52.496C92.408 53.488 93.832 54.192 95.8 54.192ZM105.108 54.192C106.628 54.192 107.524 53.536 108.068 52.816L106.964 51.776C106.532 52.384 105.94 52.704 105.188 52.704C103.796 52.704 102.852 51.632 102.852 50.128C102.852 48.624 103.796 47.568 105.188 47.568C105.94 47.568 106.532 47.856 106.964 48.464L108.068 47.456C107.524 46.72 106.628 46.08 105.108 46.08C102.772 46.08 101.124 47.792 101.124 50.128C101.124 52.464 102.772 54.192 105.108 54.192ZM115.973 54V48.864C115.973 46.8 114.469 46.08 112.741 46.08C111.509 46.08 110.389 46.464 109.493 47.328L110.197 48.496C110.853 47.824 111.621 47.504 112.485 47.504C113.541 47.504 114.293 48.048 114.293 48.944V50.096C113.717 49.44 112.837 49.104 111.781 49.104C110.517 49.104 109.109 49.84 109.109 51.632C109.109 53.328 110.533 54.192 111.781 54.192C112.805 54.192 113.717 53.824 114.293 53.152V54H115.973ZM112.453 53.04C111.509 53.04 110.789 52.496 110.789 51.648C110.789 50.816 111.509 50.256 112.453 50.256C113.173 50.256 113.893 50.528 114.293 51.056V52.24C113.893 52.768 113.173 53.04 112.453 53.04ZM125.062 54V48.56C125.062 46.976 124.231 46.08 122.567 46.08C121.351 46.08 120.343 46.704 119.831 47.312V46.272H118.151V54H119.831V48.592C120.231 48.08 120.967 47.568 121.815 47.568C122.759 47.568 123.383 47.952 123.383 49.168V54H125.062ZM136.409 54.192C137.401 54.192 138.313 53.968 139.097 53.552L140.025 54.592L141.321 53.504L140.441 52.512C141.337 51.536 141.865 50.208 141.865 48.672C141.865 45.488 139.593 43.152 136.409 43.152C133.209 43.152 130.953 45.488 130.953 48.672C130.953 51.856 133.209 54.192 136.409 54.192ZM136.409 52.528C134.249 52.528 132.873 50.864 132.873 48.672C132.873 46.464 134.249 44.816 136.409 44.816C138.553 44.816 139.945 46.464 139.945 48.672C139.945 49.616 139.689 50.464 139.225 51.12L137.897 49.616L136.585 50.704L137.913 52.208C137.465 52.416 136.969 52.528 136.409 52.528ZM151.924 54L149.3 49.808C150.596 49.6 151.844 48.56 151.844 46.672C151.844 44.688 150.452 43.328 148.34 43.328H143.652V54H145.524V50.016H147.396L149.748 54H151.924ZM148.1 48.368H145.524V44.976H148.1C149.156 44.976 149.924 45.632 149.924 46.656C149.924 47.696 149.156 48.368 148.1 48.368ZM162.975 54.192C165.119 54.192 166.447 53.056 167.263 51.776L165.663 50.976C165.151 51.856 164.111 52.528 162.975 52.528C160.863 52.528 159.295 50.896 159.295 48.672C159.295 46.416 160.863 44.816 162.975 44.816C164.111 44.816 165.151 45.472 165.663 46.368L167.247 45.536C166.463 44.256 165.119 43.152 162.975 43.152C159.823 43.152 157.375 45.376 157.375 48.672C157.375 51.952 159.823 54.192 162.975 54.192ZM172.201 54.192C174.665 54.192 176.169 52.336 176.169 50.128C176.169 47.904 174.665 46.08 172.201 46.08C169.737 46.08 168.233 47.904 168.233 50.128C168.233 52.336 169.737 54.192 172.201 54.192ZM172.201 52.704C170.777 52.704 169.977 51.504 169.977 50.128C169.977 48.768 170.777 47.568 172.201 47.568C173.641 47.568 174.425 48.768 174.425 50.128C174.425 51.504 173.641 52.704 172.201 52.704ZM185.005 54V43.328H183.325V47.344C182.717 46.512 181.821 46.08 180.845 46.08C178.861 46.08 177.421 47.632 177.421 50.128C177.421 52.688 178.877 54.192 180.845 54.192C181.853 54.192 182.733 53.712 183.325 52.944V54H185.005ZM181.341 52.704C179.997 52.704 179.149 51.632 179.149 50.128C179.149 48.64 179.997 47.568 181.341 47.568C182.125 47.568 182.957 48.032 183.325 48.608V51.664C182.957 52.24 182.125 52.704 181.341 52.704ZM190.766 54.192C191.982 54.192 193.118 53.792 193.902 53.056L193.134 51.952C192.574 52.512 191.694 52.816 190.926 52.816C189.47 52.816 188.606 51.84 188.478 50.688H194.43V50.272C194.43 47.84 192.958 46.08 190.638 46.08C188.35 46.08 186.718 47.888 186.718 50.128C186.718 52.576 188.43 54.192 190.766 54.192ZM192.814 49.488H188.462C188.526 48.56 189.198 47.456 190.622 47.456C192.142 47.456 192.766 48.576 192.814 49.488Z" fill="white"/>
<path d="M320.733 51.5941L315.573 56.7537C315.245 57.0821 314.713 57.0821 314.385 56.7537C314.057 56.4256 314.057 55.8935 314.385 55.5654L318.95 50.9999L314.385 46.4346C314.057 46.1063 314.057 45.5743 314.385 45.2462C314.713 44.9179 315.245 44.9179 315.573 45.2462L320.733 50.4059C320.897 50.57 320.979 50.7849 320.979 50.9999C320.979 51.215 320.897 51.43 320.733 51.5941Z" fill="white"/>
<defs>
<linearGradient id="paint0_linear" x1="177.5" y1="9" x2="177.5" y2="89" gradientUnits="userSpaceOnUse">
<stop stop-color="#7DAAED"/>
<stop offset="1" stop-color="#6399EC"/>
</linearGradient>
</defs>
</svg>
