<svg width="191" height="173" viewBox="0 0 191 173" fill="none" xmlns="http://www.w3.org/2000/svg">
<rect x="0.5" y="1.32593" width="189.964" height="170.433" rx="5.5" fill="white" stroke="#E3E3E3"/>
<path d="M108.182 31.9172H80.7372H77.8086C77.8086 31.9172 77.8087 60.4974 89.6983 67.1123C91.0998 67.8919 91.951 69.3877 91.951 70.9915H94.0394H98.0562C98.0562 69.3877 98.9074 67.892 100.309 67.1123C101.597 66.3955 102.746 65.4205 103.77 64.2522C109.794 57.3815 111.512 43.8159 112.003 36.6341C112.198 33.7672 112.199 31.9169 112.199 31.9169H108.182V31.9172Z" fill="#FECE00"/>
<path d="M65.8927 42.4838C66.0206 31.5861 78.0029 36.6341 78.0029 36.6341C78.078 37.7331 78.182 38.9818 78.3256 40.3327C75.173 39.1976 68.4393 37.5263 69.3848 44.4083C70.3442 51.3926 73.3903 56.221 77.4456 58.825C79.7036 60.2748 82.1989 60.4799 83.6402 60.451C84.4017 61.8559 85.2622 63.1419 86.2357 64.2522V64.2524C86.2357 64.2524 81.14 65.2019 76.0634 62.147C71.336 59.3021 65.767 53.1943 65.8927 42.4838Z" fill="#EEBF00"/>
<path d="M98.0561 75.0804H91.9512V80.4939H98.0561V75.0804Z" fill="#FECE00"/>
<path d="M98.0565 75.0804H91.8496V77.2029H98.0565V75.0804Z" fill="#DDB201"/>
<path d="M107.637 84.3977H82.3721V90.1353H107.637V84.3977Z" fill="#3E3D43"/>
<path d="M107.637 87.9255H82.3721V90.1342H107.637V87.9255Z" fill="#444444"/>
<path d="M102.879 80.4939H87.1299V84.3966H102.879V80.4939Z" fill="#77767E"/>
<path d="M102.879 82.4453H87.1299V84.3967H102.879V82.4453Z" fill="#3E3D43"/>
<path d="M98.157 75.0805H91.8492C90.72 75.0805 89.8047 74.1652 89.8047 73.036C89.8047 71.9068 90.72 70.9915 91.8492 70.9915H98.157C99.2862 70.9915 100.202 71.9068 100.202 73.036C100.202 74.1652 99.2862 75.0805 98.157 75.0805Z" fill="#CBA400"/>
<path d="M108.182 31.9172C108.182 31.9172 108.181 33.7675 107.986 36.6344C107.495 43.8162 105.777 57.3817 99.7529 64.2525C98.7286 65.4208 97.5801 66.3958 96.2917 67.1126C94.8903 67.8922 94.0391 69.388 94.0391 70.9918H98.0558C98.0558 69.388 98.907 67.8923 100.309 67.1126C101.597 66.3958 102.745 65.4208 103.77 64.2525C109.793 57.3818 111.512 43.8162 112.002 36.6344C112.198 33.7675 112.198 31.9172 112.198 31.9172H108.182Z" fill="#DDB201"/>
<path d="M92.6269 67.1124C80.7373 60.4974 80.7372 31.9172 80.7372 31.9172H77.8086C77.8086 31.9172 77.8087 60.4974 89.6983 67.1124C91.0998 67.892 91.951 69.3878 91.951 70.9916H94.0394C94.0394 70.3262 94.1879 69.6803 94.4594 69.0956C94.0765 68.2709 93.4468 67.5686 92.6269 67.1124Z" fill="#FEDA44"/>
<path d="M124.113 42.4838C123.986 31.5861 112.003 36.6341 112.003 36.6341C111.928 37.7331 111.824 38.9818 111.681 40.3327C114.833 39.1975 121.567 37.5261 120.621 44.4082C119.662 51.3924 116.616 56.2209 112.561 58.8249C110.303 60.2747 107.807 60.4798 106.366 60.4509C105.604 61.8557 104.744 63.1418 103.771 64.2521V64.2522C103.771 64.2522 108.866 65.2018 113.943 62.1469C118.67 59.3021 124.239 53.1943 124.113 42.4838Z" fill="#EEBF00"/>
<path d="M75.9428 39.6249C76.827 39.8272 77.6577 40.0918 78.3269 40.3328C78.1833 38.9819 78.0794 37.7331 78.0043 36.6342C78.0043 36.6342 76.8258 36.1386 75.2051 35.7933C75.4967 37.0624 75.773 38.335 75.9428 39.6249Z" fill="#CBA400"/>
<path d="M83.6416 60.4509C82.9142 60.4655 81.9178 60.4199 80.8193 60.1853C80.9268 60.4811 81.0352 60.7773 81.1489 61.0719C81.6711 62.1892 82.3103 63.2713 82.9609 64.3373C84.9208 64.4969 86.237 64.2523 86.237 64.2523V64.2522C85.2636 63.1418 84.4032 61.8557 83.6416 60.4509Z" fill="#CBA400"/>
<path d="M114.065 39.6249C113.181 39.8272 112.35 40.0918 111.681 40.3328C111.824 38.9819 111.928 37.7331 112.003 36.6342C112.003 36.6342 113.182 36.1386 114.802 35.7933C114.511 37.0624 114.235 38.335 114.065 39.6249Z" fill="#CBA400"/>
<path d="M106.366 60.4509C107.093 60.4655 108.09 60.4199 109.188 60.1853C109.081 60.4811 108.972 60.7773 108.859 61.0719C108.336 62.1892 107.697 63.2713 107.047 64.3373C105.087 64.4969 103.771 64.2523 103.771 64.2523V64.2522C104.744 63.1418 105.604 61.8557 106.366 60.4509Z" fill="#CBA400"/>
<path d="M98.9478 81.3851H91.0605V74.1895H98.9478V81.3851ZM92.8428 79.6028H97.1657V75.9718H92.8428V79.6028Z" fill="black"/>
<path d="M98.1567 75.9715H91.8488C90.2301 75.9715 88.9131 74.6546 88.9131 73.0358C88.9131 71.4171 90.2301 70.1001 91.8488 70.1001H98.1567C99.7755 70.1001 101.092 71.4171 101.092 73.0358C101.092 74.6546 99.7755 75.9715 98.1567 75.9715ZM91.8488 71.8825C91.2128 71.8825 90.6953 72.3999 90.6953 73.0359C90.6953 73.672 91.2128 74.1894 91.8488 74.1894H98.1567C98.7927 74.1894 99.3102 73.672 99.3102 73.0359C99.3102 72.3999 98.7927 71.8825 98.1567 71.8825H91.8488Z" fill="black"/>
<path d="M103.769 85.2879H86.2383V79.6028H103.769V85.2879ZM88.0205 83.5057H101.987V81.3851H88.0205V83.5057Z" fill="black"/>
<path d="M108.528 91.0259H81.4805V83.5056H108.528V91.0259ZM83.2627 89.2437H106.746V85.2879H83.2627V89.2437Z" fill="black"/>
<path d="M98.9478 71.8826H91.0605V70.9915C91.0605 69.6952 90.3727 68.5071 89.2657 67.891C86.3857 66.2887 83.9468 63.3635 82.0167 59.1969C80.5064 55.9363 79.2961 51.8989 78.4195 47.1975C76.9352 39.2367 76.918 31.9894 76.918 31.9171V31.026H113.09L113.09 31.9172C113.09 31.9939 113.088 33.8306 112.892 36.6949C112.381 44.1895 110.602 57.8119 104.441 64.8397C103.312 66.1272 102.068 67.1539 100.743 67.8911C99.6356 68.5072 98.9479 69.6952 98.9479 70.9916L98.9478 71.8826ZM92.7692 70.1003H97.2394C97.5037 68.5149 98.464 67.1194 99.8762 66.3337C101.022 65.6961 102.107 64.7981 103.1 63.6647C108.917 57.0307 110.618 43.8437 111.114 36.5734C111.226 34.929 111.274 33.6154 111.294 32.8081H78.7162C78.8439 37.6451 79.9873 60.6893 90.1322 66.3335C91.5444 67.1195 92.505 68.5149 92.7692 70.1003Z" fill="black"/>
<path d="M105.728 65.2831C105.728 65.2831 105.728 65.2831 105.728 65.2831C104.451 65.283 103.64 65.1348 103.606 65.1284L102.067 64.842L103.099 63.6649C103.986 62.6541 104.821 61.4298 105.582 60.0264L105.84 59.5491L106.383 59.5601C106.457 59.5616 106.534 59.5624 106.614 59.5624C108.05 59.5624 110.164 59.3044 112.078 58.0752C116.155 55.457 118.876 50.5603 119.737 44.2871C119.944 42.781 119.761 41.6874 119.194 41.0367C118.7 40.4704 117.854 40.1833 116.678 40.1833C115.064 40.1833 113.233 40.7205 111.981 41.1714L110.643 41.6533L110.793 40.2389C110.922 39.0252 111.03 37.792 111.113 36.5738L111.15 36.0263L111.656 35.8133C111.776 35.7626 114.628 34.5757 117.664 34.5757C122.337 34.5757 124.944 37.3806 125.003 42.4736C125.062 47.4838 123.92 51.9437 121.607 55.7296C119.337 59.4466 116.436 61.6864 114.401 62.9105C111.143 64.8713 107.886 65.2831 105.728 65.2831ZM105.506 63.4991C105.578 63.5003 105.652 63.5009 105.728 63.5009C105.728 63.5009 105.728 63.5009 105.728 63.5009C107.66 63.5009 110.574 63.1334 113.482 61.3835C116.456 59.5938 123.358 54.1706 123.221 42.4944C123.173 38.3651 121.355 36.3579 117.664 36.3579C115.691 36.3579 113.742 36.9528 112.85 37.2666C112.806 37.8638 112.756 38.4632 112.701 39.0611C113.912 38.7053 115.339 38.4008 116.678 38.4008C118.392 38.4008 119.69 38.8934 120.537 39.8651C121.458 40.9214 121.783 42.4907 121.503 44.5294C121.023 48.022 120.02 51.109 118.523 53.7045C117.093 56.1824 115.248 58.1574 113.041 59.5746C110.885 60.959 108.553 61.3082 106.89 61.3416C106.45 62.1145 105.988 62.8353 105.506 63.4991Z" fill="black"/>
<path d="M84.2779 65.283C82.1196 65.283 78.8629 64.8713 75.6045 62.9104C73.57 61.6862 70.6684 59.4465 68.3982 55.7294C66.086 51.9434 64.9434 47.4835 65.0022 42.4733C65.0619 37.3804 67.6682 34.5754 72.341 34.5754C75.3777 34.5754 78.2295 35.7623 78.3494 35.8129L78.855 36.026L78.8924 36.5733C78.9759 37.795 79.0834 39.0281 79.2121 40.2385L79.3623 41.653L78.024 41.1711C76.7723 40.7203 74.9412 40.1831 73.327 40.1831C72.1517 40.1831 71.3052 40.4701 70.8116 41.0364C70.244 41.6873 70.0612 42.7808 70.268 44.2868C71.1298 50.56 73.85 55.4568 77.9275 58.0749C79.8417 59.3041 81.9555 59.5621 83.3916 59.5621C83.4715 59.5621 83.5485 59.5612 83.6225 59.5598L84.1652 59.5488L84.4238 60.0261C85.1848 61.4298 86.0199 62.654 86.906 63.6645L87.1271 63.9166V64.2519C87.1271 64.4838 87.0397 65.0364 86.2296 65.1554C86.0988 65.1746 85.9548 65.1924 85.8016 65.2081C85.3227 65.2579 84.81 65.283 84.2779 65.283ZM72.341 36.3577C68.6504 36.3577 66.8328 38.365 66.7843 42.494C66.6472 54.1701 73.5495 59.5935 76.5234 61.3831C79.4315 63.1331 82.3454 63.5004 84.2778 63.5004C84.3535 63.5004 84.4272 63.4998 84.4991 63.4987C84.0174 62.8349 83.5551 62.1141 83.116 61.3415C81.4526 61.3081 79.1206 60.959 76.9647 59.5745C74.7572 58.1571 72.913 56.182 71.483 53.7045C69.9851 51.109 68.9824 48.0221 68.5025 44.5293C68.2224 42.4905 68.5474 40.9212 69.4685 39.865C70.3156 38.8933 71.6139 38.4008 73.3273 38.4008C74.6662 38.4008 76.0933 38.7052 77.3045 39.0611C77.2496 38.4641 77.1997 37.8645 77.1552 37.2666C76.2643 36.9527 74.3148 36.3577 72.341 36.3577Z" fill="black"/>
<path d="M112.122 34.0231H77.8086V35.8053H112.122V34.0231Z" fill="black"/>
<path d="M87.68 62.9458C87.111 62.3348 86.5649 61.634 86.0566 60.8624L87.545 59.882C87.9986 60.5707 88.4828 61.1927 88.9842 61.731L87.68 62.9458Z" fill="white"/>
<path d="M85.3714 59.7437C83.976 57.2876 82.8353 54.1426 81.9805 50.3964L83.7181 50C84.5341 53.5766 85.6117 56.5585 86.921 58.8633L85.3714 59.7437Z" fill="white"/>
<path d="M115.493 71.6152L115.489 66.8234L113.707 66.8246L113.71 71.6164L115.493 71.6152Z" fill="black"/>
<path d="M116.998 70.1095L116.997 68.3272L112.205 68.3303L112.206 70.1126L116.998 70.1095Z" fill="black"/>
<path d="M76.9444 76.2783H75.1621V80.5853H76.9444V76.2783Z" fill="black"/>
<path d="M78.2075 77.5405H73.9004V79.3228H78.2075V77.5405Z" fill="black"/>
<path d="M72.4058 64.795H70.7246V66.5773H72.4058V64.795Z" fill="black"/>
<path d="M83.2105 70.0679H81.5293V71.8501H83.2105V70.0679Z" fill="black"/>
<path d="M110.309 75.4298H108.628V77.2121H110.309V75.4298Z" fill="black"/>
<path d="M84.204 121L87.624 108.994H85.968L83.322 119.002L80.568 108.994H79.326L76.572 119.002L73.908 108.994H72.252L75.672 121H77.292L79.938 111.316L82.584 121H84.204ZM92.3179 121.216C94.9639 121.216 96.6199 119.164 96.6199 116.644C96.6199 114.124 94.9639 112.09 92.3179 112.09C89.6719 112.09 88.0159 114.124 88.0159 116.644C88.0159 119.164 89.6719 121.216 92.3179 121.216ZM92.3179 120.01C90.4639 120.01 89.4199 118.426 89.4199 116.644C89.4199 114.88 90.4639 113.296 92.3179 113.296C94.1719 113.296 95.1979 114.88 95.1979 116.644C95.1979 118.426 94.1719 120.01 92.3179 120.01ZM100.171 121V114.844C100.567 114.142 101.701 113.458 102.529 113.458C102.745 113.458 102.907 113.476 103.069 113.512V112.126C101.881 112.126 100.873 112.792 100.171 113.71V112.306H98.8207V121H100.171ZM106.958 121.216C107.75 121.216 108.236 120.982 108.578 120.658L108.182 119.65C108.002 119.848 107.642 120.01 107.264 120.01C106.67 120.01 106.382 119.542 106.382 118.894V113.494H108.146V112.306H106.382V109.93H105.032V112.306H103.592V113.494H105.032V119.182C105.032 120.478 105.68 121.216 106.958 121.216ZM117.289 121V114.862C117.289 112.972 116.335 112.09 114.517 112.09C113.203 112.09 112.015 112.846 111.403 113.566V108.994H110.053V121H111.403V114.646C111.925 113.944 112.933 113.296 113.977 113.296C115.147 113.296 115.939 113.746 115.939 115.276V121H117.289Z" fill="#585858"/>
</svg>
