<svg width="375" height="812" viewBox="0 0 375 812" fill="none" xmlns="http://www.w3.org/2000/svg">
<rect width="375" height="812" fill="white"/>
<path d="M115.602 147.264C118.572 147.264 120.376 145.724 121.498 143.964L119.298 142.842C118.594 144.074 117.186 144.976 115.602 144.976C112.698 144.976 110.542 142.754 110.542 139.674C110.542 136.594 112.698 134.372 115.602 134.372C117.186 134.372 118.594 135.296 119.298 136.506L121.498 135.384C120.398 133.624 118.572 132.084 115.602 132.084C111.268 132.084 107.902 135.164 107.902 139.674C107.902 144.184 111.268 147.264 115.602 147.264ZM128.288 147.264C131.698 147.264 133.766 144.734 133.766 141.676C133.766 138.64 131.698 136.11 128.288 136.11C124.922 136.11 122.832 138.64 122.832 141.676C122.832 144.734 124.922 147.264 128.288 147.264ZM128.288 145.218C126.33 145.218 125.23 143.568 125.23 141.676C125.23 139.806 126.33 138.156 128.288 138.156C130.268 138.156 131.368 139.806 131.368 141.676C131.368 143.568 130.268 145.218 128.288 145.218ZM145.585 147V139.52C145.585 137.342 144.441 136.11 142.153 136.11C140.481 136.11 139.117 136.99 138.413 137.826V136.374H136.103V147H138.413V139.586C138.941 138.86 139.953 138.156 141.141 138.156C142.439 138.156 143.275 138.706 143.275 140.356V147H145.585ZM152.898 151.312C155.516 151.312 158.354 150.278 158.354 146.45V136.374H156.044V137.848C155.186 136.726 153.976 136.11 152.634 136.11C149.906 136.11 147.926 138.134 147.926 141.566C147.926 145.064 149.928 147.022 152.634 147.022C154.02 147.022 155.23 146.318 156.044 145.262V146.538C156.044 148.716 154.416 149.42 152.898 149.42C151.49 149.42 150.39 149.046 149.532 148.056L148.454 149.728C149.752 150.916 151.094 151.312 152.898 151.312ZM153.316 144.976C151.49 144.976 150.324 143.612 150.324 141.566C150.324 139.52 151.49 138.156 153.316 138.156C154.394 138.156 155.538 138.794 156.044 139.586V143.546C155.538 144.338 154.394 144.976 153.316 144.976ZM163.658 147V139.762C164.12 139.014 165.418 138.354 166.386 138.354C166.672 138.354 166.914 138.376 167.112 138.42V136.132C165.726 136.132 164.45 136.924 163.658 137.936V136.374H161.348V147H163.658ZM177.775 147V139.96C177.775 137.1 175.707 136.11 173.353 136.11C171.659 136.11 170.119 136.66 168.887 137.826L169.833 139.432C170.757 138.53 171.791 138.09 172.979 138.09C174.453 138.09 175.465 138.838 175.465 140.07V141.654C174.695 140.752 173.463 140.29 172.033 140.29C170.295 140.29 168.337 141.302 168.337 143.744C168.337 146.098 170.295 147.264 172.033 147.264C173.441 147.264 174.673 146.758 175.465 145.856V147H177.775ZM172.935 145.68C171.637 145.68 170.669 144.932 170.669 143.788C170.669 142.622 171.637 141.874 172.935 141.874C173.947 141.874 174.937 142.248 175.465 142.974V144.58C174.937 145.306 173.947 145.68 172.935 145.68ZM183.959 147.264C185.037 147.264 185.719 146.978 186.137 146.582L185.587 144.844C185.411 145.042 184.993 145.218 184.553 145.218C183.893 145.218 183.541 144.69 183.541 143.964V138.398H185.697V136.374H183.541V133.47H181.231V136.374H179.471V138.398H181.231V144.536C181.231 146.296 182.177 147.264 183.959 147.264ZM197.277 147V136.374H194.967V143.832C194.417 144.558 193.405 145.218 192.239 145.218C190.941 145.218 190.105 144.712 190.105 143.062V136.374H187.795V143.898C187.795 146.076 188.917 147.264 191.205 147.264C192.877 147.264 194.197 146.45 194.967 145.592V147H197.277ZM202.587 147V132.326H200.277V147H202.587ZM214.384 147V139.96C214.384 137.1 212.316 136.11 209.962 136.11C208.268 136.11 206.728 136.66 205.496 137.826L206.442 139.432C207.366 138.53 208.4 138.09 209.588 138.09C211.062 138.09 212.074 138.838 212.074 140.07V141.654C211.304 140.752 210.072 140.29 208.642 140.29C206.904 140.29 204.946 141.302 204.946 143.744C204.946 146.098 206.904 147.264 208.642 147.264C210.05 147.264 211.282 146.758 212.074 145.856V147H214.384ZM209.544 145.68C208.246 145.68 207.278 144.932 207.278 143.788C207.278 142.622 208.246 141.874 209.544 141.874C210.556 141.874 211.546 142.248 212.074 142.974V144.58C211.546 145.306 210.556 145.68 209.544 145.68ZM220.569 147.264C221.647 147.264 222.329 146.978 222.747 146.582L222.197 144.844C222.021 145.042 221.603 145.218 221.163 145.218C220.503 145.218 220.151 144.69 220.151 143.964V138.398H222.307V136.374H220.151V133.47H217.841V136.374H216.081V138.398H217.841V144.536C217.841 146.296 218.787 147.264 220.569 147.264ZM225.548 135.076C226.34 135.076 226.978 134.438 226.978 133.646C226.978 132.854 226.34 132.216 225.548 132.216C224.778 132.216 224.118 132.854 224.118 133.646C224.118 134.438 224.778 135.076 225.548 135.076ZM226.714 147V136.374H224.404V147H226.714ZM234.507 147.264C237.917 147.264 239.985 144.734 239.985 141.676C239.985 138.64 237.917 136.11 234.507 136.11C231.141 136.11 229.051 138.64 229.051 141.676C229.051 144.734 231.141 147.264 234.507 147.264ZM234.507 145.218C232.549 145.218 231.449 143.568 231.449 141.676C231.449 139.806 232.549 138.156 234.507 138.156C236.487 138.156 237.587 139.806 237.587 141.676C237.587 143.568 236.487 145.218 234.507 145.218ZM251.804 147V139.52C251.804 137.342 250.66 136.11 248.372 136.11C246.7 136.11 245.336 136.99 244.632 137.826V136.374H242.322V147H244.632V139.586C245.16 138.86 246.172 138.156 247.36 138.156C248.658 138.156 249.494 138.706 249.494 140.356V147H251.804ZM258.435 147.264C261.295 147.264 262.857 145.834 262.857 143.964C262.857 139.74 256.433 141.148 256.433 139.256C256.433 138.508 257.203 137.958 258.413 137.958C259.733 137.958 260.921 138.508 261.559 139.234L262.527 137.606C261.559 136.748 260.195 136.11 258.391 136.11C255.707 136.11 254.211 137.606 254.211 139.344C254.211 143.414 260.635 141.918 260.635 144.008C260.635 144.844 259.931 145.438 258.545 145.438C257.159 145.438 255.685 144.712 254.937 143.942L253.881 145.614C254.981 146.692 256.631 147.264 258.435 147.264ZM266.71 143.328L267.034 134.994H264.73L265.072 143.328H266.71ZM265.882 147.18C266.566 147.18 267.142 146.604 267.142 145.938C267.142 145.254 266.566 144.678 265.882 144.678C265.198 144.678 264.64 145.254 264.64 145.938C264.64 146.604 265.198 147.18 265.882 147.18Z" fill="black"/>
<path d="M97.412 184V171.994H95.918V177.16H88.898V171.994H87.404V184H88.898V178.492H95.918V184H97.412ZM104.088 184.216C105.51 184.216 106.68 183.748 107.544 182.884L106.896 182.002C106.212 182.704 105.204 183.1 104.214 183.1C102.342 183.1 101.19 181.732 101.082 180.094H108.12V179.752C108.12 177.142 106.572 175.09 103.944 175.09C101.46 175.09 99.6605 177.124 99.6605 179.644C99.6605 182.362 101.514 184.216 104.088 184.216ZM106.788 179.104H101.082C101.154 177.772 102.072 176.206 103.926 176.206C105.906 176.206 106.77 177.808 106.788 179.104ZM111.657 184V177.844C112.053 177.142 113.187 176.458 114.015 176.458C114.231 176.458 114.393 176.476 114.555 176.512V175.126C113.367 175.126 112.359 175.792 111.657 176.71V175.306H110.307V184H111.657ZM120.172 184.216C121.594 184.216 122.764 183.748 123.628 182.884L122.98 182.002C122.296 182.704 121.288 183.1 120.298 183.1C118.426 183.1 117.274 181.732 117.166 180.094H124.204V179.752C124.204 177.142 122.656 175.09 120.028 175.09C117.544 175.09 115.744 177.124 115.744 179.644C115.744 182.362 117.598 184.216 120.172 184.216ZM122.872 179.104H117.166C117.238 177.772 118.156 176.206 120.01 176.206C121.99 176.206 122.854 177.808 122.872 179.104ZM131.698 174.064C132.202 174.064 132.616 173.668 132.616 173.164C132.616 172.66 132.202 172.246 131.698 172.246C131.212 172.246 130.798 172.66 130.798 173.164C130.798 173.668 131.212 174.064 131.698 174.064ZM132.382 184V175.306H131.032V184H132.382ZM137.829 184.216C140.079 184.216 141.249 183.046 141.249 181.588C141.249 178.204 135.867 179.464 135.867 177.556C135.867 176.782 136.605 176.188 137.793 176.188C138.909 176.188 139.863 176.656 140.385 177.286L141.015 176.35C140.313 175.648 139.269 175.09 137.793 175.09C135.723 175.09 134.553 176.242 134.553 177.592C134.553 180.814 139.935 179.518 139.935 181.624C139.935 182.488 139.215 183.118 137.883 183.118C136.695 183.118 135.597 182.542 135.021 181.876L134.319 182.848C135.201 183.784 136.407 184.216 137.829 184.216ZM147.596 187.402C147.848 187.474 148.298 187.528 148.586 187.528C149.738 187.51 150.62 187.024 151.142 185.764L155.498 175.306H154.022L151.142 182.434L148.244 175.306H146.786L150.422 184.09L149.846 185.404C149.54 186.124 149.144 186.322 148.55 186.322C148.334 186.322 148.01 186.268 147.812 186.178L147.596 187.402ZM160.705 184.216C163.351 184.216 165.007 182.164 165.007 179.644C165.007 177.124 163.351 175.09 160.705 175.09C158.059 175.09 156.403 177.124 156.403 179.644C156.403 182.164 158.059 184.216 160.705 184.216ZM160.705 183.01C158.851 183.01 157.807 181.426 157.807 179.644C157.807 177.88 158.851 176.296 160.705 176.296C162.559 176.296 163.585 177.88 163.585 179.644C163.585 181.426 162.559 183.01 160.705 183.01ZM174.425 184V175.306H173.075V181.696C172.571 182.398 171.563 183.01 170.501 183.01C169.331 183.01 168.557 182.56 168.557 181.03V175.306H167.207V181.444C167.207 183.334 168.161 184.216 169.979 184.216C171.275 184.216 172.409 183.532 173.075 182.776V184H174.425ZM178.471 184V177.844C178.867 177.142 180.001 176.458 180.829 176.458C181.045 176.458 181.207 176.476 181.369 176.512V175.126C180.181 175.126 179.173 175.792 178.471 176.71V175.306H177.121V184H178.471ZM191.646 184.216C194.886 184.216 196.074 182.434 196.074 180.688C196.074 176.206 188.964 177.754 188.964 175.054C188.964 173.92 189.99 173.146 191.43 173.146C192.744 173.146 194.004 173.596 194.904 174.586L195.804 173.488C194.796 172.426 193.374 171.814 191.538 171.814C189.18 171.814 187.416 173.164 187.416 175.144C187.416 179.428 194.526 177.718 194.526 180.814C194.526 181.732 193.842 182.884 191.7 182.884C190.008 182.884 188.712 182.056 187.92 181.174L187.038 182.308C188.028 183.424 189.558 184.216 191.646 184.216ZM202.084 184.216C203.668 184.216 204.604 183.568 205.27 182.704L204.37 181.876C203.794 182.65 203.056 183.01 202.156 183.01C200.302 183.01 199.15 181.57 199.15 179.644C199.15 177.718 200.302 176.296 202.156 176.296C203.056 176.296 203.794 176.638 204.37 177.43L205.27 176.602C204.604 175.738 203.668 175.09 202.084 175.09C199.492 175.09 197.746 177.07 197.746 179.644C197.746 182.236 199.492 184.216 202.084 184.216ZM208.513 184V177.844C208.909 177.142 210.043 176.458 210.871 176.458C211.087 176.458 211.249 176.476 211.411 176.512V175.126C210.223 175.126 209.215 175.792 208.513 176.71V175.306H207.163V184H208.513ZM219.89 184V178.024C219.89 175.918 218.36 175.09 216.524 175.09C215.102 175.09 213.986 175.558 213.05 176.53L213.68 177.466C214.454 176.638 215.3 176.26 216.344 176.26C217.604 176.26 218.54 176.926 218.54 178.096V179.662C217.838 178.852 216.848 178.474 215.66 178.474C214.184 178.474 212.618 179.392 212.618 181.336C212.618 183.226 214.184 184.216 215.66 184.216C216.83 184.216 217.82 183.802 218.54 183.01V184H219.89ZM216.146 183.244C214.886 183.244 214.004 182.452 214.004 181.354C214.004 180.238 214.886 179.446 216.146 179.446C217.1 179.446 218.018 179.806 218.54 180.526V182.164C218.018 182.884 217.1 183.244 216.146 183.244ZM224.792 184.216C225.584 184.216 226.07 183.982 226.412 183.658L226.016 182.65C225.836 182.848 225.476 183.01 225.098 183.01C224.504 183.01 224.216 182.542 224.216 181.894V176.494H225.98V175.306H224.216V172.93H222.866V175.306H221.426V176.494H222.866V182.182C222.866 183.478 223.514 184.216 224.792 184.216ZM231.721 184.216C233.305 184.216 234.241 183.568 234.907 182.704L234.007 181.876C233.431 182.65 232.693 183.01 231.793 183.01C229.939 183.01 228.787 181.57 228.787 179.644C228.787 177.718 229.939 176.296 231.793 176.296C232.693 176.296 233.431 176.638 234.007 177.43L234.907 176.602C234.241 175.738 233.305 175.09 231.721 175.09C229.129 175.09 227.383 177.07 227.383 179.644C227.383 182.236 229.129 184.216 231.721 184.216ZM244.035 184V177.862C244.035 175.972 243.081 175.09 241.263 175.09C239.949 175.09 238.761 175.846 238.149 176.566V171.994H236.799V184H238.149V177.646C238.671 176.944 239.679 176.296 240.723 176.296C241.893 176.296 242.685 176.746 242.685 178.276V184H244.035ZM257.113 184.216C259.237 184.216 260.677 183.208 261.685 181.84L260.407 181.138C259.723 182.164 258.481 182.884 257.113 182.884C254.485 182.884 252.487 180.85 252.487 178.006C252.487 175.144 254.485 173.128 257.113 173.128C258.481 173.128 259.723 173.866 260.407 174.874L261.667 174.172C260.713 172.822 259.237 171.796 257.113 171.796C253.657 171.796 250.939 174.316 250.939 178.006C250.939 181.696 253.657 184.216 257.113 184.216ZM270.322 184V178.024C270.322 175.918 268.792 175.09 266.956 175.09C265.534 175.09 264.418 175.558 263.482 176.53L264.112 177.466C264.886 176.638 265.732 176.26 266.776 176.26C268.036 176.26 268.972 176.926 268.972 178.096V179.662C268.27 178.852 267.28 178.474 266.092 178.474C264.616 178.474 263.05 179.392 263.05 181.336C263.05 183.226 264.616 184.216 266.092 184.216C267.262 184.216 268.252 183.802 268.972 183.01V184H270.322ZM266.578 183.244C265.318 183.244 264.436 182.452 264.436 181.354C264.436 180.238 265.318 179.446 266.578 179.446C267.532 179.446 268.45 179.806 268.972 180.526V182.164C268.45 182.884 267.532 183.244 266.578 183.244ZM274.378 184V177.844C274.774 177.142 275.908 176.458 276.736 176.458C276.952 176.458 277.114 176.476 277.276 176.512V175.126C276.088 175.126 275.08 175.792 274.378 176.71V175.306H273.028V184H274.378ZM286.619 184V171.994H285.269V176.62C284.567 175.666 283.505 175.09 282.335 175.09C280.049 175.09 278.465 176.89 278.465 179.662C278.465 182.488 280.067 184.216 282.335 184.216C283.559 184.216 284.621 183.586 285.269 182.704V184H286.619ZM282.659 183.01C280.913 183.01 279.869 181.588 279.869 179.662C279.869 177.736 280.913 176.296 282.659 176.296C283.739 176.296 284.783 176.944 285.269 177.7V181.642C284.783 182.398 283.739 183.01 282.659 183.01Z" fill="#585858"/>
<path d="M61.41 596.18C64.11 596.18 65.1 594.695 65.1 593.24C65.1 589.505 59.175 590.795 59.175 588.545C59.175 587.6 60.03 586.955 61.23 586.955C62.325 586.955 63.375 587.33 64.125 588.155L64.875 587.24C64.035 586.355 62.85 585.845 61.32 585.845C59.355 585.845 57.885 586.97 57.885 588.62C57.885 592.19 63.81 590.765 63.81 593.345C63.81 594.11 63.24 595.07 61.455 595.07C60.045 595.07 58.965 594.38 58.305 593.645L57.57 594.59C58.395 595.52 59.67 596.18 61.41 596.18ZM70.1091 596.18C71.4291 596.18 72.2091 595.64 72.7641 594.92L72.0141 594.23C71.5341 594.875 70.9191 595.175 70.1691 595.175C68.6241 595.175 67.6641 593.975 67.6641 592.37C67.6641 590.765 68.6241 589.58 70.1691 589.58C70.9191 589.58 71.5341 589.865 72.0141 590.525L72.7641 589.835C72.2091 589.115 71.4291 588.575 70.1091 588.575C67.9491 588.575 66.4941 590.225 66.4941 592.37C66.4941 594.53 67.9491 596.18 70.1091 596.18ZM75.4658 596V590.87C75.7958 590.285 76.7408 589.715 77.4308 589.715C77.6108 589.715 77.7458 589.73 77.8808 589.76V588.605C76.8908 588.605 76.0508 589.16 75.4658 589.925V588.755H74.3408V596H75.4658ZM84.947 596V591.02C84.947 589.265 83.672 588.575 82.142 588.575C80.957 588.575 80.027 588.965 79.247 589.775L79.772 590.555C80.417 589.865 81.122 589.55 81.992 589.55C83.042 589.55 83.822 590.105 83.822 591.08V592.385C83.237 591.71 82.412 591.395 81.422 591.395C80.192 591.395 78.887 592.16 78.887 593.78C78.887 595.355 80.192 596.18 81.422 596.18C82.397 596.18 83.222 595.835 83.822 595.175V596H84.947ZM81.827 595.37C80.777 595.37 80.042 594.71 80.042 593.795C80.042 592.865 80.777 592.205 81.827 592.205C82.622 592.205 83.387 592.505 83.822 593.105V594.47C83.387 595.07 82.622 595.37 81.827 595.37ZM89.0321 596.18C89.6921 596.18 90.0971 595.985 90.3821 595.715L90.0521 594.875C89.9021 595.04 89.6021 595.175 89.2871 595.175C88.7921 595.175 88.5521 594.785 88.5521 594.245V589.745H90.0221V588.755H88.5521V586.775H87.4271V588.755H86.2271V589.745H87.4271V594.485C87.4271 595.565 87.9671 596.18 89.0321 596.18ZM94.8063 596.18C96.1263 596.18 96.9063 595.64 97.4613 594.92L96.7113 594.23C96.2313 594.875 95.6163 595.175 94.8663 595.175C93.3213 595.175 92.3613 593.975 92.3613 592.37C92.3613 590.765 93.3213 589.58 94.8663 589.58C95.6163 589.58 96.2313 589.865 96.7113 590.525L97.4613 589.835C96.9063 589.115 96.1263 588.575 94.8063 588.575C92.6463 588.575 91.1913 590.225 91.1913 592.37C91.1913 594.53 92.6463 596.18 94.8063 596.18ZM105.068 596V590.885C105.068 589.31 104.273 588.575 102.758 588.575C101.663 588.575 100.673 589.205 100.163 589.805V585.995H99.0381V596H100.163V590.705C100.598 590.12 101.438 589.58 102.308 589.58C103.283 589.58 103.943 589.955 103.943 591.23V596H105.068ZM113.012 596.18C113.672 596.18 114.077 595.985 114.362 595.715L114.032 594.875C113.882 595.04 113.582 595.175 113.267 595.175C112.772 595.175 112.532 594.785 112.532 594.245V589.745H114.002V588.755H112.532V586.775H111.407V588.755H110.207V589.745H111.407V594.485C111.407 595.565 111.947 596.18 113.012 596.18ZM121.621 596V590.885C121.621 589.31 120.826 588.575 119.311 588.575C118.216 588.575 117.226 589.205 116.716 589.805V585.995H115.591V596H116.716V590.705C117.151 590.12 117.991 589.58 118.861 589.58C119.836 589.58 120.496 589.955 120.496 591.23V596H121.621ZM127.137 596.18C128.322 596.18 129.297 595.79 130.017 595.07L129.477 594.335C128.907 594.92 128.067 595.25 127.242 595.25C125.682 595.25 124.722 594.11 124.632 592.745H130.497V592.46C130.497 590.285 129.207 588.575 127.017 588.575C124.947 588.575 123.447 590.27 123.447 592.37C123.447 594.635 124.992 596.18 127.137 596.18ZM129.387 591.92H124.632C124.692 590.81 125.457 589.505 127.002 589.505C128.652 589.505 129.372 590.84 129.387 591.92ZM141.842 596V591.02C141.842 589.265 140.567 588.575 139.037 588.575C137.852 588.575 136.922 588.965 136.142 589.775L136.667 590.555C137.312 589.865 138.017 589.55 138.887 589.55C139.937 589.55 140.717 590.105 140.717 591.08V592.385C140.132 591.71 139.307 591.395 138.317 591.395C137.087 591.395 135.782 592.16 135.782 593.78C135.782 595.355 137.087 596.18 138.317 596.18C139.292 596.18 140.117 595.835 140.717 595.175V596H141.842ZM138.722 595.37C137.672 595.37 136.937 594.71 136.937 593.795C136.937 592.865 137.672 592.205 138.722 592.205C139.517 592.205 140.282 592.505 140.717 593.105V594.47C140.282 595.07 139.517 595.37 138.722 595.37ZM145.222 594.035V590.75C145.612 590.12 146.497 589.58 147.382 589.58C148.852 589.58 149.722 590.78 149.722 592.385C149.722 593.99 148.852 595.175 147.382 595.175C146.497 595.175 145.612 594.665 145.222 594.035ZM145.222 596V594.92C145.762 595.655 146.647 596.18 147.667 596.18C149.557 596.18 150.892 594.74 150.892 592.385C150.892 590.075 149.557 588.575 147.667 588.575C146.677 588.575 145.807 589.055 145.222 589.85V585.995H144.097V596H145.222ZM155.89 596.18C158.095 596.18 159.475 594.47 159.475 592.37C159.475 590.27 158.095 588.575 155.89 588.575C153.685 588.575 152.305 590.27 152.305 592.37C152.305 594.47 153.685 596.18 155.89 596.18ZM155.89 595.175C154.345 595.175 153.475 593.855 153.475 592.37C153.475 590.9 154.345 589.58 155.89 589.58C157.435 589.58 158.29 590.9 158.29 592.37C158.29 593.855 157.435 595.175 155.89 595.175ZM164.474 596L167.489 588.755H166.259L163.859 594.695L161.444 588.755H160.229L163.244 596H164.474ZM171.932 596.18C173.117 596.18 174.092 595.79 174.812 595.07L174.272 594.335C173.702 594.92 172.862 595.25 172.037 595.25C170.477 595.25 169.517 594.11 169.427 592.745H175.292V592.46C175.292 590.285 174.002 588.575 171.812 588.575C169.742 588.575 168.242 590.27 168.242 592.37C168.242 594.635 169.787 596.18 171.932 596.18ZM174.182 591.92H169.427C169.487 590.81 170.252 589.505 171.797 589.505C173.447 589.505 174.167 590.84 174.182 591.92ZM184.176 596.18C185.496 596.18 186.276 595.64 186.831 594.92L186.081 594.23C185.601 594.875 184.986 595.175 184.236 595.175C182.691 595.175 181.731 593.975 181.731 592.37C181.731 590.765 182.691 589.58 184.236 589.58C184.986 589.58 185.601 589.865 186.081 590.525L186.831 589.835C186.276 589.115 185.496 588.575 184.176 588.575C182.016 588.575 180.561 590.225 180.561 592.37C180.561 594.53 182.016 596.18 184.176 596.18ZM194.063 596V591.02C194.063 589.265 192.788 588.575 191.258 588.575C190.073 588.575 189.143 588.965 188.363 589.775L188.888 590.555C189.533 589.865 190.238 589.55 191.108 589.55C192.158 589.55 192.938 590.105 192.938 591.08V592.385C192.353 591.71 191.528 591.395 190.538 591.395C189.308 591.395 188.003 592.16 188.003 593.78C188.003 595.355 189.308 596.18 190.538 596.18C191.513 596.18 192.338 595.835 192.938 595.175V596H194.063ZM190.943 595.37C189.893 595.37 189.158 594.71 189.158 593.795C189.158 592.865 189.893 592.205 190.943 592.205C191.738 592.205 192.503 592.505 192.938 593.105V594.47C192.503 595.07 191.738 595.37 190.943 595.37ZM197.443 596V590.87C197.773 590.285 198.718 589.715 199.408 589.715C199.588 589.715 199.723 589.73 199.858 589.76V588.605C198.868 588.605 198.028 589.16 197.443 589.925V588.755H196.318V596H197.443ZM207.645 596V585.995H206.52V589.85C205.935 589.055 205.05 588.575 204.075 588.575C202.17 588.575 200.85 590.075 200.85 592.385C200.85 594.74 202.185 596.18 204.075 596.18C205.095 596.18 205.98 595.655 206.52 594.92V596H207.645ZM204.345 595.175C202.89 595.175 202.02 593.99 202.02 592.385C202.02 590.78 202.89 589.58 204.345 589.58C205.245 589.58 206.115 590.12 206.52 590.75V594.035C206.115 594.665 205.245 595.175 204.345 595.175ZM214.89 594.035V590.75C215.28 590.12 216.165 589.58 217.05 589.58C218.52 589.58 219.39 590.78 219.39 592.385C219.39 593.99 218.52 595.175 217.05 595.175C216.165 595.175 215.28 594.665 214.89 594.035ZM214.89 596V594.92C215.43 595.655 216.315 596.18 217.335 596.18C219.225 596.18 220.56 594.74 220.56 592.385C220.56 590.075 219.225 588.575 217.335 588.575C216.345 588.575 215.475 589.055 214.89 589.85V585.995H213.765V596H214.89ZM221.988 598.835C222.198 598.895 222.573 598.94 222.813 598.94C223.773 598.925 224.508 598.52 224.943 597.47L228.573 588.755H227.343L224.943 594.695L222.528 588.755H221.313L224.343 596.075L223.863 597.17C223.608 597.77 223.278 597.935 222.783 597.935C222.603 597.935 222.333 597.89 222.168 597.815L221.988 598.835ZM235.908 596.18C237.783 596.18 238.758 595.205 238.758 593.99C238.758 591.17 234.273 592.22 234.273 590.63C234.273 589.985 234.888 589.49 235.878 589.49C236.808 589.49 237.603 589.88 238.038 590.405L238.563 589.625C237.978 589.04 237.108 588.575 235.878 588.575C234.153 588.575 233.178 589.535 233.178 590.66C233.178 593.345 237.663 592.265 237.663 594.02C237.663 594.74 237.063 595.265 235.953 595.265C234.963 595.265 234.048 594.785 233.568 594.23L232.983 595.04C233.718 595.82 234.723 596.18 235.908 596.18ZM247.981 596L250.291 588.755H249.121L247.351 594.53L245.446 588.755H244.486L242.581 594.53L240.811 588.755H239.641L241.951 596H243.076L244.966 590.18L246.856 596H247.981ZM252.157 587.72C252.577 587.72 252.922 587.39 252.922 586.97C252.922 586.55 252.577 586.205 252.157 586.205C251.752 586.205 251.407 586.55 251.407 586.97C251.407 587.39 251.752 587.72 252.157 587.72ZM252.727 596V588.755H251.602V596H252.727ZM258.541 596.18C260.446 596.18 261.766 594.71 261.766 592.37C261.766 590.015 260.446 588.575 258.541 588.575C257.521 588.575 256.621 589.1 256.096 589.835V588.755H254.971V598.76H256.096V594.905C256.681 595.715 257.551 596.18 258.541 596.18ZM258.256 595.175C257.371 595.175 256.486 594.635 256.096 594.005V590.735C256.486 590.105 257.371 589.58 258.256 589.58C259.711 589.58 260.581 590.765 260.581 592.37C260.581 593.975 259.711 595.175 258.256 595.175ZM264.11 587.72C264.53 587.72 264.875 587.39 264.875 586.97C264.875 586.55 264.53 586.205 264.11 586.205C263.705 586.205 263.36 586.55 263.36 586.97C263.36 587.39 263.705 587.72 264.11 587.72ZM264.68 596V588.755H263.555V596H264.68ZM272.939 596V590.915C272.939 589.34 272.144 588.575 270.629 588.575C269.549 588.575 268.559 589.205 268.049 589.805V588.755H266.924V596H268.049V590.705C268.469 590.12 269.309 589.58 270.194 589.58C271.169 589.58 271.814 589.985 271.814 591.26V596H272.939ZM278.096 598.94C279.866 598.94 281.546 598.19 281.546 595.79V588.755H280.421V589.85C279.836 589.055 278.966 588.575 277.991 588.575C276.086 588.575 274.766 590.015 274.766 592.34C274.766 594.68 276.101 596.09 277.991 596.09C279.011 596.09 279.896 595.535 280.421 594.8V595.835C280.421 597.425 279.296 598.01 278.096 598.01C277.061 598.01 276.341 597.74 275.741 597.02L275.171 597.86C276.026 598.7 276.866 598.94 278.096 598.94ZM278.261 595.1C276.806 595.1 275.936 593.93 275.936 592.34C275.936 590.735 276.806 589.58 278.261 589.58C279.161 589.58 280.031 590.12 280.421 590.75V593.915C280.031 594.545 279.161 595.1 278.261 595.1ZM290.831 596.18C293.036 596.18 294.416 594.47 294.416 592.37C294.416 590.27 293.036 588.575 290.831 588.575C288.626 588.575 287.246 590.27 287.246 592.37C287.246 594.47 288.626 596.18 290.831 596.18ZM290.831 595.175C289.286 595.175 288.416 593.855 288.416 592.37C288.416 590.9 289.286 589.58 290.831 589.58C292.376 589.58 293.231 590.9 293.231 592.37C293.231 593.855 292.376 595.175 290.831 595.175ZM302.265 596V590.915C302.265 589.34 301.47 588.575 299.955 588.575C298.875 588.575 297.885 589.205 297.375 589.805V588.755H296.25V596H297.375V590.705C297.795 590.12 298.635 589.58 299.52 589.58C300.495 589.58 301.14 589.985 301.14 591.26V596H302.265ZM308.934 587.72C309.354 587.72 309.699 587.39 309.699 586.97C309.699 586.55 309.354 586.205 308.934 586.205C308.529 586.205 308.184 586.55 308.184 586.97C308.184 587.39 308.529 587.72 308.934 587.72ZM309.504 596V588.755H308.379V596H309.504ZM313.578 596.18C314.238 596.18 314.643 595.985 314.928 595.715L314.598 594.875C314.448 595.04 314.148 595.175 313.833 595.175C313.338 595.175 313.098 594.785 313.098 594.245V589.745H314.568V588.755H313.098V586.775H311.973V588.755H310.773V589.745H311.973V594.485C311.973 595.565 312.513 596.18 313.578 596.18Z" fill="#585858"/>
<circle cx="188" cy="399" r="134" fill="#EDF4FF"/>
<circle cx="188.001" cy="399" r="91.6842" fill="#B3D1FF"/>
</svg>
