<svg width="192" height="173" viewBox="0 0 192 173" fill="none" xmlns="http://www.w3.org/2000/svg">
<rect x="0.0605469" y="0.825867" width="190.964" height="171.433" rx="6" fill="#669BEC"/>
<path d="M152.326 32.9445C151.911 32.5298 151.337 32.2916 150.751 32.2916C150.165 32.2916 149.59 32.53 149.175 32.9445C148.761 33.359 148.522 33.9339 148.522 34.5198C148.522 35.1058 148.761 35.6805 149.175 36.0948C149.59 36.5115 150.165 36.748 150.751 36.748C151.337 36.748 151.911 36.5117 152.326 36.0948C152.743 35.6805 152.979 35.1056 152.979 34.5198C152.979 33.9339 152.743 33.359 152.326 32.9445Z" fill="#78ADFE"/>
<path d="M125.782 69.0491H117.523C118.512 67.5294 119.089 65.7183 119.089 63.7736C119.089 58.4247 114.737 54.0731 109.388 54.0731C105.842 54.0731 102.735 55.9873 101.043 58.8359C99.6386 57.715 97.8608 57.0424 95.9281 57.0424C93.9954 57.0424 92.2177 57.715 90.813 58.8359C89.1211 55.9873 86.0145 54.0731 82.4678 54.0731C77.1189 54.0731 72.7672 58.4247 72.7672 63.7736C72.7672 65.7179 73.3444 67.5289 74.3334 69.0489H66.0744C63.1233 69.0489 60.7227 71.4496 60.7227 74.4009V82.1912C60.7227 84.1669 61.7994 85.8946 63.3965 86.8219V123.415C63.3965 127.593 66.796 130.993 70.9747 130.993H120.882C125.06 130.993 128.46 127.593 128.46 123.415V86.8221C130.056 85.8948 131.133 84.1672 131.133 82.1914V74.4011C131.134 71.45 128.733 69.0491 125.782 69.0491ZM104.144 63.7738C104.144 60.882 106.497 58.5297 109.389 58.5297C112.28 58.5297 114.633 60.8824 114.633 63.774C114.633 66.6656 112.28 69.0182 109.389 69.0182H104.144V63.7738ZM106.433 73.5055L113.199 85.43L111.606 85.0021C111.034 84.8493 110.426 84.9288 109.914 85.2245C109.402 85.5202 109.028 86.0074 108.876 86.5783L108.486 88.0343L100.314 73.5053H106.433V73.5055ZM95.9285 61.499C98.0016 61.499 99.6881 63.1853 99.6881 65.2584C99.6881 67.3315 98.0016 69.0179 95.9285 69.0179C93.8554 69.0179 92.1689 67.3315 92.1689 65.2584C92.1689 63.1853 93.8552 61.499 95.9285 61.499ZM91.7453 73.5055L84.9246 85.4258L84.5204 83.9147C84.3675 83.3435 83.994 82.8566 83.4819 82.5609C82.9698 82.2654 82.3617 82.1854 81.7903 82.3385L80.2124 82.7619L85.4917 73.5055H91.7453ZM82.4682 58.5297C85.36 58.5297 87.7126 60.8822 87.7126 63.7738V69.0182H82.4682C79.5764 69.0182 77.2239 66.6654 77.2239 63.7738C77.2239 60.8822 79.5766 58.5297 82.4682 58.5297ZM65.1795 82.1912V74.4011C65.1795 73.9073 65.5813 73.5055 66.0751 73.5055H80.3615L74.8972 83.0868H66.0751C65.5813 83.0868 65.1795 82.685 65.1795 82.1912ZM99.939 126.536H70.9747C69.2535 126.536 67.8531 125.136 67.8531 123.415V87.5432H73.7885C73.8148 87.5822 73.8369 87.623 73.8659 87.6604C74.4152 88.3722 75.3386 88.6839 76.2073 88.4511L80.7913 87.221L82.0178 91.8062C82.2512 92.6786 82.9881 93.3237 83.8833 93.44C83.9795 93.4525 84.0756 93.4585 84.1709 93.4585C84.9625 93.4585 85.7039 93.0363 86.1043 92.3372L87.4608 89.9664V112.499C87.4608 113.73 88.4584 114.727 89.6889 114.727C90.9195 114.727 91.9171 113.73 91.9171 112.499V87.6745H99.9385V126.536H99.939ZM91.3226 83.2181L96.0335 74.9852L100.664 83.2181H91.3226ZM124.003 123.415C124.003 125.136 122.603 126.536 120.882 126.536H104.395V89.8525L107.283 94.9866C107.681 95.6941 108.427 96.1224 109.224 96.1224C109.317 96.1224 109.41 96.1168 109.504 96.1048C110.403 95.9913 111.143 95.3451 111.377 94.47L112.604 89.8848L117.188 91.1149C118.056 91.3478 118.979 91.0369 119.528 90.3263C120.078 89.6156 120.147 88.6445 119.704 87.863L119.522 87.543H124.003V123.415ZM126.677 82.1914C126.677 82.6853 126.276 83.087 125.782 83.087H116.993L111.556 73.5057H125.782C126.276 73.5055 126.677 73.9073 126.677 74.4011V82.1914Z" fill="#78ADFE"/>
<path d="M91.2654 119.055C90.8509 118.64 90.276 118.404 89.6901 118.404C89.104 118.404 88.5293 118.64 88.1148 119.055C87.7004 119.469 87.4619 120.044 87.4619 120.632C87.4619 121.218 87.7004 121.793 88.1148 122.208C88.5293 122.622 89.1043 122.861 89.6901 122.861C90.2762 122.861 90.8509 122.622 91.2654 122.208C91.6799 121.791 91.9183 121.218 91.9183 120.632C91.9181 120.044 91.6796 119.472 91.2654 119.055Z" fill="#78ADFE"/>
<path d="M150.741 111.135H149.213C147.982 111.135 146.984 112.133 146.984 113.363C146.984 114.594 147.982 115.591 149.213 115.591H150.741C151.971 115.591 152.969 114.594 152.969 113.363C152.969 112.133 151.972 111.135 150.741 111.135Z" fill="#78ADFE"/>
<path d="M139.929 111.135H138.401C137.171 111.135 136.173 112.133 136.173 113.363C136.173 114.594 137.171 115.591 138.401 115.591H139.929C141.16 115.591 142.157 114.594 142.157 113.363C142.157 112.133 141.16 111.135 139.929 111.135Z" fill="#78ADFE"/>
<path d="M144.571 115.777C143.34 115.777 142.343 116.774 142.343 118.005V119.533C142.343 120.763 143.34 121.761 144.571 121.761C145.801 121.761 146.799 120.763 146.799 119.533V118.005C146.799 116.774 145.801 115.777 144.571 115.777Z" fill="#78ADFE"/>
<path d="M144.571 104.965C143.34 104.965 142.343 105.963 142.343 107.193V108.722C142.343 109.952 143.34 110.95 144.571 110.95C145.801 110.95 146.799 109.952 146.799 108.722V107.193C146.799 105.963 145.801 104.965 144.571 104.965Z" fill="#78ADFE"/>
<path d="M53.69 67.7155H52.1618C50.9313 67.7155 49.9336 68.7134 49.9336 69.9437C49.9336 71.174 50.9313 72.1719 52.1618 72.1719H53.69C54.9206 72.1719 55.9182 71.1742 55.9182 69.9437C55.9182 68.7134 54.9208 67.7155 53.69 67.7155Z" fill="#78ADFE"/>
<path d="M42.8795 67.7155H41.3512C40.1207 67.7155 39.123 68.7134 39.123 69.9437C39.123 71.174 40.1207 72.1719 41.3512 72.1719H42.8795C44.11 72.1719 45.1077 71.1742 45.1077 69.9437C45.1077 68.7134 44.1102 67.7155 42.8795 67.7155Z" fill="#78ADFE"/>
<path d="M47.5212 72.3572C46.2906 72.3572 45.293 73.3551 45.293 74.5854V76.1135C45.293 77.3438 46.2906 78.3417 47.5212 78.3417C48.7517 78.3417 49.7494 77.3438 49.7494 76.1135V74.5854C49.7494 73.3547 48.7517 72.3572 47.5212 72.3572Z" fill="#78ADFE"/>
<path d="M47.5212 61.5457C46.2906 61.5457 45.293 62.5436 45.293 63.7739V65.3019C45.293 66.5322 46.2906 67.5301 47.5212 67.5301C48.7517 67.5301 49.7494 66.5322 49.7494 65.3019V63.7739C49.7494 62.5434 48.7517 61.5457 47.5212 61.5457Z" fill="#78ADFE"/>
<path d="M122.146 36.6662C118.461 36.6662 115.462 39.665 115.462 43.3508C115.462 47.0366 118.461 50.0354 122.146 50.0354C125.832 50.0354 128.831 47.0366 128.831 43.3508C128.831 39.665 125.833 36.6662 122.146 36.6662ZM122.146 45.579C120.918 45.579 119.918 44.5793 119.918 43.3508C119.918 42.1223 120.918 41.1226 122.146 41.1226C123.375 41.1226 124.375 42.1223 124.375 43.3508C124.375 44.5793 123.375 45.579 122.146 45.579Z" fill="#78ADFE"/>
<path d="M48.4707 106.679C44.7849 106.679 41.7861 109.678 41.7861 113.363C41.7861 117.049 44.7849 120.048 48.4707 120.048C52.1565 120.048 55.1553 117.049 55.1553 113.363C55.1553 109.678 52.1565 106.679 48.4707 106.679ZM48.4707 115.592C47.2422 115.592 46.2425 114.592 46.2425 113.363C46.2425 112.135 47.2422 111.135 48.4707 111.135C49.6992 111.135 50.6989 112.135 50.6989 113.363C50.6989 114.592 49.6992 115.592 48.4707 115.592Z" fill="#78ADFE"/>
<path d="M123.722 136.274C123.308 135.86 122.733 135.622 122.147 135.622C121.559 135.622 120.986 135.86 120.57 136.274C120.155 136.689 119.919 137.264 119.919 137.85C119.919 138.436 120.155 139.008 120.57 139.425C120.986 139.839 121.561 140.078 122.147 140.078C122.733 140.078 123.308 139.839 123.722 139.425C124.137 139.008 124.375 138.436 124.375 137.85C124.375 137.264 124.137 136.689 123.722 136.274Z" fill="#78ADFE"/>
<path d="M75.6667 136.274C75.2523 135.86 74.6773 135.622 74.0915 135.622C73.5054 135.622 72.9307 135.86 72.5162 136.274C72.1017 136.689 71.8633 137.262 71.8633 137.85C71.8633 138.436 72.1017 139.008 72.5162 139.425C72.9307 139.839 73.5056 140.078 74.0915 140.078C74.6775 140.078 75.2523 139.839 75.6667 139.425C76.0812 139.008 76.3197 138.436 76.3197 137.85C76.3197 137.261 76.0812 136.689 75.6667 136.274Z" fill="#78ADFE"/>
<path d="M77.2029 41.8395C76.7884 41.4252 76.2135 41.1866 75.6276 41.1866C75.0415 41.1866 74.4668 41.425 74.0523 41.8395C73.6379 42.254 73.3994 42.8289 73.3994 43.4148C73.3994 44.0031 73.6379 44.5756 74.0523 44.99C74.4668 45.4068 75.0418 45.643 75.6276 45.643C76.2137 45.643 76.7884 45.4065 77.2029 44.99C77.6174 44.5756 77.8558 44.0026 77.8558 43.4148C77.8558 42.8289 77.6174 42.2562 77.2029 41.8395Z" fill="#78ADFE"/>
<path d="M145.97 67.029C145.556 66.6123 144.981 66.3761 144.395 66.3761C143.809 66.3761 143.234 66.6123 142.82 67.029C142.405 67.4435 142.167 68.0164 142.167 68.6043C142.167 69.1904 142.405 69.7628 142.82 70.1796C143.234 70.5938 143.809 70.8325 144.395 70.8325C144.981 70.8325 145.556 70.594 145.97 70.1796C146.385 69.7628 146.623 69.1901 146.623 68.6043C146.623 68.0162 146.385 67.4435 145.97 67.029Z" fill="#78ADFE"/>
</svg>
