<svg width="375" height="812" viewBox="0 0 375 812" fill="none" xmlns="http://www.w3.org/2000/svg">
<rect width="375" height="812" fill="white"/>
<path d="M115.602 147.264C118.572 147.264 120.376 145.724 121.498 143.964L119.298 142.842C118.594 144.074 117.186 144.976 115.602 144.976C112.698 144.976 110.542 142.754 110.542 139.674C110.542 136.594 112.698 134.372 115.602 134.372C117.186 134.372 118.594 135.296 119.298 136.506L121.498 135.384C120.398 133.624 118.572 132.084 115.602 132.084C111.268 132.084 107.902 135.164 107.902 139.674C107.902 144.184 111.268 147.264 115.602 147.264ZM128.288 147.264C131.698 147.264 133.766 144.734 133.766 141.676C133.766 138.64 131.698 136.11 128.288 136.11C124.922 136.11 122.832 138.64 122.832 141.676C122.832 144.734 124.922 147.264 128.288 147.264ZM128.288 145.218C126.33 145.218 125.23 143.568 125.23 141.676C125.23 139.806 126.33 138.156 128.288 138.156C130.268 138.156 131.368 139.806 131.368 141.676C131.368 143.568 130.268 145.218 128.288 145.218ZM145.585 147V139.52C145.585 137.342 144.441 136.11 142.153 136.11C140.481 136.11 139.117 136.99 138.413 137.826V136.374H136.103V147H138.413V139.586C138.941 138.86 139.953 138.156 141.141 138.156C142.439 138.156 143.275 138.706 143.275 140.356V147H145.585ZM152.898 151.312C155.516 151.312 158.354 150.278 158.354 146.45V136.374H156.044V137.848C155.186 136.726 153.976 136.11 152.634 136.11C149.906 136.11 147.926 138.134 147.926 141.566C147.926 145.064 149.928 147.022 152.634 147.022C154.02 147.022 155.23 146.318 156.044 145.262V146.538C156.044 148.716 154.416 149.42 152.898 149.42C151.49 149.42 150.39 149.046 149.532 148.056L148.454 149.728C149.752 150.916 151.094 151.312 152.898 151.312ZM153.316 144.976C151.49 144.976 150.324 143.612 150.324 141.566C150.324 139.52 151.49 138.156 153.316 138.156C154.394 138.156 155.538 138.794 156.044 139.586V143.546C155.538 144.338 154.394 144.976 153.316 144.976ZM163.658 147V139.762C164.12 139.014 165.418 138.354 166.386 138.354C166.672 138.354 166.914 138.376 167.112 138.42V136.132C165.726 136.132 164.45 136.924 163.658 137.936V136.374H161.348V147H163.658ZM177.775 147V139.96C177.775 137.1 175.707 136.11 173.353 136.11C171.659 136.11 170.119 136.66 168.887 137.826L169.833 139.432C170.757 138.53 171.791 138.09 172.979 138.09C174.453 138.09 175.465 138.838 175.465 140.07V141.654C174.695 140.752 173.463 140.29 172.033 140.29C170.295 140.29 168.337 141.302 168.337 143.744C168.337 146.098 170.295 147.264 172.033 147.264C173.441 147.264 174.673 146.758 175.465 145.856V147H177.775ZM172.935 145.68C171.637 145.68 170.669 144.932 170.669 143.788C170.669 142.622 171.637 141.874 172.935 141.874C173.947 141.874 174.937 142.248 175.465 142.974V144.58C174.937 145.306 173.947 145.68 172.935 145.68ZM183.959 147.264C185.037 147.264 185.719 146.978 186.137 146.582L185.587 144.844C185.411 145.042 184.993 145.218 184.553 145.218C183.893 145.218 183.541 144.69 183.541 143.964V138.398H185.697V136.374H183.541V133.47H181.231V136.374H179.471V138.398H181.231V144.536C181.231 146.296 182.177 147.264 183.959 147.264ZM197.277 147V136.374H194.967V143.832C194.417 144.558 193.405 145.218 192.239 145.218C190.941 145.218 190.105 144.712 190.105 143.062V136.374H187.795V143.898C187.795 146.076 188.917 147.264 191.205 147.264C192.877 147.264 194.197 146.45 194.967 145.592V147H197.277ZM202.587 147V132.326H200.277V147H202.587ZM214.384 147V139.96C214.384 137.1 212.316 136.11 209.962 136.11C208.268 136.11 206.728 136.66 205.496 137.826L206.442 139.432C207.366 138.53 208.4 138.09 209.588 138.09C211.062 138.09 212.074 138.838 212.074 140.07V141.654C211.304 140.752 210.072 140.29 208.642 140.29C206.904 140.29 204.946 141.302 204.946 143.744C204.946 146.098 206.904 147.264 208.642 147.264C210.05 147.264 211.282 146.758 212.074 145.856V147H214.384ZM209.544 145.68C208.246 145.68 207.278 144.932 207.278 143.788C207.278 142.622 208.246 141.874 209.544 141.874C210.556 141.874 211.546 142.248 212.074 142.974V144.58C211.546 145.306 210.556 145.68 209.544 145.68ZM220.569 147.264C221.647 147.264 222.329 146.978 222.747 146.582L222.197 144.844C222.021 145.042 221.603 145.218 221.163 145.218C220.503 145.218 220.151 144.69 220.151 143.964V138.398H222.307V136.374H220.151V133.47H217.841V136.374H216.081V138.398H217.841V144.536C217.841 146.296 218.787 147.264 220.569 147.264ZM225.548 135.076C226.34 135.076 226.978 134.438 226.978 133.646C226.978 132.854 226.34 132.216 225.548 132.216C224.778 132.216 224.118 132.854 224.118 133.646C224.118 134.438 224.778 135.076 225.548 135.076ZM226.714 147V136.374H224.404V147H226.714ZM234.507 147.264C237.917 147.264 239.985 144.734 239.985 141.676C239.985 138.64 237.917 136.11 234.507 136.11C231.141 136.11 229.051 138.64 229.051 141.676C229.051 144.734 231.141 147.264 234.507 147.264ZM234.507 145.218C232.549 145.218 231.449 143.568 231.449 141.676C231.449 139.806 232.549 138.156 234.507 138.156C236.487 138.156 237.587 139.806 237.587 141.676C237.587 143.568 236.487 145.218 234.507 145.218ZM251.804 147V139.52C251.804 137.342 250.66 136.11 248.372 136.11C246.7 136.11 245.336 136.99 244.632 137.826V136.374H242.322V147H244.632V139.586C245.16 138.86 246.172 138.156 247.36 138.156C248.658 138.156 249.494 138.706 249.494 140.356V147H251.804ZM258.435 147.264C261.295 147.264 262.857 145.834 262.857 143.964C262.857 139.74 256.433 141.148 256.433 139.256C256.433 138.508 257.203 137.958 258.413 137.958C259.733 137.958 260.921 138.508 261.559 139.234L262.527 137.606C261.559 136.748 260.195 136.11 258.391 136.11C255.707 136.11 254.211 137.606 254.211 139.344C254.211 143.414 260.635 141.918 260.635 144.008C260.635 144.844 259.931 145.438 258.545 145.438C257.159 145.438 255.685 144.712 254.937 143.942L253.881 145.614C254.981 146.692 256.631 147.264 258.435 147.264ZM266.71 143.328L267.034 134.994H264.73L265.072 143.328H266.71ZM265.882 147.18C266.566 147.18 267.142 146.604 267.142 145.938C267.142 145.254 266.566 144.678 265.882 144.678C265.198 144.678 264.64 145.254 264.64 145.938C264.64 146.604 265.198 147.18 265.882 147.18Z" fill="black"/>
<path d="M97.412 184V171.994H95.918V177.16H88.898V171.994H87.404V184H88.898V178.492H95.918V184H97.412ZM104.088 184.216C105.51 184.216 106.68 183.748 107.544 182.884L106.896 182.002C106.212 182.704 105.204 183.1 104.214 183.1C102.342 183.1 101.19 181.732 101.082 180.094H108.12V179.752C108.12 177.142 106.572 175.09 103.944 175.09C101.46 175.09 99.6605 177.124 99.6605 179.644C99.6605 182.362 101.514 184.216 104.088 184.216ZM106.788 179.104H101.082C101.154 177.772 102.072 176.206 103.926 176.206C105.906 176.206 106.77 177.808 106.788 179.104ZM111.657 184V177.844C112.053 177.142 113.187 176.458 114.015 176.458C114.231 176.458 114.393 176.476 114.555 176.512V175.126C113.367 175.126 112.359 175.792 111.657 176.71V175.306H110.307V184H111.657ZM120.172 184.216C121.594 184.216 122.764 183.748 123.628 182.884L122.98 182.002C122.296 182.704 121.288 183.1 120.298 183.1C118.426 183.1 117.274 181.732 117.166 180.094H124.204V179.752C124.204 177.142 122.656 175.09 120.028 175.09C117.544 175.09 115.744 177.124 115.744 179.644C115.744 182.362 117.598 184.216 120.172 184.216ZM122.872 179.104H117.166C117.238 177.772 118.156 176.206 120.01 176.206C121.99 176.206 122.854 177.808 122.872 179.104ZM131.698 174.064C132.202 174.064 132.616 173.668 132.616 173.164C132.616 172.66 132.202 172.246 131.698 172.246C131.212 172.246 130.798 172.66 130.798 173.164C130.798 173.668 131.212 174.064 131.698 174.064ZM132.382 184V175.306H131.032V184H132.382ZM137.829 184.216C140.079 184.216 141.249 183.046 141.249 181.588C141.249 178.204 135.867 179.464 135.867 177.556C135.867 176.782 136.605 176.188 137.793 176.188C138.909 176.188 139.863 176.656 140.385 177.286L141.015 176.35C140.313 175.648 139.269 175.09 137.793 175.09C135.723 175.09 134.553 176.242 134.553 177.592C134.553 180.814 139.935 179.518 139.935 181.624C139.935 182.488 139.215 183.118 137.883 183.118C136.695 183.118 135.597 182.542 135.021 181.876L134.319 182.848C135.201 183.784 136.407 184.216 137.829 184.216ZM147.596 187.402C147.848 187.474 148.298 187.528 148.586 187.528C149.738 187.51 150.62 187.024 151.142 185.764L155.498 175.306H154.022L151.142 182.434L148.244 175.306H146.786L150.422 184.09L149.846 185.404C149.54 186.124 149.144 186.322 148.55 186.322C148.334 186.322 148.01 186.268 147.812 186.178L147.596 187.402ZM160.705 184.216C163.351 184.216 165.007 182.164 165.007 179.644C165.007 177.124 163.351 175.09 160.705 175.09C158.059 175.09 156.403 177.124 156.403 179.644C156.403 182.164 158.059 184.216 160.705 184.216ZM160.705 183.01C158.851 183.01 157.807 181.426 157.807 179.644C157.807 177.88 158.851 176.296 160.705 176.296C162.559 176.296 163.585 177.88 163.585 179.644C163.585 181.426 162.559 183.01 160.705 183.01ZM174.425 184V175.306H173.075V181.696C172.571 182.398 171.563 183.01 170.501 183.01C169.331 183.01 168.557 182.56 168.557 181.03V175.306H167.207V181.444C167.207 183.334 168.161 184.216 169.979 184.216C171.275 184.216 172.409 183.532 173.075 182.776V184H174.425ZM178.471 184V177.844C178.867 177.142 180.001 176.458 180.829 176.458C181.045 176.458 181.207 176.476 181.369 176.512V175.126C180.181 175.126 179.173 175.792 178.471 176.71V175.306H177.121V184H178.471ZM191.646 184.216C194.886 184.216 196.074 182.434 196.074 180.688C196.074 176.206 188.964 177.754 188.964 175.054C188.964 173.92 189.99 173.146 191.43 173.146C192.744 173.146 194.004 173.596 194.904 174.586L195.804 173.488C194.796 172.426 193.374 171.814 191.538 171.814C189.18 171.814 187.416 173.164 187.416 175.144C187.416 179.428 194.526 177.718 194.526 180.814C194.526 181.732 193.842 182.884 191.7 182.884C190.008 182.884 188.712 182.056 187.92 181.174L187.038 182.308C188.028 183.424 189.558 184.216 191.646 184.216ZM202.084 184.216C203.668 184.216 204.604 183.568 205.27 182.704L204.37 181.876C203.794 182.65 203.056 183.01 202.156 183.01C200.302 183.01 199.15 181.57 199.15 179.644C199.15 177.718 200.302 176.296 202.156 176.296C203.056 176.296 203.794 176.638 204.37 177.43L205.27 176.602C204.604 175.738 203.668 175.09 202.084 175.09C199.492 175.09 197.746 177.07 197.746 179.644C197.746 182.236 199.492 184.216 202.084 184.216ZM208.513 184V177.844C208.909 177.142 210.043 176.458 210.871 176.458C211.087 176.458 211.249 176.476 211.411 176.512V175.126C210.223 175.126 209.215 175.792 208.513 176.71V175.306H207.163V184H208.513ZM219.89 184V178.024C219.89 175.918 218.36 175.09 216.524 175.09C215.102 175.09 213.986 175.558 213.05 176.53L213.68 177.466C214.454 176.638 215.3 176.26 216.344 176.26C217.604 176.26 218.54 176.926 218.54 178.096V179.662C217.838 178.852 216.848 178.474 215.66 178.474C214.184 178.474 212.618 179.392 212.618 181.336C212.618 183.226 214.184 184.216 215.66 184.216C216.83 184.216 217.82 183.802 218.54 183.01V184H219.89ZM216.146 183.244C214.886 183.244 214.004 182.452 214.004 181.354C214.004 180.238 214.886 179.446 216.146 179.446C217.1 179.446 218.018 179.806 218.54 180.526V182.164C218.018 182.884 217.1 183.244 216.146 183.244ZM224.792 184.216C225.584 184.216 226.07 183.982 226.412 183.658L226.016 182.65C225.836 182.848 225.476 183.01 225.098 183.01C224.504 183.01 224.216 182.542 224.216 181.894V176.494H225.98V175.306H224.216V172.93H222.866V175.306H221.426V176.494H222.866V182.182C222.866 183.478 223.514 184.216 224.792 184.216ZM231.721 184.216C233.305 184.216 234.241 183.568 234.907 182.704L234.007 181.876C233.431 182.65 232.693 183.01 231.793 183.01C229.939 183.01 228.787 181.57 228.787 179.644C228.787 177.718 229.939 176.296 231.793 176.296C232.693 176.296 233.431 176.638 234.007 177.43L234.907 176.602C234.241 175.738 233.305 175.09 231.721 175.09C229.129 175.09 227.383 177.07 227.383 179.644C227.383 182.236 229.129 184.216 231.721 184.216ZM244.035 184V177.862C244.035 175.972 243.081 175.09 241.263 175.09C239.949 175.09 238.761 175.846 238.149 176.566V171.994H236.799V184H238.149V177.646C238.671 176.944 239.679 176.296 240.723 176.296C241.893 176.296 242.685 176.746 242.685 178.276V184H244.035ZM257.113 184.216C259.237 184.216 260.677 183.208 261.685 181.84L260.407 181.138C259.723 182.164 258.481 182.884 257.113 182.884C254.485 182.884 252.487 180.85 252.487 178.006C252.487 175.144 254.485 173.128 257.113 173.128C258.481 173.128 259.723 173.866 260.407 174.874L261.667 174.172C260.713 172.822 259.237 171.796 257.113 171.796C253.657 171.796 250.939 174.316 250.939 178.006C250.939 181.696 253.657 184.216 257.113 184.216ZM270.322 184V178.024C270.322 175.918 268.792 175.09 266.956 175.09C265.534 175.09 264.418 175.558 263.482 176.53L264.112 177.466C264.886 176.638 265.732 176.26 266.776 176.26C268.036 176.26 268.972 176.926 268.972 178.096V179.662C268.27 178.852 267.28 178.474 266.092 178.474C264.616 178.474 263.05 179.392 263.05 181.336C263.05 183.226 264.616 184.216 266.092 184.216C267.262 184.216 268.252 183.802 268.972 183.01V184H270.322ZM266.578 183.244C265.318 183.244 264.436 182.452 264.436 181.354C264.436 180.238 265.318 179.446 266.578 179.446C267.532 179.446 268.45 179.806 268.972 180.526V182.164C268.45 182.884 267.532 183.244 266.578 183.244ZM274.378 184V177.844C274.774 177.142 275.908 176.458 276.736 176.458C276.952 176.458 277.114 176.476 277.276 176.512V175.126C276.088 175.126 275.08 175.792 274.378 176.71V175.306H273.028V184H274.378ZM286.619 184V171.994H285.269V176.62C284.567 175.666 283.505 175.09 282.335 175.09C280.049 175.09 278.465 176.89 278.465 179.662C278.465 182.488 280.067 184.216 282.335 184.216C283.559 184.216 284.621 183.586 285.269 182.704V184H286.619ZM282.659 183.01C280.913 183.01 279.869 181.588 279.869 179.662C279.869 177.736 280.913 176.296 282.659 176.296C283.739 176.296 284.783 176.944 285.269 177.7V181.642C284.783 182.398 283.739 183.01 282.659 183.01Z" fill="#585858"/>
<circle cx="188" cy="399" r="134" fill="#EDF4FF"/>
<circle cx="188.001" cy="399" r="91.6842" fill="#B3D1FF"/>
</svg>
