<svg width="44" height="78" viewBox="0 0 44 78" fill="none" xmlns="http://www.w3.org/2000/svg">
<circle cx="22" cy="22" r="22" fill="url(#paint0_linear)"/>
<path d="M32.9617 17.013L31.4617 12.513C31.3597 12.2066 31.073 11.9999 30.75 12H14.25C13.927 11.9999 13.6403 12.2066 13.5383 12.513L12.0382 17.013C12.0151 17.0831 12.0022 17.1561 12 17.2298C12 17.2373 12 17.2425 12 17.25V18C12.0027 19.1751 12.5584 20.2804 13.5 20.9835C13.5 20.9895 13.5 20.994 13.5 21V30.75C13.5 31.9926 14.5073 33 15.75 33H29.25C30.4926 33 31.5 31.9926 31.5 30.75V21C31.5 20.994 31.5 20.9895 31.5 20.9835C32.4415 20.2804 32.9973 19.1751 33 18V17.25C33 17.2425 33 17.2373 33 17.2298C32.9978 17.156 32.9849 17.083 32.9617 17.013ZM27.75 13.5H30.2093L31.2098 16.5H27.75V13.5ZM23.25 13.5H26.25V16.5H23.25V13.5ZM18.75 13.5H21.75V16.5H18.75V13.5ZM14.7907 13.5H17.25V16.5H13.7902L14.7907 13.5ZM24 31.5H21V25.5H24V31.5ZM30 30.75C30 31.1642 29.6642 31.5 29.25 31.5H25.5V24.75C25.5 24.3358 25.1642 24 24.75 24H20.25C19.8358 24 19.5 24.3358 19.5 24.75V31.5H15.75C15.3358 31.5 15 31.1642 15 30.75V21.675C16.0525 21.8911 17.147 21.6399 18 20.9865C19.3388 21.9698 21.1611 21.9698 22.5 20.9865C23.8388 21.9698 25.6611 21.9698 27 20.9865C27.853 21.6399 28.9475 21.8911 30 21.675V30.75ZM29.25 20.25C28.6014 20.2496 27.9855 19.9651 27.5647 19.4715C27.2922 19.1596 26.8183 19.1277 26.5065 19.4003C26.4812 19.4224 26.4573 19.4462 26.4352 19.4715C25.6013 20.4023 24.1708 20.4807 23.24 19.6468C23.1784 19.5916 23.1199 19.5331 23.0647 19.4715C22.7712 19.1596 22.2804 19.1447 21.9685 19.4382C21.9571 19.449 21.946 19.4601 21.9352 19.4715C21.1013 20.4023 19.6708 20.4807 18.74 19.6468C18.6784 19.5916 18.6199 19.5331 18.5647 19.4715C18.2712 19.1596 17.7804 19.1447 17.4685 19.4382C17.4571 19.449 17.446 19.4601 17.4352 19.4715C17.0145 19.9651 16.3986 20.2496 15.75 20.25C14.5073 20.25 13.5 19.2426 13.5 18H31.5C31.5 19.2426 30.4926 20.25 29.25 20.25Z" fill="white"/>
<path d="M10.3123 68.168C12.8323 68.168 13.7563 66.782 13.7563 65.424C13.7563 61.938 8.22629 63.142 8.22629 61.042C8.22629 60.16 9.02429 59.558 10.1443 59.558C11.1663 59.558 12.1463 59.908 12.8463 60.678L13.5463 59.824C12.7623 58.998 11.6563 58.522 10.2283 58.522C8.39429 58.522 7.02229 59.572 7.02229 61.112C7.02229 64.444 12.5523 63.114 12.5523 65.522C12.5523 66.236 12.0203 67.132 10.3543 67.132C9.03829 67.132 8.03029 66.488 7.41429 65.802L6.72829 66.684C7.49829 67.552 8.68829 68.168 10.3123 68.168ZM16.925 68.168C17.541 68.168 17.919 67.986 18.185 67.734L17.877 66.95C17.737 67.104 17.457 67.23 17.163 67.23C16.701 67.23 16.477 66.866 16.477 66.362V62.162H17.849V61.238H16.477V59.39H15.427V61.238H14.307V62.162H15.427V66.586C15.427 67.594 15.931 68.168 16.925 68.168ZM22.2862 68.168C24.3442 68.168 25.6322 66.572 25.6322 64.612C25.6322 62.652 24.3442 61.07 22.2862 61.07C20.2282 61.07 18.9402 62.652 18.9402 64.612C18.9402 66.572 20.2282 68.168 22.2862 68.168ZM22.2862 67.23C20.8442 67.23 20.0322 65.998 20.0322 64.612C20.0322 63.24 20.8442 62.008 22.2862 62.008C23.7282 62.008 24.5262 63.24 24.5262 64.612C24.5262 65.998 23.7282 67.23 22.2862 67.23ZM28.3939 68V63.212C28.7019 62.666 29.5839 62.134 30.2279 62.134C30.3959 62.134 30.5219 62.148 30.6479 62.176V61.098C29.7239 61.098 28.9399 61.616 28.3939 62.33V61.238H27.3439V68H28.3939ZM35.017 68.168C36.123 68.168 37.033 67.804 37.705 67.132L37.201 66.446C36.669 66.992 35.885 67.3 35.115 67.3C33.659 67.3 32.763 66.236 32.679 64.962H38.153V64.696C38.153 62.666 36.949 61.07 34.905 61.07C32.973 61.07 31.573 62.652 31.573 64.612C31.573 66.726 33.015 68.168 35.017 68.168ZM37.117 64.192H32.679C32.735 63.156 33.449 61.938 34.891 61.938C36.431 61.938 37.103 63.184 37.117 64.192Z" fill="#656564"/>
<defs>
<linearGradient id="paint0_linear" x1="22" y1="0" x2="22" y2="44" gradientUnits="userSpaceOnUse">
<stop stop-color="#7CA9ED"/>
<stop offset="1" stop-color="#659BEC"/>
</linearGradient>
</defs>
</svg>
