<svg width="359" height="664" viewBox="0 0 359 664" fill="none" xmlns="http://www.w3.org/2000/svg" xmlns:xlink="http://www.w3.org/1999/xlink">
<g filter="url(#filter0_d)">
<path fill-rule="evenodd" clip-rule="evenodd" d="M14 17C14 13.6863 16.6863 11 20 11H339C342.314 11 345 13.6863 345 17V365.2C344.354 365.069 343.685 365 343 365C337.477 365 333 369.477 333 375C333 380.523 337.477 385 343 385C343.685 385 344.354 384.931 345 384.8V641C345 644.314 342.314 647 339 647H20C16.6863 647 14 644.314 14 641V384.8C14.6462 384.931 15.3151 385 16 385C21.5228 385 26 380.523 26 375C26 369.477 21.5228 365 16 365C15.3151 365 14.6462 365.069 14 365.2V17Z" fill="white"/>
</g>
<path d="M31.32 376.656V375.6H27.48V376.656H31.32ZM40.1169 376.656V375.6H36.2769V376.656H40.1169ZM48.9138 376.656V375.6H45.0738V376.656H48.9138ZM57.7106 376.656V375.6H53.8706V376.656H57.7106ZM66.5075 376.656V375.6H62.6675V376.656H66.5075ZM75.3044 376.656V375.6H71.4644V376.656H75.3044ZM84.1013 376.656V375.6H80.2613V376.656H84.1013ZM92.8981 376.656V375.6H89.0581V376.656H92.8981ZM101.695 376.656V375.6H97.855V376.656H101.695ZM110.492 376.656V375.6H106.652V376.656H110.492ZM119.289 376.656V375.6H115.449V376.656H119.289ZM128.086 376.656V375.6H124.246V376.656H128.086ZM136.883 376.656V375.6H133.043V376.656H136.883ZM145.679 376.656V375.6H141.839V376.656H145.679ZM154.476 376.656V375.6H150.636V376.656H154.476ZM163.273 376.656V375.6H159.433V376.656H163.273ZM172.07 376.656V375.6H168.23V376.656H172.07ZM180.867 376.656V375.6H177.027V376.656H180.867ZM189.664 376.656V375.6H185.824V376.656H189.664ZM198.461 376.656V375.6H194.621V376.656H198.461ZM207.258 376.656V375.6H203.418V376.656H207.258ZM216.054 376.656V375.6H212.214V376.656H216.054ZM224.851 376.656V375.6H221.011V376.656H224.851ZM233.648 376.656V375.6H229.808V376.656H233.648ZM242.445 376.656V375.6H238.605V376.656H242.445ZM251.242 376.656V375.6H247.402V376.656H251.242ZM260.039 376.656V375.6H256.199V376.656H260.039ZM268.836 376.656V375.6H264.996V376.656H268.836ZM277.633 376.656V375.6H273.793V376.656H277.633ZM286.429 376.656V375.6H282.589V376.656H286.429ZM295.226 376.656V375.6H291.386V376.656H295.226ZM304.023 376.656V375.6H300.183V376.656H304.023ZM312.82 376.656V375.6H308.98V376.656H312.82ZM321.617 376.656V375.6H317.777V376.656H321.617ZM330.414 376.656V375.6H326.574V376.656H330.414Z" fill="#E0E0E0"/>

<circle cx="179.673" cy="489" r="71.3044" fill="#C4C4C4"/>

<g mask="url(#mask0)">
<rect x="98.5645" y="415.022" width="167.122" height="147.957" fill="url(#pattern0)"/>
</g>
<path d="M95 407.891H95.8913M95.8913 407.891H107.478M95.8913 407.891V419.478M95.8913 407.891V407M263.457 407.891H262.565M262.565 407.891H250.978M262.565 407.891V419.478M262.565 407.891V407M95 570.109H95.8913M95.8913 570.109H107.478M95.8913 570.109V558.522M95.8913 570.109V571M263.457 570.109H262.565M262.565 570.109H250.978M262.565 570.109V558.522M262.565 570.109V571" stroke="#6299EC" stroke-width="2"/>
<path d="M130.992 616.276C134.419 616.276 136.834 614.275 136.834 611.078C136.834 607.95 134.511 606.133 131.935 606.133C130.463 606.133 129.198 606.731 128.462 607.467V603.028H135.822V600.659H125.771V609.238L127.68 609.79C128.646 608.87 129.727 608.456 131.038 608.456C132.924 608.456 134.12 609.537 134.12 611.193C134.12 612.688 132.901 613.884 130.969 613.884C129.244 613.884 127.864 613.24 126.829 612.067L125.288 613.907C126.53 615.379 128.347 616.276 130.992 616.276ZM144.875 616.276C149.176 616.276 151.016 612.205 151.016 608.341C151.016 604.477 149.176 600.429 144.875 600.429C140.574 600.429 138.734 604.477 138.734 608.341C138.734 612.205 140.574 616.276 144.875 616.276ZM144.875 613.884C142.368 613.884 141.471 611.262 141.471 608.341C141.471 605.42 142.368 602.821 144.875 602.821C147.382 602.821 148.279 605.42 148.279 608.341C148.279 611.262 147.382 613.884 144.875 613.884ZM164.223 616V613.631H157.415C161.532 610.526 164.131 607.996 164.131 605.167C164.131 602.108 161.532 600.429 158.565 600.429C156.426 600.429 154.264 601.257 152.907 602.89L154.471 604.661C155.437 603.557 156.817 602.821 158.611 602.821C160.014 602.821 161.394 603.557 161.394 605.167C161.394 607.375 159.071 609.376 153.114 613.884V616H164.223ZM176.292 616V612.527H178.339V610.158H176.292V600.659H172.589L166.287 610.365V612.527H173.601V616H176.292ZM173.601 610.158H168.932L173.601 603.074V610.158ZM185.976 616.276C189.403 616.276 191.818 614.275 191.818 611.078C191.818 607.95 189.495 606.133 186.919 606.133C185.447 606.133 184.182 606.731 183.446 607.467V603.028H190.806V600.659H180.755V609.238L182.664 609.79C183.63 608.87 184.711 608.456 186.022 608.456C187.908 608.456 189.104 609.537 189.104 611.193C189.104 612.688 187.885 613.884 185.953 613.884C184.228 613.884 182.848 613.24 181.813 612.067L180.272 613.907C181.514 615.379 183.331 616.276 185.976 616.276ZM199.629 616.276C202.757 616.276 205.494 614.804 205.494 612.067C205.494 610.112 203.907 608.709 202.044 608.088C203.769 607.536 205.264 606.409 205.264 604.454C205.264 601.625 202.32 600.429 199.629 600.429C196.892 600.429 193.994 601.625 193.994 604.454C193.994 606.409 195.466 607.536 197.191 608.088C195.328 608.709 193.741 610.112 193.741 612.067C193.741 614.827 196.478 616.276 199.629 616.276ZM199.629 607.03C198.686 606.869 196.708 606.317 196.708 604.868C196.708 603.58 197.95 602.821 199.629 602.821C201.262 602.821 202.527 603.58 202.527 604.868C202.527 606.317 200.572 606.869 199.629 607.03ZM199.629 613.884C197.881 613.884 196.455 613.056 196.455 611.722C196.455 610.135 198.663 609.422 199.629 609.307C200.572 609.422 202.78 610.135 202.78 611.722C202.78 613.056 201.331 613.884 199.629 613.884ZM212.549 616.253C216.988 616.253 219.311 612.757 219.311 608.341C219.311 604.063 217.494 600.406 212.986 600.406C209.559 600.406 207.328 602.729 207.328 605.558C207.328 608.824 209.72 610.526 212.48 610.526C214.274 610.526 215.884 609.399 216.597 608.364C216.597 608.525 216.597 608.663 216.597 608.824C216.597 611.331 215.332 613.861 212.549 613.861C211.1 613.861 210.203 613.355 209.398 612.527L208.156 614.551C209.191 615.586 210.663 616.253 212.549 616.253ZM213.193 608.203C211.537 608.203 210.065 607.352 210.065 605.466C210.065 604.247 211.123 602.798 213.124 602.798C215.493 602.798 216.413 604.753 216.551 606.409C215.792 607.513 214.504 608.203 213.193 608.203ZM227.352 616.276C231.653 616.276 233.493 612.205 233.493 608.341C233.493 604.477 231.653 600.429 227.352 600.429C223.051 600.429 221.211 604.477 221.211 608.341C221.211 612.205 223.051 616.276 227.352 616.276ZM227.352 613.884C224.845 613.884 223.948 611.262 223.948 608.341C223.948 605.42 224.845 602.821 227.352 602.821C229.859 602.821 230.756 605.42 230.756 608.341C230.756 611.262 229.859 613.884 227.352 613.884Z" fill="#282828"/>
<circle cx="180" cy="72" r="28" fill="#649AEC"/>
<path d="M168.837 74.8584H179.14V85.44H170.786C169.717 85.44 168.837 84.5601 168.837 83.4908V74.8584Z" fill="white"/>
<path d="M191.115 74.8584V83.4908C191.115 84.5601 190.235 85.44 189.165 85.44H180.812V74.8584H191.115Z" fill="white"/>
<path d="M166.609 68.4536V71.2383C166.609 72.3076 167.489 73.1875 168.559 73.1875H168.837H179.14V71.5167V66.5044H168.559C167.489 66.5044 166.609 67.3843 166.609 68.4536Z" fill="white"/>
<path d="M191.393 66.5044H180.812V71.5167V73.1875H191.115H191.393C192.462 73.1875 193.342 72.3076 193.342 71.2383V68.4536C193.342 67.3843 192.462 66.5044 191.393 66.5044Z" fill="white"/>
<path d="M179.975 67.6673C179.732 67.6673 179.5 67.5615 179.343 67.3777C179.184 67.1939 179.114 66.95 179.148 66.7094C179.56 63.9248 181.736 58.6573 187.024 58.6573C190.043 58.6585 191.113 60.2891 191.113 61.6859C191.113 64.1687 187.657 67.6673 179.975 67.6673ZM187.024 60.3292C183.034 60.3292 181.52 64.1219 181.017 65.972C184.165 65.825 186.15 65.0286 187.293 64.3503C188.878 63.409 189.442 62.3565 189.442 61.6848C189.442 60.6846 188.194 60.3292 187.024 60.3292Z" fill="white"/>
<path d="M179.977 67.6673C172.295 67.6673 168.839 64.1687 168.839 61.6859C168.839 60.2891 169.91 58.6584 172.929 58.6584C178.216 58.6584 180.392 63.9259 180.804 66.7105C180.838 66.9511 180.768 67.195 180.609 67.3788C180.452 67.5615 180.22 67.6673 179.977 67.6673ZM172.929 60.3292C171.759 60.3292 170.51 60.6857 170.51 61.6859C170.51 63.1083 172.997 65.7002 178.934 65.9731C178.432 64.1219 176.918 60.3292 172.929 60.3292Z" fill="white"/>




<defs>
<linearGradient id="paint0_linear" x1="180" y1="296" x2="180" y2="335" gradientUnits="userSpaceOnUse">
<stop stop-color="#7DAAED"/>
<stop offset="1" stop-color="#6299EC"/>
</linearGradient>
</defs>
</svg>
