<svg width="21" height="23" viewBox="0 0 21 23" fill="none" xmlns="http://www.w3.org/2000/svg">
<path d="M18.9561 15.6379V11.25C18.9557 7.3852 16.2953 4.15114 12.7083 3.25504C12.8616 2.95119 12.9561 2.61293 12.9561 2.25C12.9561 1.0093 11.9468 0 10.7061 0C9.46538 0 8.45608 1.0093 8.45608 2.25C8.45608 2.61297 8.55059 2.95114 8.70382 3.25504C5.11681 4.15114 2.45645 7.3852 2.45604 11.25V15.6379C1.58411 15.9479 0.956369 16.7714 0.956055 17.75C0.956504 18.9929 1.96316 19.9995 3.20606 19.9999H7.03151C7.37907 21.7117 8.8915 22.9996 10.7061 23C12.5206 22.9996 14.033 21.7117 14.3806 19.9999H18.2061C19.449 19.9995 20.4557 18.9929 20.4561 17.75C20.4557 16.7714 19.8281 15.9479 18.9561 15.6379ZM10.7061 1.49999C11.1192 1.49999 11.4561 1.8369 11.4561 2.25C11.4561 2.6631 11.1192 3.00002 10.7061 3.00002C10.293 3.00002 9.95606 2.6631 9.95606 2.25C9.95606 1.8369 10.293 1.49999 10.7061 1.49999ZM6.95609 11.25C6.95609 11.6642 6.6203 12 6.20607 12C5.79185 12 5.45606 11.6642 5.45606 11.25C5.45745 8.35291 7.80898 6.00129 10.7061 5.99999C11.1203 5.99999 11.4561 6.33569 11.4561 6.75001C11.4561 7.16419 11.1203 7.50002 10.7061 7.50002V7.49993C8.64026 7.50366 6.95982 9.18414 6.95609 11.25ZM10.7061 21.5001C9.72813 21.4983 8.90543 20.8712 8.59484 19.9999H12.8174C12.5067 20.8712 11.684 21.4983 10.7061 21.5001Z" fill="#7C7C7C"/>
</svg>
