<svg width="22" height="23" viewBox="0 0 22 23" fill="none" xmlns="http://www.w3.org/2000/svg">
<path d="M1.83008 13.348H10.2934V22.0401H3.43124C2.55289 22.0401 1.83008 21.3172 1.83008 20.4389V13.348Z" fill="#6299EC"/>
<path d="M20.1293 13.348V20.4389C20.1293 21.3172 19.4065 22.0401 18.5281 22.0401H11.666V13.348H20.1293Z" fill="#6299EC"/>
<path d="M0 8.087V10.3744C0 11.2527 0.722811 11.9755 1.60116 11.9755H1.8299H10.2932V10.6031V6.48584H1.60116C0.722811 6.48584 0 7.20865 0 8.087Z" fill="#6299EC"/>
<path d="M20.358 6.48584H11.666V10.6031V11.9755H20.1293H20.358C21.2364 11.9755 21.9592 11.2527 21.9592 10.3744V8.087C21.9592 7.20865 21.2364 6.48584 20.358 6.48584Z" fill="#6299EC"/>
<path d="M10.9789 7.44108C10.7795 7.44108 10.5892 7.35416 10.4602 7.20319C10.3293 7.05222 10.2717 6.85185 10.3 6.65422C10.6386 4.36684 12.4255 0.0400391 16.7697 0.0400391C19.2492 0.040954 20.1284 1.38044 20.1284 2.52779C20.1284 4.56722 17.2894 7.44108 10.9789 7.44108ZM16.7697 1.41338C13.4923 1.41338 12.248 4.52879 11.8353 6.04852C14.421 5.92775 16.0514 5.27356 16.9902 4.71635C18.2921 3.94322 18.756 3.07859 18.756 2.52688C18.756 1.70525 17.7304 1.41338 16.7697 1.41338Z" fill="#6299EC"/>
<path d="M10.9806 7.44114C4.67015 7.44114 1.83105 4.56728 1.83105 2.52785C1.83105 1.3805 2.71124 0.0410156 5.19075 0.0410156C9.53403 0.0410156 11.3209 4.36782 11.6595 6.6552C11.6878 6.85283 11.6302 7.0532 11.4993 7.20417C11.3703 7.35422 11.18 7.44114 10.9806 7.44114ZM5.19075 1.41344C4.23006 1.41344 3.20348 1.70623 3.20348 2.52785C3.20348 3.69624 5.24657 5.82534 10.1233 6.0495C9.71153 4.52885 8.46719 1.41344 5.19075 1.41344Z" fill="#6299EC"/>
</svg>
