<svg width="21" height="21" viewBox="0 0 21 21" fill="none" xmlns="http://www.w3.org/2000/svg">
<path d="M16.9297 14.6033L13.737 13.539C13.6606 13.5134 13.5806 13.5002 13.5 13.5H7.50001C7.41942 13.5002 7.33939 13.5134 7.26302 13.539L4.07026 14.6033C1.63811 15.4114 -0.00232662 17.6872 2.47694e-06 20.25C2.47694e-06 20.6643 0.335788 21.0001 0.750017 21.0001H20.25C20.6642 21.0001 21 20.6643 21 20.25C21.0023 17.6872 19.3619 15.4114 16.9297 14.6033Z" fill="#929292"/>
<path d="M10.5 0C8.01472 0 6 2.01472 6 4.5V7.50001C6.00246 9.98428 8.01573 11.9975 10.5 12C12.9843 11.9975 14.9975 9.98428 15 7.50001V4.5C15 2.01472 12.9853 0 10.5 0Z" fill="#929292"/>
</svg>
