<svg width="20" height="20" viewBox="0 0 20 20" fill="none" xmlns="http://www.w3.org/2000/svg">
<path d="M6.42857 12.8571H0.714299C0.319796 12.8571 0 13.1769 0 13.5714V19.2856C0 19.6801 0.319796 19.9999 0.714299 19.9999H6.42857C6.82307 19.9999 7.14287 19.6801 7.14287 19.2856V13.5714C7.14287 13.1769 6.82307 12.8571 6.42857 12.8571ZM4.28571 17.1428C4.28571 17.5373 3.96591 17.8571 3.57141 17.8571C3.17691 17.8571 2.85711 17.5373 2.85711 17.1428V15.7142C2.85711 15.3197 3.17691 14.9999 3.57141 14.9999C3.96591 14.9999 4.28571 15.3197 4.28571 15.7142V17.1428Z" fill="#7C7C7C"/>
<path d="M2.85715 10.7142H0.714299C0.319796 10.7142 0 11.034 0 11.4285C0 11.823 0.319796 12.1428 0.714299 12.1428H2.85715C3.25166 12.1428 3.57145 11.823 3.57145 11.4285C3.57145 11.034 3.25162 10.7142 2.85715 10.7142Z" fill="#7C7C7C"/>
<path d="M1.42856 8.57141H0.714299C0.319796 8.57141 0 8.89121 0 9.28571C0 9.68021 0.319796 10 0.714299 10H1.4286C1.8231 10 2.1429 9.68021 2.1429 9.28571C2.1429 8.89121 1.82306 8.57141 1.42856 8.57141Z" fill="#7C7C7C"/>
<path d="M17.1431 2.85715H14.286V0.714299C14.286 0.319796 13.9662 0 13.5717 0H8.57172C8.17722 0 7.85742 0.319796 7.85742 0.714299C7.85742 1.1088 8.17722 1.4286 8.57172 1.4286H12.8574V3.57145C12.8574 3.96596 13.1772 4.28575 13.5717 4.28575H17.1431C17.5376 4.28575 17.8574 3.96596 17.8574 3.57145C17.8574 3.17695 17.5376 2.85715 17.1431 2.85715Z" fill="#7C7C7C"/>
<path d="M14.2856 5C13.8911 5 13.5713 5.3198 13.5713 5.7143V8.57141C13.5713 8.96591 13.8911 9.28571 14.2856 9.28571C14.6801 9.28571 14.9999 8.96591 14.9999 8.57141V5.71426C14.9999 5.3198 14.6801 5 14.2856 5Z" fill="#7C7C7C"/>
<path d="M6.42888 8.57141H3.57172C3.17722 8.57141 2.85742 8.89121 2.85742 9.28571C2.85742 9.68021 3.17722 10 3.57172 10H6.42888C6.82338 10 7.14317 9.68021 7.14317 9.28571C7.14317 8.89121 6.82338 8.57141 6.42888 8.57141Z" fill="#7C7C7C"/>
<path d="M12.1422 4.99998H9.28504V2.85712C9.28504 2.46262 8.96525 2.14282 8.57074 2.14282C8.17624 2.14282 7.85645 2.46262 7.85645 2.85712V5.71428C7.85645 6.10878 8.17624 6.42858 8.57074 6.42858H12.1422C12.5367 6.42858 12.8565 6.10878 12.8565 5.71428C12.8565 5.31977 12.5367 4.99998 12.1422 4.99998Z" fill="#7C7C7C"/>
<path d="M10.7143 2.14282C10.3198 2.14282 10 2.46262 10 2.85712V3.57142C10 3.96592 10.3198 4.28572 10.7143 4.28572C11.1088 4.28572 11.4286 3.96592 11.4286 3.57142V2.85712C11.4286 2.46262 11.1088 2.14282 10.7143 2.14282Z" fill="#7C7C7C"/>
<path d="M6.42857 0H0.714299C0.319796 0 0 0.319796 0 0.714299V6.42857C0 6.82307 0.319796 7.14287 0.714299 7.14287H6.42857C6.82307 7.14287 7.14287 6.82307 7.14287 6.42857V0.714299C7.14287 0.319796 6.82307 0 6.42857 0ZM4.28571 4.28571C4.28571 4.68021 3.96591 5.00001 3.57141 5.00001C3.17691 5.00001 2.85711 4.68021 2.85711 4.28571V2.85715C2.85711 2.46265 3.17691 2.14286 3.57141 2.14286C3.96591 2.14286 4.28571 2.46265 4.28571 2.85715V4.28571Z" fill="#7C7C7C"/>
<path d="M11.4286 11.4286H10.7143C10.3198 11.4286 10 11.7484 10 12.1429C10 12.5374 10.3198 12.8571 10.7143 12.8571H11.4286C11.8231 12.8571 12.1429 12.5373 12.1429 12.1428C12.1429 11.7483 11.8231 11.4286 11.4286 11.4286Z" fill="#7C7C7C"/>
<path d="M19.2853 5.71423H16.4282C16.0337 5.71423 15.7139 6.03403 15.7139 6.42853C15.7139 6.82304 16.0337 7.14283 16.4282 7.14283H19.2853C19.6798 7.14283 19.9996 6.82304 19.9996 6.42853C19.9996 6.03403 19.6798 5.71423 19.2853 5.71423Z" fill="#7C7C7C"/>
<path d="M19.2853 7.85706H16.4282C16.0337 7.85706 15.7139 8.17685 15.7139 8.57135C15.7139 8.96586 16.0337 9.28565 16.4282 9.28565H18.571V11.4285C18.571 11.823 18.8908 12.1428 19.2853 12.1428C19.6798 12.1428 19.9996 11.823 19.9996 11.4285V8.57135C19.9996 8.17685 19.6798 7.85706 19.2853 7.85706Z" fill="#7C7C7C"/>
<path d="M19.2857 0H15.7143C15.3198 0 15 0.319796 15 0.714299C15 1.1088 15.3198 1.4286 15.7143 1.4286H18.5715V4.28571C18.5715 4.68021 18.8913 5.00001 19.2858 5.00001C19.6803 5.00001 20.0001 4.68021 20.0001 4.28571V0.714299C20 0.319796 19.6802 0 19.2857 0Z" fill="#7C7C7C"/>
<path d="M19.286 12.8571H13.5717C13.1772 12.8571 12.8574 13.1769 12.8574 13.5714V19.2856C12.8574 19.6801 13.1772 19.9999 13.5717 19.9999H19.286C19.6805 19.9999 20.0003 19.6801 20.0003 19.2856V13.5714C20.0003 13.1769 19.6805 12.8571 19.286 12.8571ZM17.1431 17.1428C17.1431 17.5373 16.8233 17.8571 16.4288 17.8571C16.0343 17.8571 15.7145 17.5373 15.7145 17.1428V15.7142C15.7145 15.3197 16.0343 14.9999 16.4288 14.9999C16.8233 14.9999 17.1431 15.3197 17.1431 15.7142V17.1428Z" fill="#7C7C7C"/>
<path d="M11.4289 13.5714H8.57172C8.17722 13.5714 7.85742 13.8912 7.85742 14.2857C7.85742 14.6802 8.17722 15 8.57172 15H10.7146V19.2857C10.7146 19.6802 11.0344 20 11.4289 20C11.8234 20 12.1432 19.6802 12.1432 19.2857V14.2857C12.1431 13.8912 11.8233 13.5714 11.4289 13.5714Z" fill="#7C7C7C"/>
<path d="M17.1431 10H13.5717C13.1772 10 12.8574 10.3198 12.8574 10.7143C12.8574 11.1088 13.1772 11.4286 13.5717 11.4286H17.1431C17.5376 11.4286 17.8574 11.1088 17.8574 10.7143C17.8574 10.3198 17.5376 10 17.1431 10Z" fill="#7C7C7C"/>
<path d="M11.4286 9.28577H10.7143C10.3198 9.28577 10 9.60556 10 10.0001C10 10.3946 10.3198 10.7143 10.7143 10.7143H11.4286C11.8231 10.7143 12.1429 10.3945 12.1429 10C12.1429 9.60552 11.8231 9.28577 11.4286 9.28577Z" fill="#7C7C7C"/>
<path d="M8.57172 15.7142C8.17722 15.7142 7.85742 16.034 7.85742 16.4285V19.2856C7.85742 19.6801 8.17722 19.9999 8.57172 19.9999C8.96622 19.9999 9.28602 19.6801 9.28602 19.2856V16.4285C9.28602 16.034 8.96622 15.7142 8.57172 15.7142Z" fill="#7C7C7C"/>
<path d="M12.1429 7.14294H8.57145C8.17695 7.14294 7.85715 7.46274 7.85715 7.85724V10.7144H5.7143C5.3198 10.7144 5 11.0342 5 11.4287C5 11.8232 5.3198 12.143 5.7143 12.143H8.57145C8.96596 12.143 9.28575 11.8232 9.28575 11.4287V8.5715H12.1429C12.5374 8.5715 12.8572 8.2517 12.8572 7.8572C12.8572 7.46274 12.5374 7.14294 12.1429 7.14294Z" fill="#7C7C7C"/>
</svg>
