<svg width="19" height="23" viewBox="0 0 19 23" fill="none" xmlns="http://www.w3.org/2000/svg">
<path d="M11.1812 6.85694L12.2694 7.01516C12.4537 7.04193 12.5272 7.26834 12.3939 7.3983L11.6061 8.16599C11.4368 8.33085 11.3595 8.56895 11.3995 8.80209L11.5854 9.8859C11.6168 10.0694 11.4243 10.2093 11.2595 10.1227L10.2864 9.61115C10.1817 9.5559 10.0667 9.5285 9.95168 9.5285C9.74041 9.5285 9.74194 9.54103 8.64479 10.1215C8.48001 10.2087 8.28653 10.0689 8.31807 9.88514L8.50382 8.80209C8.5438 8.56895 8.46654 8.33085 8.29718 8.16599L7.5095 7.3983C7.37617 7.26839 7.44971 7.04193 7.63398 7.01516L8.72264 6.85689C8.95669 6.82275 9.15884 6.67586 9.26351 6.46382L9.75029 5.47749C9.83268 5.31056 10.0707 5.31056 10.1531 5.47749L10.6399 6.46382C10.7446 6.6759 10.9467 6.8228 11.1812 6.85694Z" fill="#929292"/>
<path d="M9.95231 0C5.59255 0 2.0459 3.54665 2.0459 7.90641C2.0459 12.2662 5.59255 15.8128 9.95231 15.8128C14.3121 15.8128 17.8587 12.2662 17.8587 7.90641C17.8587 3.54665 14.3121 0 9.95231 0ZM14.7666 7.09331L12.9653 8.84911C12.9124 8.90073 12.8882 8.97508 12.9007 9.04794L13.326 11.5272C13.4267 12.1141 12.8085 12.5606 12.2833 12.2846L10.0568 11.1144C9.99134 11.0801 9.91318 11.0801 9.84777 11.1144L7.62122 12.2846C7.09517 12.5618 6.47789 12.1137 6.57856 11.5272L7.0038 9.04794C7.01629 8.97508 6.99212 8.90073 6.9392 8.84911L5.13793 7.09331C4.71229 6.6784 4.94742 5.95335 5.5364 5.86736L8.02552 5.50565C8.0987 5.495 8.16191 5.44909 8.19466 5.38278L9.30771 3.12752C9.5715 2.59402 10.3333 2.5942 10.597 3.12752L11.71 5.38278C11.7427 5.44909 11.806 5.49504 11.8792 5.50565L14.3683 5.86736C14.9564 5.95321 15.1929 6.67781 14.7666 7.09331Z" fill="#929292"/>
<path d="M18.0089 21.0028L15.0854 20.1164L13.416 22.6743C13.0923 23.1698 12.3414 23.0834 12.1384 22.5274L10.3213 17.5339C10.2697 17.3921 10.3698 17.242 10.5204 17.2329C12.8617 17.0918 14.9731 16.0848 16.5377 14.5285C16.6538 14.413 16.8505 14.4572 16.9065 14.6111L18.893 20.0692C19.095 20.6243 18.5752 21.1746 18.0089 21.0028Z" fill="#929292"/>
<path d="M9.38297 17.2329C9.53355 17.2419 9.63364 17.3921 9.58202 17.5339L7.76445 22.5274C7.5627 23.0829 6.81132 23.1701 6.48729 22.6743L4.81796 20.1164L1.89439 21.0027C1.32921 21.1742 0.808021 20.6253 1.01031 20.0692L2.99679 14.6111C3.05281 14.4572 3.24953 14.413 3.36565 14.5285C4.93022 16.0848 7.04164 17.0918 9.38297 17.2329Z" fill="#929292"/>
</svg>
